<?xml version="1.0" encoding="iso-8859-1"?>
<!-- Generator: Adobe Illustrator 19.0.0, SVG Export Plug-In . SVG Version: 6.00 Build 0)  -->
<svg xmlns="http://www.w3.org/2000/svg" xmlns:xlink="http://www.w3.org/1999/xlink" version="1.1" id="Layer_1" x="0px" y="0px" viewBox="0 0 443.634 443.634" style="enable-background:new 0 0 443.634 443.634;" xml:space="preserve" width="512" height="512">
<g>
	<path style="fill:#9AD14B;" d="M332.17,188.526c18.44,35.52,29.43,75.48,29.43,107.82c0,77.2-62.58,139.79-139.78,139.79   s-139.79-62.59-139.79-139.79c0-32.34,10.99-72.3,29.43-107.82c11.16-21.49,20.83-43.7,28.85-66.55   c14.65-41.76,45.64-82.98,81.51-82.98c35.86,0,66.85,41.22,81.51,82.98C311.34,144.826,321.01,167.036,332.17,188.526z    M287.25,302.186c0-36.14-29.29-94.04-65.43-94.04s-65.44,57.9-65.44,94.04s29.3,65.44,65.44,65.44S287.25,338.326,287.25,302.186z   "/>
	<path style="fill:#B27214;" d="M221.82,208.146c36.14,0,65.43,57.9,65.43,94.04s-29.29,65.44-65.43,65.44s-65.44-29.3-65.44-65.44   S185.68,208.146,221.82,208.146z"/>
	<path style="fill:#FFFFFF;" d="M260.907,326.192c-0.977,0-1.968-0.191-2.923-0.596c-3.813-1.616-5.596-6.018-3.98-9.832   c1.822-4.3,2.746-8.869,2.746-13.578c0-12.426-5.981-30.7-14.545-44.438c-2.512-4.029-5.163-7.59-7.881-10.587   c-2.783-3.068-2.553-7.811,0.516-10.594c3.066-2.782,7.81-2.553,10.594,0.516c3.319,3.659,6.516,7.942,9.5,12.73   c10.216,16.386,16.816,36.944,16.816,52.373c0,6.731-1.323,13.268-3.934,19.43C266.604,324.475,263.828,326.192,260.907,326.192z"/>
	<g>
		<path style="fill:#333333;" d="M221.817,200.643c-19.066,0-37.76,13.14-52.637,37c-12.522,20.085-20.302,44.816-20.302,64.542    c0,40.218,32.72,72.938,72.938,72.938c40.218,0,72.938-32.72,72.938-72.938c0-19.726-7.779-44.457-20.302-64.542    C259.576,213.783,240.883,200.643,221.817,200.643z M221.817,360.122c-31.947,0-57.938-25.991-57.938-57.938    c0-32.604,27.079-86.542,57.938-86.542c30.858,0,57.938,53.938,57.938,86.542C279.754,334.131,253.764,360.122,221.817,360.122z"/>
		<path style="fill:#333333;" d="M338.827,185.072c-11.074-21.329-20.639-43.394-28.425-65.583    c-14.396-41.021-44.565-82.387-81.085-87.467V7.5c0-4.142-3.357-7.5-7.5-7.5s-7.5,3.358-7.5,7.5v24.522    c-36.521,5.08-66.69,46.446-81.086,87.467c-7.786,22.188-17.35,44.253-28.424,65.583C85.851,221.58,74.534,263.18,74.534,296.351    c0,81.212,66.071,147.283,147.283,147.283S369.1,377.563,369.1,296.351C369.1,263.182,357.783,221.582,338.827,185.072z     M221.817,428.634c-72.941,0-132.283-59.342-132.283-132.283c0-30.878,10.687-69.894,28.586-104.367    c11.399-21.956,21.246-44.676,29.266-67.528c13.176-37.546,42.088-77.957,74.432-77.957c32.343,0,61.255,40.411,74.431,77.957    c8.021,22.854,17.867,45.574,29.267,67.528c17.899,34.475,28.586,73.491,28.586,104.367    C354.1,369.292,294.758,428.634,221.817,428.634z"/>
	</g>
	<circle style="fill:#FFFFFF;" cx="221.869" cy="231.411" r="7.5"/>
</g>















</svg>
