<?xml version="1.0" encoding="UTF-8"?>
<svg width="43px" height="34px" viewBox="0 0 43 34" version="1.1" xmlns="http://www.w3.org/2000/svg" xmlns:xlink="http://www.w3.org/1999/xlink">
    <!-- Generator: Sketch 48.2 (47327) - http://www.bohemiancoding.com/sketch -->
    <title>site-logo</title>
    <desc>Created with Sketch.</desc>
    <defs></defs>
    <g id="supported" stroke="none" stroke-width="1" fill="none" fill-rule="evenodd" transform="translate(-540.000000, -2703.000000)">
        <g id="site-logo" transform="translate(540.000000, 2703.000000)" fill="#FFFFFF" fill-rule="nonzero">
            <g id="Head-all" transform="translate(0.000000, 0.370732)">
                <path d="M20.9627873,22.2142241 C20.9850881,23.0155388 20.9181856,23.9949234 19.8923471,24.1507346 C19.4686311,24.2175109 19.1564194,24.0616997 18.8888094,23.6721717 C18.8107564,23.5497486 18.7215531,23.4607136 18.5988985,23.4050668 C18.3758901,23.3160318 18.1305809,23.382808 17.9856254,23.5720074 C17.8295196,23.7612066 17.84067,23.9949234 17.9633246,24.2063815 C18.5208455,25.1857661 19.758542,25.5307766 20.7509293,24.9743081 C20.9627873,24.8630144 21.1857956,24.7294619 21.4422553,24.5847801 C21.542609,24.5180039 21.620662,24.5180039 21.7321662,24.5847801 C21.7990687,24.6292976 21.8659712,24.6626857 21.9997762,24.7405913 C22.1447316,24.8296262 22.2116342,24.8630144 22.2896871,24.9075318 C22.6353501,25.1189899 22.9921635,25.2302836 23.3935785,25.2525424 L23.4381802,25.2525424 C23.4493306,25.241413 23.4716315,25.241413 23.5162331,25.241413 C23.5831357,25.2302836 23.6165869,25.2302836 23.6611886,25.2302836 C24.3302137,25.1412486 24.8542834,24.7851088 25.2110968,24.1952521 C25.3672027,23.9170178 25.2891497,23.5942661 25.0215397,23.4384549 C24.7650801,23.2937731 24.4640187,23.382808 24.2967625,23.6276542 C24.2856121,23.6387836 24.2856121,23.649913 24.2744616,23.6721717 C24.2633112,23.6833011 24.2633112,23.6833011 24.2633112,23.6833011 C23.9510995,24.1729934 23.4270298,24.3065458 22.925261,24.0394409 C21.9217233,23.4941018 22.1112804,22.6705283 22.0666787,22.1919654 C22.579598,22.0138954 22.9698626,21.6354968 23.1594198,21.1458045 C23.3155256,20.7228884 23.2151719,20.3222311 22.8583585,20.0551262 C22.7580047,19.9772206 22.6576509,19.899315 22.5461467,19.8547975 C22.0666787,19.6322101 21.5649099,19.5543045 21.063141,19.6322101 C20.5948234,19.7101157 20.2491605,19.8436681 19.9480991,20.0996437 C19.6581882,20.3667486 19.5689849,20.711759 19.70279,21.0901577 C19.8923471,21.6800143 20.3383638,22.091801 20.9627873,22.2142241 Z M38.2236355,16.6829268 C41.0558418,11.9863324 41.2676996,4.29593712 40.2418614,4.10673784 C37.8445213,3.66156299 34.0756797,5.57581476 32.3696657,7.9352414 C34.3321394,9.57125888 36.985939,13.4665387 38.2236355,16.6829268 Z M4.62742378,16.6829268 C1.80636784,11.9863324 1.58335946,4.29593712 2.62034841,4.10673784 C5.01768843,3.66156299 8.77537956,5.57581476 10.4813936,7.9352414 C8.51891992,9.57125888 5.87627067,13.4665387 4.62742378,16.6829268 Z M17.3166003,2.17022731 C17.1827953,1.40230072 17.5619095,0.667762248 18.2755363,0.289363641 C18.5431464,0.14468182 18.8219068,0.055646854 19.1118177,0.0222587416 C19.1229682,0.0222587416 19.3125253,0.0111293708 19.6804891,0 C19.758542,0.0111293708 19.7919933,0.0222587416 19.8588958,0.0333881124 C20.0373025,0.0667762248 20.104205,0.0890349664 20.2045588,0.111293708 C20.8512831,0.300493012 21.4311048,0.656632876 21.9440241,1.16858394 C22.0889796,1.31326576 22.2227846,1.45794758 22.4234921,1.68053499 C22.4123417,1.66940562 22.5238459,1.80295807 22.6130492,1.90312241 C22.8918097,1.58037065 23.2820744,1.45794758 23.7838432,1.50246506 C24.9100355,1.6026294 25.7909186,2.18135668 26.4710941,3.20525879 C26.7052529,3.57252803 26.8725092,3.98431475 26.9951638,4.47400708 C27.5972864,4.66320636 28.1882586,4.94144064 28.9130358,5.342098 C29.6824147,4.7188532 30.5744482,4.21803152 31.6894901,3.76172733 C33.2505487,3.11622382 34.8673594,2.69330773 36.5510727,2.47072032 C37.5100087,2.34829724 38.3685909,2.31490913 39.1937219,2.39281472 C39.8627471,2.45959095 40.3756662,2.57088466 40.843984,2.80460144 C40.9443376,2.8602483 41.0446913,2.94928326 41.1115941,3.0494476 C41.4795578,3.59478677 41.7137167,4.21803152 41.8586721,4.99708748 C42.0482292,5.99873088 42.092831,7.04489172 42.014778,8.2357344 C41.8921233,10.08321 41.513009,11.8972974 40.8997359,13.7002554 C40.420268,15.0802974 39.8738976,16.2600107 39.1714211,17.3061716 C39.0487665,17.5065003 38.903811,17.6956996 38.7477052,17.8848989 C39.0487665,18.8086366 39.2606244,19.5876926 39.383279,20.3556192 C39.4947832,21.1124164 39.5282345,21.9026017 39.4836328,22.7261752 C39.4278807,23.6610423 39.3052261,24.4512276 39.0822177,25.1857661 C39.0487665,25.2748011 39.0153152,25.3749654 38.981864,25.4751298 C38.9595631,25.541906 38.9372623,25.6198116 38.8926606,25.7199759 C38.8815102,25.7644934 38.8146077,25.9203046 38.8034572,25.9648221 C40.2530119,26.5769375 41.5464602,27.344864 42.6838031,28.2797312 C42.7172543,28.30199 42.739555,28.3242487 42.7841567,28.3687662 C42.8510591,28.4355424 42.8733602,28.4800599 42.8733602,28.5357067 C42.8733602,28.6692592 42.8510591,28.7137767 42.8287585,28.7471648 C42.661502,28.9586228 42.4830954,28.9697522 42.2823877,28.8028116 C41.167346,27.8902032 39.9073488,27.1556648 38.502396,26.5769375 C38.2124851,27.1222766 37.8668221,27.6342277 37.465407,28.1127906 C37.5211591,28.1684375 37.5880616,28.2240844 37.6215129,28.2463431 C39.1045186,29.4705739 40.342215,30.8172278 41.3903543,32.3308222 C41.5353097,32.564539 41.513009,32.7537383 41.3457526,32.865032 C41.1784965,32.9763257 40.9889394,32.9318082 40.8774352,32.775997 C40.843984,32.7314795 40.8216829,32.7092208 40.7770816,32.6313152 C40.5986746,32.386469 40.5206216,32.2751753 40.420268,32.1416229 C39.4501815,30.8283571 38.3128388,29.6597732 37.0193903,28.6247417 C36.8632844,28.7582942 36.6625769,28.9586228 36.640276,28.9697522 C36.4618693,29.1366928 36.3169139,29.2702452 36.1719585,29.3926683 C35.1572703,30.283018 33.9530251,30.9507802 32.4700194,31.5072487 C30.7194037,32.1527522 28.9464871,32.6090564 27.1401192,32.8761614 C26.013927,33.0431019 24.9434867,33.165525 23.8953474,33.2656893 C22.7803055,33.376983 21.620662,33.3881124 20.2491605,33.3324656 C19.3236757,33.2879481 18.4427926,33.2100425 17.6065112,33.07649 C17.3500516,33.0319725 17.1381936,32.9985844 16.6698761,32.9540669 C16.2461601,32.9095494 16.056603,32.8872907 15.8335946,32.8427732 C13.2689983,32.4643746 11.1058171,31.8856474 9.14334338,30.9730389 C7.95024858,30.4276998 6.87980837,29.6375144 5.86512025,28.6136123 C5.76476649,28.6915179 5.6421119,28.7916822 5.58635981,28.8361998 C5.53060768,28.8807172 5.48600601,28.9252347 5.43025392,28.9697522 C4.12565495,30.0715599 2.98831223,31.3291788 2.02937621,32.7314795 C1.90672161,32.9206788 1.72831491,32.987455 1.53875779,32.8761614 C1.34920067,32.775997 1.33805025,32.5534096 1.46070486,32.3753396 C1.53875779,32.264046 1.61681072,32.1416229 1.71716449,32.0080704 C2.76530385,30.5501228 3.9918499,29.2591158 5.40795309,28.12392 C5.30759933,27.9903676 5.30759933,27.9903676 5.26299766,27.9347207 C5.07344052,27.6898746 4.96193635,27.5451927 4.85043217,27.3782522 C4.76122879,27.2335704 4.66087503,27.0888885 4.53822044,26.8774305 C4.50476919,26.8217836 4.39326497,26.6325843 4.40441543,26.6548431 C4.30406163,26.5991962 4.23715912,26.6325843 4.12565495,26.6771018 C4.02530119,26.7216193 3.94724824,26.7550074 3.88034572,26.7883955 C3.7465407,26.8551718 3.63503651,26.8996892 3.52353233,26.9553361 C2.44194171,27.4672871 1.47185527,28.0794025 0.579821775,28.813941 C0.412565495,28.9474934 0.200707537,28.9586228 0.0669025123,28.7916822 C-0.0557520939,28.6247417 -4.33680869e-19,28.424413 0.167256281,28.2908606 C1.31574941,27.344864 2.62034841,26.5880668 4.08105328,25.9759514 C4.04760202,25.8980458 4.01415073,25.8201402 4.00300031,25.7867522 C3.69078861,25.0076962 3.52353233,24.2063815 3.42317856,23.2158675 C3.35627605,22.4590703 3.35627605,21.6800143 3.42317856,20.8786996 C3.49008107,20.1441612 3.65733735,19.4318814 3.94724824,18.4636262 C3.96954908,18.3857206 3.9918499,18.3300737 4.03645161,18.1853919 C4.08105328,18.0518394 4.10335411,17.9850632 4.12565495,17.9071576 C3.25592228,16.7830912 2.59804757,15.4809548 2.0182258,13.8338079 C1.53875779,12.4648953 1.19309481,11.0403358 0.992387269,9.58238824 C0.813980568,8.29138124 0.769378894,7.12279732 0.869732664,6.00986024 C0.958936012,5.04160496 1.12619229,4.2736784 1.46070486,3.57252803 C1.47185527,3.53913992 1.4830057,3.51688117 1.51645695,3.47236369 C1.53875779,3.41671684 1.54990821,3.3944581 1.56105863,3.36106998 C1.70601407,3.00493012 1.98477454,2.7823427 2.39734003,2.64879025 C2.96601139,2.47072032 3.55698358,2.38168535 4.19255745,2.35942661 C5.94317321,2.31490913 7.71608977,2.60427277 9.68971388,3.21638816 C11.0389146,3.63930425 12.1874077,4.15125532 13.2132462,4.8078882 C14.1721822,5.42000356 14.885809,6.4772938 15.9897005,6.62197564 C16.2907618,6.66649312 16.6141239,6.68875184 16.6921769,6.31035324 C16.747929,6.00986024 16.3130626,5.84291968 16.0120013,5.77614344 C14.7074023,5.49790916 13.8822713,3.65043362 15.2872241,2.62653151 C15.6997896,2.33716787 16.190408,2.20361542 16.7144777,2.23700353 C16.8928844,2.2481329 17.0378399,2.28152102 17.3389011,2.33716787 C17.3389011,2.28152102 17.3166003,2.22587416 17.3166003,2.17022731 Z M25.5679102,19.9215737 C25.5679102,20.6338535 25.6236623,21.2125808 25.802069,21.7801786 C25.9804757,22.3700353 26.2369353,22.9042451 26.7275538,23.3049024 C27.0732167,23.5831367 27.4746318,23.7278186 27.8871973,23.8502416 C29.0579913,24.2175109 30.2622365,24.3399339 31.4776321,24.3399339 C32.0574539,24.3399339 32.6372757,24.2842871 33.2170975,24.2286402 C33.9530251,24.161864 34.5551477,23.8279829 35.0123149,23.2492556 C35.6255879,22.4924584 35.8485963,21.6021087 35.8820476,20.6449828 C35.9377996,19.3873639 35.6255879,18.2076506 35.0123149,17.1169723 C34.3432898,15.9150002 33.4066546,14.9690037 32.1355068,14.4347939 C31.0427658,13.9673604 29.9165735,13.9005841 28.7792308,14.2789827 C27.8760469,14.5794758 27.2070218,15.2138499 26.7052529,16.0040352 C25.9135732,17.2393954 25.590211,18.5971786 25.5679102,19.9215737 Z M11.0166137,24.3399339 C11.0166137,24.3288046 11.0166137,24.3176752 11.0166137,24.3065458 C11.2061708,24.3065458 11.4068784,24.3176752 11.6075859,24.3065458 C12.4215665,24.3065458 13.2243967,24.2286402 14.0160764,24.0616997 C14.4732435,23.9615353 14.9304107,23.8279829 15.3764275,23.6833011 C16.1569568,23.4384549 16.6475752,22.8931157 16.9374861,22.1474479 C17.2496978,21.3795213 17.3277507,20.5782066 17.2942995,19.7546332 C17.2608482,18.7752485 17.0601407,17.8403814 16.6810265,16.9389024 C16.3465139,16.1709758 15.9004972,15.4809548 15.2649233,14.9356156 C14.2948368,14.1120422 13.1574941,13.9228429 11.9532489,14.0897834 C10.7936053,14.2455946 9.81236852,14.7798044 8.99838795,15.6033779 C7.72724019,16.8832555 7.04706464,18.430238 6.98016213,20.2443255 C6.94671088,21.101287 7.09166635,21.9248605 7.50423184,22.6927871 C7.91679733,23.4829724 8.54122075,24.0171822 9.43325428,24.1729934 C9.95732395,24.2620284 10.4813936,24.2842871 11.0166137,24.3399339 Z" id="Head"></path>
                <path d="M22.36774,20.9232171 C22.4123417,20.7896646 22.3900409,20.7006297 22.2896871,20.6227241 C22.233935,20.5782066 22.1781829,20.5448185 22.1335812,20.5225598 C21.8325199,20.3778779 21.5203082,20.3333604 21.2080965,20.3890073 C20.9070352,20.4335248 20.717478,20.500301 20.5613722,20.6449828 C20.4833193,20.711759 20.4610184,20.7896646 20.4944697,20.9009584 C20.6171243,21.2570982 21.0296898,21.5464619 21.4311048,21.5464619 C21.8213695,21.5464619 22.233935,21.279357 22.36774,20.9232171 Z" id="nose"></path>
                <path d="M28.9353367,20.1441612 C29.7604677,20.1441612 30.2956877,19.7101157 30.407192,18.9199304 C30.5186961,18.1520038 30.329139,17.4508534 29.8162197,16.8609968 C29.3144509,16.2711401 28.5339216,16.2488814 27.9875511,16.7942205 C27.5638352,17.2171366 27.3854285,17.7513464 27.3408268,18.3300737 C27.3185259,18.6862136 27.3742781,19.0312241 27.5303839,19.3428464 C27.8202948,19.9215737 28.3220636,20.1441612 28.9353367,20.1441612 Z" id="Eye-r"></path>
                <path d="M13.926873,20.1219024 C13.9937756,20.1219024 14.0606781,20.1219024 14.1275806,20.1219024 C14.7408536,20.0885143 15.231472,19.7323744 15.4210291,19.1313884 C15.6774888,18.2966856 15.5213829,17.5176296 14.9527115,16.8609968 C14.4286419,16.2266226 13.6035109,16.2266226 13.0682908,16.838738 C12.5776724,17.3729478 12.3992656,18.0295807 12.4438673,18.7529898 C12.4661682,19.0757416 12.5665219,19.3762346 12.7672295,19.6322101 C13.0682908,19.9994793 13.4697058,20.1330318 13.926873,20.1219024 Z" id="Eye-l"></path>
            </g>
        </g>
    </g>
</svg>