<?xml version="1.0" encoding="UTF-8"?>
<svg width="46px" height="46px" viewBox="0 0 46 46" version="1.1" xmlns="http://www.w3.org/2000/svg" xmlns:xlink="http://www.w3.org/1999/xlink">
    <!-- Generator: Sketch 48.2 (47327) - http://www.bohemiancoding.com/sketch -->
    <title>spaceship</title>
    <desc>Created with Sketch.</desc>
    <defs></defs>
    <g id="DiscoveryCK" stroke="none" stroke-width="1" fill="none" fill-rule="evenodd" transform="translate(-97.000000, -45.000000)">
        <g id="spaceship" transform="translate(97.000000, 45.000000)" fill="#FFFFFF" fill-rule="nonzero">
            <path d="M21.713,5.914 C16.054,4.587 10.078,6.224 5.851,10.451 C4.868,11.434 3.989,12.577 3.239,13.849 C3.008,14.242 3.071,14.742 3.393,15.064 L8.27,19.941 C10.868,15.883 15.22,10.377 21.713,5.914 Z" id="Shape"></path>
            <path d="M26.03,37.702 L30.936,42.607 C31.128,42.8 31.384,42.9 31.643,42.9 C31.818,42.9 31.993,42.855 32.151,42.761 C33.424,42.01 34.568,41.131 35.549,40.149 C39.819,35.879 41.447,29.856 40.061,24.167 C35.589,30.687 30.079,35.078 26.03,37.702 Z" id="Shape"></path>
            <path d="M6,34 C2.691,34 0,36.691 0,40 L0,45 C0,45.552 0.447,46 1,46 L6,46 C9.309,46 12,43.309 12,40 C12,36.691 9.309,34 6,34 Z" id="Shape"></path>
            <path d="M28.756,4.17 C13.23,11.438 7.12,26.15 7.044,26.341 C6.895,26.713 6.982,27.138 7.265,27.421 L18.578,38.734 C18.769,38.925 19.025,39.027 19.285,39.027 C19.413,39.027 19.541,39.003 19.664,38.953 C19.854,38.875 34.493,32.695 41.782,17.195 L28.756,4.17 Z M26,24 C23.791,24 22,22.209 22,20 C22,17.791 23.791,16 26,16 C28.209,16 30,17.791 30,20 C30,22.209 28.209,24 26,24 Z" id="Shape"></path>
            <path d="M42.645,15.23 C44.295,11.189 45.441,6.571 45.74,1.314 C45.757,1.03 45.651,0.753 45.451,0.552 C45.25,0.35 44.957,0.241 44.69,0.259 C39.409,0.535 34.775,1.667 30.726,3.31 L42.645,15.23 Z" id="Shape"></path>
        </g>
    </g>
</svg>