<?xml version="1.0" encoding="UTF-8"?>
<svg width="42px" height="34px" viewBox="0 0 42 34" version="1.1" xmlns="http://www.w3.org/2000/svg" xmlns:xlink="http://www.w3.org/1999/xlink">
    <!-- Generator: Sketch 48.2 (47327) - http://www.bohemiancoding.com/sketch -->
    <title>logo copy 3</title>
    <desc>Created with Sketch.</desc>
    <defs></defs>
    <g id="DiscoveryMain-Copy-2" stroke="none" stroke-width="1" fill="none" fill-rule="evenodd" transform="translate(-539.000000, -1566.000000)">
        <g id="Group-9-Copy-5" transform="translate(519.000000, 1546.000000)">
            <g id="logo-copy-3" transform="translate(20.000000, 20.000000)">
                <path d="M30.7145652,30.0353659 C32.6080093,28.3362109 34.3542387,26.4818067 35.9347826,24.4917683 C36.9942617,24.7840879 38.1245079,24.6844666 39.1156522,24.2114024 C38.2289506,23.4817642 37.4591286,22.6223381 36.8326087,21.662622 C38.2650124,22.2093127 39.8718011,22.0633207 41.1806522,21.267561 C41.1806522,21.267561 37.0378261,18.9736585 36.4478261,17.1257927 C34.2545652,10.3078049 34.4213043,9.69609756 34.4213043,9.69609756 C35.703913,6.39542683 36.7043478,2.62323171 35.703913,1.38707317 C34.4213043,-0.193170732 32.9206522,2.29189024 29.1113043,4.84067073 C29.1113043,4.84067073 26.8282609,2.68695122 20.6973913,2.68695122 C17.8562695,2.83209489 15.0792737,3.57946926 12.5528261,4.87890244 C10.8084783,3.6045122 9.67978261,2.43207317 8.29456522,1.64195122 C6.19108696,0.367560976 5.19065217,1.5272561 5.97304348,4.19073171 C6.29369565,5.26121951 6.78108696,7.61884146 7.25565217,9.72158537 C7.60195652,11.2253659 7.25565217,10.8812805 5.97304348,15.5073171 C5.53704056,16.6311088 4.977877,17.7038069 4.30565217,18.7060366 C3.37242285,19.9868804 2.00670249,20.8915266 0.457826087,21.2548171 C1.76667717,22.0505768 3.37346585,22.1965688 4.80586957,21.649878 C4.17934962,22.6095942 3.40952767,23.4690203 2.52282609,24.1986585 C3.51397035,24.6717227 4.64421659,24.771344 5.70369565,24.4790244 C6.77187707,26.7518854 8.56053103,28.614133 10.7956522,29.7804878 C10.7956522,29.7804878 13.3608696,32.7880488 20.7486957,32.7880488 C27.4054348,32.7880488 30.7145652,30.0353659 30.7145652,30.0353659 Z" id="Shape" fill="#FFE888" fill-rule="nonzero"></path>
                <path d="M14.8102174,3.77018293 C14.8102174,3.77018293 7.3326087,10.817561 8.32021739,20.4137195 C9.41043478,30.9784146 20.7486957,32.7880488 20.7486957,32.7880488 C14.6762165,32.6991149 9.05599766,29.5813459 5.79347826,24.4917683 C5.79347826,24.4917683 3.63869565,25.2564024 2.6126087,24.2114024 C2.6126087,24.2114024 4.54934783,22.9370122 4.89565217,21.662622 C3.46945145,22.2516424 1.84263263,22.1038305 0.547608696,21.267561 C2.41070159,20.7804676 3.99423003,19.5613268 4.93413043,17.8904268 C7.37108696,13.7868902 7.43521739,6.99439024 14.8102174,3.77018293 Z" id="Shape" fill="#EABA5C" fill-rule="nonzero"></path>
                <path d="M11.3856522,6.17878049 C11.3856522,6.17878049 9.89782609,4.90439024 8.20478261,3.63 C6.92217391,2.64871951 6.26804348,2.62323171 5.93456522,3.71920732 L7.51217391,10.2695732 L9,9.3902439 L10.18,7.45317073 L11.3856522,6.17878049 Z M30.393913,6.17878049 C30.393913,6.17878049 31.8817391,4.90439024 33.5747826,3.63 C34.8573913,2.64871951 35.5115217,2.62323171 35.845,3.71920732 L34.2673913,10.3332927 L32.8308696,9.3902439 L31.6508696,7.45317073 L30.393913,6.17878049 Z" id="Shape" fill="#EABA5C" fill-rule="nonzero"></path>
                <path d="M5.79347826,24.4917683 C4.72604413,24.7905274 3.58547124,24.6908001 2.58695652,24.2114024 C3.4736581,23.4817642 4.24348005,22.6223381 4.87,21.662622 C3.43759628,22.2093127 1.83080761,22.0633207 0.521956522,21.267561 C2.41068732,20.8330947 4.01346519,19.5991339 4.90847826,17.8904268 C5.9473913,15.8768902 7.31978261,11.9135366 8.43565217,9.9 C11.2830435,4.72597561 15.0026087,2.68695122 20.7230435,2.68695122 C26.0184866,2.38916184 30.9866781,5.24283697 33.3695652,9.95097561 C34.4854348,11.9645122 35.8578261,15.9278659 36.8967391,17.9414024 C37.7917522,19.6501095 39.3945301,20.8840703 41.2832609,21.3185366 C39.9737776,22.1123998 38.3678966,22.2583093 36.9352174,21.7135976 C37.5617373,22.6733137 38.3315593,23.5327398 39.2182609,24.262378 C38.2271166,24.7354422 37.0968704,24.8350635 36.0373913,24.5427439 C36.0373913,24.5427439 30.8043478,32.7880488 20.8897826,32.7880488 C10.9752174,32.7880488 5.79347826,24.4917683 5.79347826,24.4917683 Z" id="Shape" stroke="#44392E" stroke-width="0.803894009" stroke-linecap="round" stroke-linejoin="round"></path>
                <path d="M12.3476087,4.73871951 L8.34586957,1.74390244 C6.80673913,0.558719512 5.24195652,1.11945122 5.78065217,3.55353659 C6.17826087,5.15926829 7.44804348,10.3842683 7.44804348,10.3842683 M29.1626087,4.89164634 L33.3695652,1.65469512 C34.9086957,0.469512195 36.4734783,1.0302439 35.9347826,3.46432927 C35.5371739,5.07006098 34.2802174,10.3332927 34.2802174,10.3332927" id="Shape" stroke="#44392E" stroke-width="0.680316008" stroke-linecap="round" stroke-linejoin="round"></path>
                <ellipse id="Oval" stroke="#44392E" stroke-width="0.680316008" fill="#FFFFFF" fill-rule="nonzero" cx="11.0521739" cy="14.2329268" rx="5.25869565" ry="5.225"></ellipse>
                <ellipse id="Oval" stroke="#F930E7" stroke-width="0.698152008" fill="#44392E" fill-rule="nonzero" cx="11.0778261" cy="14.0417683" rx="3.23217391" ry="3.21146341"></ellipse>
                <ellipse id="Oval" fill="#FFFFFF" fill-rule="nonzero" transform="translate(11.037843, 11.846211) rotate(-45.030000) translate(-11.037843, -11.846211) " cx="11.0378433" cy="11.8462107" rx="1.51347826" ry="1.50378049"></ellipse>
                <ellipse id="Oval" stroke="#44392E" stroke-width="0.680316008" fill="#FFFFFF" fill-rule="nonzero" cx="30.7658696" cy="14.2329268" rx="5.25869565" ry="5.225"></ellipse>
                <ellipse id="Oval" stroke="#F930E7" stroke-width="0.698152008" fill="#44392E" fill-rule="nonzero" cx="30.8043478" cy="14.2839024" rx="3.23217391" ry="3.21146341"></ellipse>
                <ellipse id="Oval" fill="#FFFFFF" fill-rule="nonzero" transform="translate(30.770252, 12.092259) rotate(-45.030000) translate(-30.770252, -12.092259) " cx="30.7702515" cy="12.0922595" rx="1.51347826" ry="1.50378049"></ellipse>
                <path d="M23.9167391,23.2810976 C23.9528785,25.0120437 22.6797627,26.4960422 20.953913,26.7346951 C19.2199665,26.5073808 17.9370313,25.0183822 17.9782609,23.2810976 L20.9282609,21.5606707 L23.9167391,23.2810976 Z" id="Shape" fill="#44392E" fill-rule="nonzero"></path>
                <path d="M23.3395652,25.320122 C22.7103641,24.6657113 21.8391333,24.2955065 20.9282609,24.2955065 C20.0173884,24.2955065 19.1461576,24.6657113 18.5169565,25.320122 L20.953913,26.3778659 L23.3395652,25.320122 Z" id="Shape" fill="#F930E7" fill-rule="nonzero"></path>
                <path d="M18.888913,25.2181707 C19.4337899,24.6777119 20.1853947,24.394767 20.953913,24.4407927 C21.6113645,24.4173977 22.25755,24.61495 22.7880435,25.0015244" id="Shape" stroke="#44392E" stroke-width="0.572026007" stroke-linecap="round"></path>
                <path d="M20.7358696,22.4527439 L21.1719565,22.4527439" id="Shape" stroke="#FFFFFF" stroke-width="2.17854003" stroke-linecap="round" stroke-linejoin="round"></path>
                <path d="M28.6367391,22.6311585 C27.9504918,23.1977879 27.1121938,23.5522247 26.2254348,23.6506707 C25.3416228,23.7562701 24.4453112,23.6737296 23.596087,23.4085366 C22.7122905,23.192254 21.899494,22.7533472 21.236087,22.1341463 C20.8895174,21.7822815 20.6495133,21.3406773 20.5434783,20.8597561 C20.528354,20.6263595 20.528354,20.392238 20.5434783,20.1588415 L20.5434783,19.5343902 C20.5364976,19.4025302 20.582613,19.27333 20.6716471,19.1753027 C20.7606813,19.0772754 20.8853152,19.0184794 21.0180435,19.0118902 C21.2966087,19.0046268 21.5300759,19.2196245 21.543913,19.4961585 L21.543913,20.1206098 C21.5240928,20.3027416 21.5240928,20.4864658 21.543913,20.6685976 C21.5948223,21.0067821 21.7467417,21.3219926 21.98,21.5734146 C22.5068428,22.1539751 23.1731609,22.5924179 23.9167391,22.8478049 C25.4334775,23.441492 27.1460035,23.2656332 28.5084783,22.3762805 C28.5857005,22.3095483 28.7006039,22.3095483 28.7778261,22.3762805 C28.803131,22.4283007 28.8015159,22.4892757 28.7734922,22.5399015 C28.7454685,22.5905272 28.6945061,22.6245351 28.6367391,22.6311585 Z" id="Shape" fill="#44392E" fill-rule="nonzero"></path>
                <path d="M13.861087,22.3635366 C14.4797887,22.8563804 15.2485369,23.1259648 16.0415217,23.1281707 C16.8354392,23.153493 17.6259906,23.0146226 18.3630435,22.7203659 C19.0727364,22.469636 19.698691,22.0285412 20.1715217,21.4459756 C20.3623638,21.1871157 20.4656498,20.8747812 20.4665217,20.5539024 L20.4665217,19.2795122 C20.4630761,19.1476842 20.5125004,19.0198997 20.6039132,18.9242923 C20.695326,18.8286848 20.8212327,18.773093 20.953913,18.7697561 C21.2296417,18.7761173 21.453577,18.9930552 21.4669565,19.2667683 L21.4669565,20.5411585 C21.4340035,21.0524221 21.2361072,21.5395241 20.9026087,21.9302439 C20.2945077,22.6360566 19.4920438,23.1498864 18.593913,23.4085366 C17.7672528,23.6758542 16.8940714,23.7712887 16.0286957,23.6889024 C15.1406692,23.615628 14.3019342,23.2527128 13.6430435,22.6566463 C13.5909821,22.5870115 13.5968734,22.4902621 13.6570046,22.4273717 C13.7171358,22.3644813 13.8140792,22.3536771 13.8867391,22.4017683 L13.861087,22.3635366 Z" id="Shape" fill="#44392E" fill-rule="nonzero"></path>
                <path d="M23.9167391,23.6889024 C23.7742341,25.2089597 22.4903958,26.3712717 20.953913,26.3712717 C19.4174303,26.3712717 18.133592,25.2089597 17.991087,23.6889024" id="Shape" stroke="#44392E" stroke-width="0.86504601" stroke-linecap="round"></path>
                <g id="Group" transform="translate(6.065217, 17.036585)" fill="#44392E" fill-rule="nonzero">
                    <path d="M12.3747826,2.21743902 C12.296567,1.99967886 12.3514798,1.7566345 12.5158696,1.5929878 C13.1768608,0.988639722 14.0559981,0.676017224 14.9528261,0.726402439 C15.8102047,0.641959168 16.6609566,0.94085001 17.2743478,1.5420122 C17.4276926,1.71775433 17.4674587,1.96469967 17.3769565,2.17920732 C17.2570376,2.46355137 16.9816168,2.65262278 16.6715217,2.66347561 C16.1662932,2.64776043 15.6860044,2.88159401 15.388913,3.28792683 L15.3119565,3.37713415 C15.1881108,3.51063442 15.0137095,3.5865782 14.8309783,3.5865782 C14.648247,3.5865782 14.4738458,3.51063442 14.35,3.37713415 C14.35,3.37713415 14.0678261,2.88012195 13.0673913,2.80365854 C12.7566844,2.76846472 12.4930935,2.56091982 12.3876087,2.26841463 L12.3747826,2.21743902 Z M10.951087,3.33890244 C9.01008048,2.90267478 6.98971686,2.9596539 5.07673913,3.50457317 C3.14782631,4.09014404 1.46657863,5.29037802 0.292608696,6.91993902 C1.39155183,5.19177519 3.03208588,3.87074075 4.96130435,3.1604878 C6.92104595,2.48488368 9.0193717,2.30530364 11.0665217,2.6379878 C11.2621623,2.6706122 11.3976058,2.85004634 11.3743478,3.04579268 C11.3619718,3.1401455 11.3108254,3.22519422 11.2330633,3.28072762 C11.1553011,3.33626103 11.0578661,3.35732088 10.963913,3.33890244 L10.951087,3.33890244 Z" id="Shape"></path>
                    <path d="M11.0152174,4.2054878 C9.69397223,4.0597593 8.35840333,4.29419793 7.1673913,4.88091463 C6.03320175,5.63061515 5.28758866,6.83738493 5.12804348,8.18158537 C5.19092463,7.4959007 5.36414122,6.8246846 5.64108696,6.19353659 C5.92644748,5.55996052 6.36749289,5.00780412 6.92369565,4.58780488 C8.14206581,3.84768801 9.54908784,3.47164199 10.9767391,3.50457317 C11.069537,3.49745913 11.1611046,3.52920162 11.2293084,3.5921279 C11.2975122,3.65505418 11.3361454,3.74343774 11.3358696,3.83591463 C11.3432757,4.02832721 11.1957014,4.19187467 11.0023913,4.2054878 L11.0152174,4.2054878 Z M18.6595652,2.6379878 C20.7067153,2.30530364 22.805041,2.48488368 24.7647826,3.1604878 C26.6959222,3.86738751 28.3374389,5.18921321 29.4334783,6.91993902 C28.2650553,5.28488687 26.5817286,4.08316864 24.6493478,3.50457317 C22.7407475,2.95963663 20.7245177,2.90264967 18.7878261,3.33890244 C18.654344,3.39181052 18.50197,3.36055896 18.4004833,3.25945929 C18.2989966,3.15835963 18.2679408,3.00688104 18.321538,2.87439265 C18.3751351,2.74190425 18.5030636,2.65391989 18.6467391,2.65073171 L18.6595652,2.6379878 Z" id="Shape"></path>
                    <path d="M18.7236957,3.50457317 C20.1511724,3.47307968 21.557794,3.84901868 22.7767391,4.58780488 C23.3373486,5.0033127 23.7793903,5.55671639 24.0593478,6.19353659 C24.3362936,6.8246846 24.5095102,7.4959007 24.5723913,8.18158537 C24.4128461,6.83738493 23.667233,5.63061515 22.5330435,4.88091463 C21.3427188,4.29212313 20.0065323,4.0575761 18.6852174,4.2054878 C18.5865484,4.20216558 18.4932564,4.16000461 18.4258941,4.08829317 C18.3585318,4.01658174 18.322626,3.92120348 18.326087,3.82317073 C18.3226013,3.7297262 18.3575422,3.63889655 18.4228685,3.57158486 C18.4881948,3.50427316 18.5782796,3.46627731 18.6723913,3.46634146 L18.7236957,3.50457317 Z" id="Shape"></path>
                </g>
            </g>
        </g>
    </g>
</svg>