<?xml version="1.0" encoding="UTF-8"?>
<svg width="19px" height="22px" viewBox="0 0 19 22" version="1.1" xmlns="http://www.w3.org/2000/svg" xmlns:xlink="http://www.w3.org/1999/xlink">
    <!-- Generator: Sketch 48.2 (47327) - http://www.bohemiancoding.com/sketch -->
    <title>C</title>
    <desc>Created with Sketch.</desc>
    <defs></defs>
    <g id="supported" stroke="none" stroke-width="1" fill="none" fill-rule="evenodd" transform="translate(-540.000000, -3089.000000)">
        <g id="Group-14-Copy-11" transform="translate(519.000000, 3064.000000)" fill="#26A69A">
            <g id="Group-9-Copy-11">
                <path d="M35.26,32.728 C35.185333,32.2239975 35.0173346,31.7620021 34.756,31.342 C34.4946654,30.9219979 34.168002,30.5533349 33.776,30.236 C33.383998,29.9186651 32.9406691,29.6713342 32.446,29.494 C31.9513309,29.3166658 31.433336,29.228 30.892,29.228 C29.9026617,29.228 29.0626701,29.4193314 28.372,29.802 C27.6813299,30.1846686 27.1213355,30.6979968 26.692,31.342 C26.2626645,31.9860032 25.950001,32.7186626 25.754,33.54 C25.557999,34.3613374 25.46,35.2106623 25.46,36.088 C25.46,36.9280042 25.557999,37.7446627 25.754,38.538 C25.950001,39.3313373 26.2626645,40.0453302 26.692,40.68 C27.1213355,41.3146698 27.6813299,41.8233314 28.372,42.206 C29.0626701,42.5886686 29.9026617,42.78 30.892,42.78 C32.2360067,42.78 33.2859962,42.3693374 34.042,41.548 C34.7980038,40.7266626 35.2599992,39.6440067 35.428,38.3 L39.684,38.3 C39.5719994,39.5506729 39.282669,40.679995 38.816,41.688 C38.349331,42.696005 37.7333372,43.5546631 36.968,44.264 C36.2026628,44.9733369 35.3066718,45.5146648 34.28,45.888 C33.2533282,46.2613352 32.1240062,46.448 30.892,46.448 C29.3613257,46.448 27.9846728,46.1820027 26.762,45.65 C25.5393272,45.1179973 24.5080042,44.385338 23.668,43.452 C22.8279958,42.518662 22.1840022,41.4220063 21.736,40.162 C21.2879978,38.9019937 21.064,37.5440073 21.064,36.088 C21.064,34.5946592 21.2879978,33.2086731 21.736,31.93 C22.1840022,30.6513269 22.8279958,29.5360048 23.668,28.584 C24.5080042,27.6319952 25.5393272,26.885336 26.762,26.344 C27.9846728,25.802664 29.3613257,25.532 30.892,25.532 C31.9933388,25.532 33.0339951,25.6906651 34.014,26.008 C34.9940049,26.3253349 35.8713295,26.7873303 36.646,27.394 C37.4206705,28.0006697 38.0599975,28.7519955 38.564,29.648 C39.0680025,30.5440045 39.3853327,31.5706609 39.516,32.728 L35.26,32.728 Z" id="C"></path>
            </g>
        </g>
    </g>
</svg>