<?xml version="1.0" encoding="UTF-8"?>
<svg width="18px" height="25px" viewBox="0 0 18 25" version="1.1" xmlns="http://www.w3.org/2000/svg" xmlns:xlink="http://www.w3.org/1999/xlink">
    <!-- Generator: Sketch 48.2 (47327) - http://www.bohemiancoding.com/sketch -->
    <title>C</title>
    <desc>Created with Sketch.</desc>
    <defs></defs>
    <g id="supported" stroke="none" stroke-width="1" fill="none" fill-rule="evenodd" transform="translate(-235.000000, -2708.000000)">
        <path d="M235.1,2720.625 C235.1,2718.75832 235.368331,2717.08417 235.905,2715.6025 C236.441669,2714.12083 237.182495,2712.86667 238.1275,2711.84 C239.072505,2710.81333 240.192494,2710.03167 241.4875,2709.495 C242.782506,2708.95833 244.188326,2708.69 245.705,2708.69 C247.105007,2708.69 248.353328,2708.98166 249.45,2709.565 C250.546672,2710.14834 251.46833,2710.81333 252.215,2711.56 L249.94,2714.08 C249.379997,2713.52 248.755837,2713.07084 248.0675,2712.7325 C247.379163,2712.39416 246.591671,2712.225 245.705,2712.225 C244.748329,2712.225 243.873337,2712.4175 243.08,2712.8025 C242.286663,2713.1875 241.610003,2713.73583 241.05,2714.4475 C240.489997,2715.15917 240.052502,2716.02833 239.7375,2717.055 C239.422498,2718.08167 239.265,2719.23666 239.265,2720.52 C239.265,2721.82667 239.422498,2722.99916 239.7375,2724.0375 C240.052502,2725.07584 240.49583,2725.95083 241.0675,2726.6625 C241.63917,2727.37417 242.327496,2727.9225 243.1325,2728.3075 C243.937504,2728.6925 244.829995,2728.885 245.81,2728.885 C246.743338,2728.885 247.577496,2728.68667 248.3125,2728.29 C249.047504,2727.89333 249.741663,2727.33334 250.395,2726.61 L252.635,2729.095 C251.701662,2730.16834 250.651673,2730.99083 249.485,2731.5625 C248.318328,2732.13417 247.011674,2732.42 245.565,2732.42 C244.094993,2732.42 242.724173,2732.16334 241.4525,2731.65 C240.180827,2731.13666 239.072505,2730.37834 238.1275,2729.375 C237.182495,2728.37166 236.441669,2727.13501 235.905,2725.665 C235.368331,2724.19499 235.1,2722.51501 235.1,2720.625 Z" id="C" fill="#2C2C2C"></path>
    </g>
</svg>