<?xml version="1.0" encoding="UTF-8"?>
<svg width="44px" height="44px" viewBox="0 0 44 44" version="1.1" xmlns="http://www.w3.org/2000/svg" xmlns:xlink="http://www.w3.org/1999/xlink">
    <!-- Generator: Sketch 48.2 (47327) - http://www.bohemiancoding.com/sketch -->
    <title>cryptobots</title>
    <desc>Created with Sketch.</desc>
    <defs></defs>
    <g id="DiscoveryMain-Copy-2" stroke="none" stroke-width="1" fill="none" fill-rule="evenodd" transform="translate(-540.000000, -1947.000000)">
        <g id="Group-9-Copy-8" transform="translate(520.000000, 1927.000000)">
            <g id="cryptobots" transform="translate(20.000000, 20.000000)">
                <path d="M1.80917647,20.1312941 L20.1312941,1.80917647 C21.3960784,0.544392157 23.4468235,0.544392157 24.7116078,1.80917647 L43.0328627,20.1312941 C44.2976471,21.3960784 44.2976471,23.4468235 43.0328627,24.7116078 L24.7116078,43.0328627 C23.4468235,44.2976471 21.3960784,44.2976471 20.1312941,43.0328627 L1.80917647,24.7116078 C0.544392157,23.4468235 0.544392157,21.3960784 1.80917647,20.1312941 Z" id="Shape" fill="#FF25CE"></path>
                <polygon id="Shape" fill="#FF25CE" points="2.58823529 39.6862745 5.17647059 42.2745098 9.49019608 37.9607843 6.90196078 35.372549"></polygon>
                <polygon id="Shape" fill="#FF25CE" points="42.2745098 39.6862745 39.6862745 42.2745098 35.372549 37.9607843 37.9607843 35.372549"></polygon>
                <polygon id="Shape" fill="#FF25CE" points="42.2745098 5.17647059 39.6862745 2.58823529 35.372549 6.90196078 37.9607843 9.49019608"></polygon>
                <polygon id="Shape" fill="#FF25CE" points="2.58823529 5.17647059 5.17647059 2.58823529 9.49019608 6.90196078 6.90196078 9.49019608"></polygon>
                <path d="M16.1229804,15.0980392 C17.870902,16.4456471 20.0545098,17.254902 22.4313725,17.254902 C24.8082353,17.254902 26.9918431,16.4456471 28.7397647,15.0980392 C31.1951373,16.990902 32.7843137,19.9535686 32.7843137,23.2941176 C32.7843137,29.0115294 28.1487843,33.6470588 22.4313725,33.6470588 C16.7139608,33.6470588 12.0784314,29.0115294 12.0784314,23.2941176 C12.0784314,19.9535686 13.6676078,16.990902 16.1229804,15.0980392 Z" id="Shape" fill="#000000" opacity="0.302"></path>
                <path d="M16.1229804,14.2352941 C17.870902,15.5820392 20.0545098,16.3921569 22.4313725,16.3921569 C24.8082353,16.3921569 26.9918431,15.5820392 28.7397647,14.2352941 C31.1951373,16.1281569 32.7843137,19.0908235 32.7843137,22.4313725 C32.7843137,28.1487843 28.1487843,32.7843137 22.4313725,32.7843137 C16.7139608,32.7843137 12.0784314,28.1487843 12.0784314,22.4313725 C12.0784314,19.0908235 13.6676078,16.1281569 16.1229804,14.2352941 Z" id="Shape" fill="#FFFFFF"></path>
                <path d="M22.4313725,20.2745098 C22.4313725,21.4659608 23.3967843,22.4313725 24.5882353,22.4313725 C25.4544314,22.4313725 26.1963922,21.9180392 26.538902,21.1812549 C26.660549,21.5789804 26.745098,21.993098 26.745098,22.4313725 C26.745098,24.8134118 24.8134118,26.745098 22.4313725,26.745098 C20.0493333,26.745098 18.1176471,24.8134118 18.1176471,22.4313725 C18.1176471,20.0493333 20.0493333,18.1176471 22.4313725,18.1176471 C22.8696471,18.1176471 23.2837647,18.2021961 23.6814902,18.3238431 C22.9447059,18.6663529 22.4313725,19.4083137 22.4313725,20.2745098 Z" id="Shape" fill="#404040"></path>
            </g>
        </g>
    </g>
</svg>