<?xml version="1.0" encoding="UTF-8"?>
<svg width="43px" height="72px" viewBox="0 0 43 72" version="1.1" xmlns="http://www.w3.org/2000/svg" xmlns:xlink="http://www.w3.org/1999/xlink">
    <!-- Generator: Sketch 48.2 (47327) - http://www.bohemiancoding.com/sketch -->
    <title>img-logo-footer.cdbd9895</title>
    <desc>Created with Sketch.</desc>
    <defs>
        <radialGradient cx="44.985%" cy="75.0960168%" fx="44.985%" fy="75.0960168%" r="65.711%" gradientTransform="translate(0.449850,0.750960),scale(1.000000,0.801133),translate(-0.449850,-0.750960)" id="radialGradient-1">
            <stop stop-color="#1467C1" offset="34%"></stop>
            <stop stop-color="#1467C1" stop-opacity="0" offset="100%"></stop>
        </radialGradient>
        <linearGradient x1="84.522%" y1="15.9899138%" x2="33.561%" y2="83.6414107%" id="linearGradient-2">
            <stop stop-color="#1467C1" offset="0%"></stop>
            <stop stop-color="#1467C1" stop-opacity="0" offset="70%"></stop>
        </linearGradient>
        <radialGradient cx="56.007%" cy="54.8167544%" fx="56.007%" fy="54.8167544%" r="75.354%" gradientTransform="translate(0.560070,0.548168),scale(1.000000,0.631364),translate(-0.560070,-0.548168)" id="radialGradient-3">
            <stop stop-color="#1467C1" stop-opacity="0" offset="36%"></stop>
            <stop stop-color="#1467C1" offset="100%"></stop>
        </radialGradient>
        <linearGradient x1="33869%" y1="8741.78367%" x2="42295%" y2="8248.12025%" id="linearGradient-4">
            <stop stop-color="#1467C1" offset="0%"></stop>
            <stop stop-color="#1467C1" stop-opacity="0" offset="70%"></stop>
        </linearGradient>
        <linearGradient x1="93597%" y1="4333.34535%" x2="94214%" y2="2729.44604%" id="linearGradient-5">
            <stop stop-color="#1467C1" offset="0%"></stop>
            <stop stop-color="#1467C1" stop-opacity="0" offset="70%"></stop>
        </linearGradient>
        <linearGradient x1="35779%" y1="7879.71325%" x2="7404%" y2="6347.21888%" id="linearGradient-6">
            <stop stop-color="#1467C1" offset="0%"></stop>
            <stop stop-color="#1467C1" stop-opacity="0" offset="70%"></stop>
        </linearGradient>
        <radialGradient cx="51.9003123%" cy="5.916%" fx="51.9003123%" fy="5.916%" r="39.808%" gradientTransform="translate(0.519003,0.059160),scale(0.352535,1.000000),translate(-0.519003,-0.059160)" id="radialGradient-7">
            <stop stop-color="#74459A" stop-opacity="0" offset="70%"></stop>
            <stop stop-color="#1467C1" offset="100%"></stop>
        </radialGradient>
    </defs>
    <g id="Page-1" stroke="none" stroke-width="1" fill="none" fill-rule="evenodd">
        <g id="img-logo-footer.cdbd9895" transform="translate(-1.000000, 0.000000)">
            <ellipse id="Oval" fill-opacity="0.05" fill="#000000" fill-rule="nonzero" cx="21.962" cy="54.463" rx="17.578" ry="17.535"></ellipse>
            <path d="M43.671,35.65 C40.961,50.6 29.185,60.81 17.37,58.458 C5.555,56.104 -1.83,42.077 0.88,27.127 C3.59,12.177 15.366,1.967 27.181,4.321 C38.996,6.675 46.381,20.701 43.671,35.651 L43.671,35.65 Z" id="Shape" fill="url(#radialGradient-1)" fill-rule="nonzero" opacity="0.15"></path>
            <path d="M21.69,58.097 C17.89,58.087 14.499,56.117 12.922,52.229 C14.152,53.082 16.038,52.207 15.821,51.208 C13.638,51.192 11.724,48.694 11.038,46.628 C10.352,44.561 10.325,42.322 9.658,40.249 C8.46,36.532 5.95,32.093 1.227,32.939 C2.886,31.457 4.353,31.273 6.064,31.541 C5.108,28.552 6.963,23.917 9.657,22.121 C7.165,25.798 10.631,26.913 10.724,30.026 C13.913,23.431 17.452,21.798 18.726,18.411 C20.103,14.745 19.304,10.36 16.726,7.415 C17.686,5.266 20.539,1.06 22.647,0 C19.445,3.05 20.577,7.302 23.181,7.992 C21.901,9.163 21.526,11.41 22.524,12.828 C23.521,14.246 25.681,14.708 27.145,13.776 C28.609,12.846 29.088,10.644 28.095,9.222 C30.775,10.664 33.175,12.965 33.539,15.98 C24.699,22.281 33.589,28.998 36.474,22.82 C37.734,25.385 38.29,28.277 37.623,31.055 C37.0044789,33.5836461 35.6133195,35.8566886 33.643,37.558 C33.012,38.102 31.735,39.702 31.894,40.261 C32.339,41.827 35.518,39.734 34.836,38.191 C36.033,39.479 33.612,42.214 31.636,43.925 C30.44,44.963 29.906,46.585 28.892,47.801 C26.072,51.188 27.729,54.307 30.798,51.957 C29.793,55.002 26.037,58.109 21.691,58.097 L21.69,58.097 Z" id="Shape" fill="#1467C1" fill-rule="nonzero" opacity="0.25"></path>
            <path d="M14.134,31.043 C14.281,29.189 15.325,27.531 16.497,26.088 C17.669,24.644 19.009,23.316 19.931,21.702 C21.145987,19.5551857 21.5504881,17.0437307 21.071,14.624 C21.836,16.032 23.491,17.205 25.091,17.343 C26.69,17.48 28.34,16.768 29.335,15.511 C29.618,15.817 29.838,16.296 30.121,16.602 C29.079,17.952 27.897,19.737 27.415,21.372 C26.935,23.008 27.048,24.901 28.091,26.252 C28.847248,27.2328335 29.999521,27.8277976 31.2370905,27.8764509 C32.4746601,27.9251042 33.6700849,27.4224365 34.501,26.504 C34.891,28.391 34.899,30.394 34.073,32.136 C33.2354411,33.8913737 31.8545374,35.3301365 30.135,36.239" id="Shape" fill="url(#linearGradient-2)" fill-rule="nonzero" opacity="0.8"></path>
            <path d="M21.69,58.097 C17.89,58.087 14.499,56.117 12.922,52.229 C14.152,53.082 16.038,52.207 15.821,51.208 C13.638,51.192 11.724,48.694 11.038,46.628 C10.352,44.561 10.325,42.322 9.658,40.249 C8.46,36.532 5.95,32.093 1.227,32.939 C2.886,31.457 4.353,31.273 6.064,31.541 C5.108,28.552 6.963,23.917 9.657,22.121 C7.165,25.798 10.631,26.913 10.724,30.026 C13.913,23.431 17.452,21.798 18.726,18.411 C20.103,14.745 19.304,10.36 16.726,7.415 C17.686,5.266 20.539,1.06 22.647,0 C19.445,3.05 20.577,7.302 23.181,7.992 C21.901,9.163 21.526,11.41 22.524,12.828 C23.521,14.246 25.681,14.708 27.145,13.776 C28.609,12.846 29.088,10.644 28.095,9.222 C30.775,10.664 33.175,12.965 33.539,15.98 C24.699,22.281 33.589,28.998 36.474,22.82 C37.734,25.385 38.29,28.277 37.623,31.055 C37.0044789,33.5836461 35.6133195,35.8566886 33.643,37.558 C33.012,38.102 31.735,39.702 31.894,40.261 C32.339,41.827 35.518,39.734 34.836,38.191 C36.033,39.479 33.612,42.214 31.636,43.925 C30.44,44.963 29.906,46.585 28.892,47.801 C26.072,51.188 27.729,54.307 30.798,51.957 C29.793,55.002 26.037,58.109 21.691,58.097 L21.69,58.097 Z" id="Shape" fill="url(#radialGradient-3)" fill-rule="nonzero" opacity="0.8"></path>
            <path d="M19.69,51.436 C17.062,51.186 14.66,49.306 13.791,46.819 C13.194,45.111 13.284,43.229 12.751,41.5 C12.269,39.941 11.304,38.586 10.351,37.261 C9.398,35.937 8.429,34.586 7.931,33.033 C7.434,31.48 7.505,29.507 8.483,28.202 C8.47379038,30.2325997 10.0938599,31.8958295 12.124,31.94 C13.861,39.012 16.064,45.114 19.69,51.436 Z" id="Shape" fill="url(#linearGradient-4)" fill-rule="nonzero" opacity="0.8"></path>
            <path d="M41.566,31.018 C40.183,31.768 39.391,33.295 39.016,34.821 C38.64,36.346 38.6,37.935 38.279,39.472 C37.958,41.01 37.289,42.572 35.993,43.464 C37.499,42.978 38.736,41.36 39.135,39.832 C39.534,38.304 39.5,36.699 39.735,35.138 C39.968,33.576 40.289,31.951 41.565,31.018 L41.566,31.018 Z" id="Shape" fill="url(#linearGradient-5)" fill-rule="nonzero"></path>
            <path d="M9.823,48.549 C8.443,47.894 7.584,46.462 7.139,45.003 C6.693,43.543 6.579,42.006 6.229,40.521 C5.878,39.036 5.234,37.538 4.005,36.629 C4.702,37.429 4.984,38.532 5.108,39.584 C5.231,40.636 5.216,41.704 5.413,42.744 C5.886,45.248 7.487,47.523 9.823,48.549 Z" id="Shape" fill="url(#linearGradient-6)" fill-rule="nonzero"></path>
            <path d="M27.36,53.783 C22.491,51.635 18.767,52.631 15.818,53.665 C19.673,58 25.475,57.035 27.359,53.783 L27.36,53.783 Z" id="Shape" fill="url(#radialGradient-7)" fill-rule="nonzero" opacity="0.8"></path>
            <path d="M12.417,46.923 L10.997,50.603 L13.199,53.673 L14.637,50.113 L12.417,46.923 Z M36.305,33.891 L34.641,36.181 L35.598,38.712 L37.253,36.51 L36.305,33.891 Z" id="Shape" stroke="#1467C1" stroke-width="2.079"></path>
            <polygon id="Shape" stroke="#1467C1" stroke-width="2.772" points="17.794 26.25 11.267 34.023 21.752 54.62 32.319 33.85 25.387 26.286"></polygon>
            <path d="M17.938,26.352 L11.412,34.125 L21.896,54.722 L32.464,33.952 L25.531,26.388 L17.938,26.352 Z M12.417,46.923 L10.997,50.603 L13.199,53.673 L14.637,50.113 L12.417,46.923 Z M36.305,33.891 L34.641,36.181 L35.598,38.712 L37.253,36.51 L36.305,33.891 Z" id="Shape" fill="#1467C1" fill-rule="nonzero"></path>
            <polygon id="Shape" stroke="#060708" stroke-width="1.926" points="17.938 26.352 11.412 34.125 21.896 54.722 32.464 33.952 25.531 26.388"></polygon>
            <path d="M32.464,33.951 L27.517,31.487 L18.083,31.564 L11.412,34.125 L32.464,33.951 Z M21.896,54.722 L27.516,31.487 L21.896,54.722 Z M18.083,31.564 L21.896,54.722 L18.083,31.564 Z M27.517,31.487 L25.531,26.387 L27.517,31.487 Z M12.417,46.923 L10.997,50.603 L13.199,53.673 L14.637,50.113 L12.417,46.923 Z" id="Shape" stroke="#060708" stroke-width="0.866"></path>
            <path d="M10.997,50.604 L12.212,49.864 L14.637,50.113 M13.199,53.672 L12.212,49.864" id="Shape" stroke="#060708" stroke-width="0.693"></path>
            <polygon id="Shape" stroke="#060708" stroke-width="0.866" points="36.305 33.891 34.641 36.181 35.598 38.712 37.253 36.51"></polygon>
            <path d="M34.64,36.18 L36.351,35.791 L37.253,36.511 M35.598,38.712 L36.351,35.792" id="Shape" stroke="#060708" stroke-width="0.693"></path>
            <polygon id="Shape" stroke="#1467C1" stroke-width="2.079" points="31.487 44.313 28.81 47.056 29.6 50.633 32.246 48.005"></polygon>
            <polygon id="Shape" fill="#1467C1" fill-rule="nonzero" points="31.487 44.313 28.81 47.056 29.6 50.633 32.246 48.005"></polygon>
            <polygon id="Shape" stroke="#060708" stroke-width="0.866" points="31.487 44.313 28.81 47.056 29.6 50.633 32.246 48.005"></polygon>
            <path d="M28.81,47.056 L31.178,46.867 L32.246,48.005 M29.6,50.633 L31.178,46.867" id="Shape" stroke="#060708" stroke-width="0.693"></path>
            <polygon id="Shape" fill="#060708" fill-rule="nonzero" opacity="0.6" points="27.517 31.487 21.896 54.722 32.464 33.952"></polygon>
            <polygon id="Shape" fill="#060708" fill-rule="nonzero" opacity="0.6" points="25.531 26.388 27.517 31.487 32.464 33.951"></polygon>
            <path d="M27.517,31.487 L18.083,31.564 L21.896,54.722 L27.517,31.487 Z M17.938,26.352 L18.083,31.564 L27.517,31.487 L25.531,26.387 L17.938,26.352 Z M13.199,53.672 L12.212,49.864 L14.637,50.113 L13.199,53.672 Z M29.6,50.633 L31.178,46.867 L32.246,48.005 L29.6,50.633 Z M12.417,46.923 L12.212,49.863 L14.637,50.113 L12.417,46.923 Z" id="Shape" fill="#060708" fill-rule="nonzero" opacity="0.4"></path>
            <path d="M31.487,44.313 L31.177,46.867 L32.246,48.005 L31.487,44.313 Z M35.598,38.712 L36.351,35.792 L37.253,36.51 L35.598,38.712 Z" id="Shape" fill="#060708" fill-rule="nonzero" opacity="0.4"></path>
            <polygon id="Shape" fill="#060708" fill-rule="nonzero" opacity="0.4" points="36.305 33.891 36.351 35.791 37.253 36.511"></polygon>
        </g>
    </g>
</svg>