<?xml version="1.0" encoding="UTF-8"?>
<svg width="27px" height="10px" viewBox="0 0 27 10" version="1.1" xmlns="http://www.w3.org/2000/svg" xmlns:xlink="http://www.w3.org/1999/xlink">
    <!-- Generator: Sketch 48.2 (47327) - http://www.bohemiancoding.com/sketch -->
    <title>DAC</title>
    <desc>Created with Sketch.</desc>
    <defs></defs>
    <g id="DiscoveryMain-Copy-2" stroke="none" stroke-width="1" fill="none" fill-rule="evenodd" transform="translate(-872.000000, -1577.000000)">
        <g id="Group-9-Copy-6" transform="translate(848.000000, 1546.000000)" fill="#F05E40">
            <path d="M32.808,35.728 C32.808,36.4720037 32.6700014,37.1139973 32.394,37.654 C32.1179986,38.1940027 31.7540023,38.6379983 31.302,38.986 C30.8499977,39.3340017 30.3400028,39.5899992 29.772,39.754 C29.2039972,39.9180008 28.6280029,40 28.044,40 L24.876,40 L24.876,31.504 L27.948,31.504 C28.548003,31.504 29.1399971,31.5739993 29.724,31.714 C30.3080029,31.8540007 30.8279977,32.0859984 31.284,32.41 C31.7400023,32.7340016 32.1079986,33.1679973 32.388,33.712 C32.6680014,34.2560027 32.808,34.927996 32.808,35.728 Z M30.672,35.728 C30.672,35.2479976 30.5940008,34.8500016 30.438,34.534 C30.2819992,34.2179984 30.0740013,33.9660009 29.814,33.778 C29.5539987,33.5899991 29.2580017,33.4560004 28.926,33.376 C28.5939983,33.2959996 28.2520018,33.256 27.9,33.256 L26.88,33.256 L26.88,38.224 L27.852,38.224 C28.2200018,38.224 28.5739983,38.1820004 28.914,38.098 C29.2540017,38.0139996 29.5539987,37.876001 29.814,37.684 C30.0740013,37.491999 30.2819992,37.2360016 30.438,36.916 C30.5940008,36.5959984 30.672,36.2000024 30.672,35.728 Z M39.924,40 L39.264,38.332 L35.976,38.332 L35.352,40 L33.12,40 L36.684,31.504 L38.676,31.504 L42.204,40 L39.924,40 Z M37.644,33.772 L36.564,36.688 L38.7,36.688 L37.644,33.772 Z M50.388,38.824 C50.0119981,39.2560022 49.5480028,39.5979987 48.996,39.85 C48.4439972,40.1020013 47.8080036,40.228 47.088,40.228 C46.4319967,40.228 45.8260028,40.1200011 45.27,39.904 C44.7139972,39.6879989 44.232002,39.382002 43.824,38.986 C43.415998,38.589998 43.0960012,38.1160028 42.864,37.564 C42.6319988,37.0119972 42.516,36.4040033 42.516,35.74 C42.516,35.0599966 42.6339988,34.4440028 42.87,33.892 C43.1060012,33.3399972 43.4319979,32.8700019 43.848,32.482 C44.2640021,32.0939981 44.7519972,31.796001 45.312,31.588 C45.8720028,31.379999 46.4759968,31.276 47.124,31.276 C47.724003,31.276 48.3139971,31.3819989 48.894,31.594 C49.4740029,31.8060011 49.9439982,32.115998 50.304,32.524 L48.912,33.916 C48.719999,33.6519987 48.4680016,33.4560006 48.156,33.328 C47.8439984,33.1999994 47.5240016,33.136 47.196,33.136 C46.8359982,33.136 46.5060015,33.2019993 46.206,33.334 C45.9059985,33.4660007 45.6480011,33.6479988 45.432,33.88 C45.2159989,34.1120012 45.0480006,34.3859984 44.928,34.702 C44.8079994,35.0180016 44.748,35.3639981 44.748,35.74 C44.748,36.1240019 44.8079994,36.4759984 44.928,36.796 C45.0480006,37.1160016 45.2139989,37.3899989 45.426,37.618 C45.6380011,37.8460011 45.8919985,38.0239994 46.188,38.152 C46.4840015,38.2800006 46.8079982,38.344 47.16,38.344 C47.568002,38.344 47.9239985,38.2640008 48.228,38.104 C48.5320015,37.9439992 48.7759991,37.7360013 48.96,37.48 L50.388,38.824 Z" id="DAC"></path>
        </g>
    </g>
</svg>