<?xml version="1.0" encoding="UTF-8"?>
<svg width="20px" height="44px" viewBox="0 0 20 44" version="1.1" xmlns="http://www.w3.org/2000/svg" xmlns:xlink="http://www.w3.org/1999/xlink">
    <!-- Generator: Sketch 48.2 (47327) - http://www.bohemiancoding.com/sketch -->
    <title>Shape</title>
    <desc>Created with Sketch.</desc>
    <defs></defs>
    <g id="DiscoveryMain-Copy-2" stroke="none" stroke-width="1" fill="none" fill-rule="evenodd" transform="translate(-222.000000, -805.000000)">
        <path d="M236.537815,822.812673 C238.151642,821.170983 239.02716,819.010864 239.02716,816.684582 C239.027046,814.65377 238.326443,812.687381 237.047444,811.128091 L242,806.090029 L240.895802,805 L235.943247,810.038062 C234.414358,808.741991 232.51958,808.024166 230.51373,808.024166 C227.070558,808.026562 223.967312,810.137118 222.64921,813.372924 C221.331107,816.608729 222.057321,820.333542 224.489645,822.812673 C225.900928,824.248321 227.743435,825.145601 229.723151,825.318411 L229.723151,831.705716 C227.739078,831.873109 225.880903,832.76278 224.489645,834.211454 C221.170534,837.59923 221.170534,843.079861 224.489645,846.467637 C226.103473,848.109327 228.22693,848.999961 230.51373,848.999961 C232.773386,849.006885 234.942126,848.095219 236.537815,846.467637 C238.151642,844.825946 239.02716,842.665828 239.02716,840.339546 C239.02716,838.013264 238.151642,835.853145 236.537815,834.211454 C235.126532,832.775806 233.284025,831.878526 231.30431,831.705716 L231.30431,825.318411 C233.288745,825.152399 235.147372,824.262511 236.537815,822.812673 M235.433617,835.32807 C236.733826,836.677313 237.472136,838.438641 237.472136,840.332899 C237.475107,842.210801 236.741345,844.012281 235.433617,845.337728 C234.133408,846.686972 232.375839,847.411443 230.51373,847.411443 C228.6677,847.414465 226.896795,846.668035 225.593843,845.337728 C224.293634,843.988485 223.555324,842.227157 223.555324,840.332899 C223.552353,838.454997 224.286115,836.653517 225.593843,835.32807 C226.894052,833.978826 228.651621,833.254356 230.51373,833.254356 C232.382372,833.261002 234.133408,833.978826 235.433617,835.32807 M230.51373,823.789711 C228.6677,823.792734 226.896795,823.046304 225.593843,821.715997 C224.293634,820.366754 223.555324,818.605426 223.555324,816.711168 C223.553583,814.833514 224.287156,813.032495 225.593843,811.706338 C226.894052,810.357095 228.651621,809.632624 230.51373,809.632624 C232.35976,809.629602 234.130666,810.376032 235.433617,811.706338 C236.759961,813.028996 237.472136,814.81691 237.472136,816.711168 C237.475107,818.58907 236.741345,820.39055 235.433617,821.715997 C234.133408,823.071887 232.382372,823.789711 230.51373,823.789711" id="Shape" fill="#FFFFFF" fill-rule="nonzero"></path>
    </g>
</svg>