<?xml version="1.0" encoding="UTF-8"?>
<svg width="42px" height="44px" viewBox="0 0 42 44" version="1.1" xmlns="http://www.w3.org/2000/svg" xmlns:xlink="http://www.w3.org/1999/xlink">
    <!-- Generator: Sketch 48.2 (47327) - http://www.bohemiancoding.com/sketch -->
    <title>K O</title>
    <desc>Created with Sketch.</desc>
    <defs></defs>
    <g id="DiscoveryMain-Copy-2" stroke="none" stroke-width="1" fill="none" fill-rule="evenodd" transform="translate(-868.000000, -2328.000000)">
        <g id="Group-9-Copy-12" transform="translate(848.000000, 2308.000000)" fill="#FFFFFF">
            <path d="M20.184,20.176 L23.712,20.176 L23.712,28.744 L23.796,28.744 L32.084,20.176 L36.844,20.176 L27.576,29.332 L37.46,40 L32.504,40 L23.796,30.06 L23.712,30.06 L23.712,40 L20.184,40 L20.184,20.176 Z M40.232,53.032 C40.232,51.4453254 40.4979973,50.0126731 41.03,48.734 C41.5620027,47.4553269 42.2993286,46.3680045 43.242,45.472 C44.1846714,44.5759955 45.3046602,43.8853358 46.602,43.4 C47.8993398,42.9146642 49.3133257,42.672 50.844,42.672 C52.3933411,42.672 53.8213268,42.9146642 55.128,43.4 C56.4346732,43.8853358 57.5639952,44.5759955 58.516,45.472 C59.4680048,46.3680045 60.2099973,47.4553269 60.742,48.734 C61.2740027,50.0126731 61.54,51.4453254 61.54,53.032 C61.54,54.5813411 61.2740027,55.9953269 60.742,57.274 C60.2099973,58.5526731 59.4680048,59.6539954 58.516,60.578 C57.5639952,61.5020046 56.4346732,62.2206641 55.128,62.734 C53.8213268,63.2473359 52.3933411,63.504 50.844,63.504 C49.3133257,63.504 47.8993398,63.2473359 46.602,62.734 C45.3046602,62.2206641 44.1846714,61.5020046 43.242,60.578 C42.2993286,59.6539954 41.5620027,58.5526731 41.03,57.274 C40.4979973,55.9953269 40.232,54.5813411 40.232,53.032 Z M44.068,53.032 C44.068,54.0960053 44.2313317,55.0713289 44.558,55.958 C44.8846683,56.8446711 45.3513303,57.6146634 45.958,58.268 C46.5646697,58.9213366 47.2833292,59.4299982 48.114,59.794 C48.9446708,60.1580018 49.863995,60.34 50.872,60.34 C51.880005,60.34 52.8039958,60.1580018 53.644,59.794 C54.4840042,59.4299982 55.2073303,58.9213366 55.814,58.268 C56.4206697,57.6146634 56.8873317,56.8446711 57.214,55.958 C57.5406683,55.0713289 57.704,54.0960053 57.704,53.032 C57.704,52.0053282 57.5406683,51.0533377 57.214,50.176 C56.8873317,49.2986623 56.4253363,48.5333366 55.828,47.88 C55.2306637,47.2266634 54.5120042,46.7133352 53.672,46.34 C52.8319958,45.9666648 51.8986718,45.78 50.872,45.78 C49.8453282,45.78 48.9166708,45.9666648 48.086,46.34 C47.2553292,46.7133352 46.5413363,47.2266634 45.944,47.88 C45.3466637,48.5333366 44.8846683,49.2986623 44.558,50.176 C44.2313317,51.0533377 44.068,52.0053282 44.068,53.032 Z" id="K-O"></path>
        </g>
    </g>
</svg>