<?xml version="1.0" encoding="UTF-8"?>
<svg width="43px" height="30px" viewBox="0 0 43 30" version="1.1" xmlns="http://www.w3.org/2000/svg" xmlns:xlink="http://www.w3.org/1999/xlink">
    <!-- Generator: Sketch 48.2 (47327) - http://www.bohemiancoding.com/sketch -->
    <title>maker-1 (1)</title>
    <desc>Created with Sketch.</desc>
    <defs></defs>
    <g id="DiscoveryMain-Copy-2" stroke="none" stroke-width="1" fill="none" fill-rule="evenodd" transform="translate(-868.000000, -805.000000)">
        <g id="Bitmap-Copy-4" transform="translate(848.000000, 784.000000)" fill-rule="nonzero">
            <g id="maker-1-(1)" transform="translate(20.000000, 21.000000)">
                <g id="Group" transform="translate(0.000000, 0.046302)" fill="#1BBC9A">
                    <path d="M0.541591805,0.137304965 C0.877226162,-0.0305122143 1.27388495,0.00762805359 1.57137904,0.228841608 L18.7650118,13.1431363 C19.0091095,13.3262096 19.1616706,13.6237037 19.1616706,13.9288258 L19.1616706,28.6967376 C19.1616706,29.2383294 18.7192435,29.6807565 18.1776517,29.6807565 C17.6360599,29.6807565 17.1936328,29.2383294 17.1936328,28.6967376 L17.1936328,14.4246493 L1.96803783,2.98256895 L1.96803783,28.6967376 C1.96803783,29.2383294 1.52561072,29.6807565 0.984018913,29.6807565 C0.442427108,29.6883846 5.68434189e-14,29.2459574 5.68434189e-14,28.7043656 L5.68434189e-14,1.01453113 C5.68434189e-14,0.640756501 0.2135855,0.29749409 0.541591805,0.137304965 Z" id="path0_fill"></path>
                </g>
                <g id="Group" transform="translate(23.744605, 0.046302)" fill="#54697A">
                    <path d="M18.6811032,0.137304965 C19.0167376,0.305122143 19.222695,0.648384555 19.222695,1.01453113 L19.222695,28.7043656 C19.222695,29.2459574 18.7802679,29.6883846 18.2386761,29.6883846 C17.6970843,29.6883846 17.2546572,29.2459574 17.2546572,28.7043656 L17.2546572,2.98256895 L2.03669031,14.4246493 L2.03669031,28.7043656 C2.03669031,29.2459574 1.5942632,29.6883846 1.05267139,29.6883846 C0.51107959,29.6883846 0.0686524823,29.2459574 0.0686524823,28.7043656 L0.0686524823,13.9364539 C0.0686524823,13.6237037 0.2135855,13.3338377 0.465311269,13.1507644 L17.6436879,0.228841608 C17.941182,0.00762805359 18.3454689,-0.0305122143 18.6811032,0.137304965 Z" id="path1_fill"></path>
                </g>
            </g>
        </g>
    </g>
</svg>