<?xml version="1.0" encoding="UTF-8"?>
<svg width="43px" height="44px" viewBox="0 0 43 44" version="1.1" xmlns="http://www.w3.org/2000/svg" xmlns:xlink="http://www.w3.org/1999/xlink">
    <!-- Generator: Sketch 48.2 (47327) - http://www.bohemiancoding.com/sketch -->
    <title>OmiseGo</title>
    <desc>Created with Sketch.</desc>
    <defs></defs>
    <g id="DiscoveryMain-Copy-2" stroke="none" stroke-width="1" fill="none" fill-rule="evenodd" transform="translate(-211.000000, -423.000000)">
        <g id="Group-10" transform="translate(211.000000, 423.000000)" fill-rule="nonzero">
            <g id="OmiseGo">
                <g id="Vector" transform="translate(0.019574, 0.000000)" fill="#FFFFFF">
                    <path d="M21.4338603,0 C9.64034355,0 0.0782972065,9.85045045 0.0782972065,22 C0.0782972065,34.1495495 9.64034355,44 21.4338603,44 C33.2175899,44 42.7894234,34.1495495 42.7894234,22 C42.7894234,9.85045045 33.2175899,0 21.4338603,0 Z M33.677586,22.6243243 L22.0406636,34.6054054 C21.7079005,34.9423423 21.1598201,34.9423423 20.8074826,34.6054054 L9.19013462,22.6243243 C8.85737149,22.2873874 8.85737149,21.7126126 9.19013462,21.3558559 L20.8074826,9.39459459 C21.1402458,9.05765766 21.6883262,9.05765766 22.0406636,9.39459459 L33.6580117,21.3558559 C34.0005619,21.7126126 34.0005619,22.2873874 33.677586,22.6243243 Z" id="path1_fill"></path>
                </g>
                <g id="Vector_1_" transform="translate(20.795542, 3.735342)" fill="#CAD6F9">
                    <path d="M15.7573128,2.73513514 C12.2143642,-0.911711712 6.43015809,-0.911711712 2.90678379,2.73513514 L0.0489357541,5.68828829 C0.381698882,5.35135135 0.929779328,5.35135135 1.28211676,5.68828829 L12.8994648,17.6495495 C12.9386134,17.6891892 12.9679748,17.7189189 13.0169106,17.7387387 C14.0249871,18.5612613 21.09131,24.6063063 17.4113413,31.9198198 C20.2887636,28.163964 22.0113022,23.427027 22.0113022,18.2738739 C22.0113022,12.209009 19.6134502,6.71891892 15.7573128,2.73513514 Z" id="path2_fill"></path>
                </g>
                <g id="Vector_2_" transform="translate(3.606174, 21.359027)" fill="#CAD6F9">
                    <path d="M17.2547469,13.2495495 L5.61782457,1.26846847 C5.28506144,0.931531532 5.28506144,0.356756757 5.61782457,0 L2.75018938,2.97297297 C-0.792759216,6.61981982 -0.792759216,12.5756757 2.75018938,16.2126126 C6.29313797,19.8594595 12.0773441,19.8594595 15.6007184,16.2126126 L18.4683536,13.2594595 C18.1355905,13.5963964 17.5777229,13.5963964 17.2547469,13.2495495 Z" id="path3_fill"></path>
                </g>
            </g>
        </g>
    </g>
</svg>