<?xml version="1.0" encoding="UTF-8"?>
<svg width="37px" height="32px" viewBox="0 0 37 32" version="1.1" xmlns="http://www.w3.org/2000/svg" xmlns:xlink="http://www.w3.org/1999/xlink">
    <!-- Generator: Sketch 48.2 (47327) - http://www.bohemiancoding.com/sketch -->
    <title>%</title>
    <desc>Created with Sketch.</desc>
    <defs></defs>
    <g id="supported" stroke="none" stroke-width="1" fill="none" fill-rule="evenodd" transform="translate(-1070.000000, -2451.000000)">
        <path d="M1078.76,2467.68 C1077.66666,2467.68 1076.64667,2467.48 1075.7,2467.08 C1074.75333,2466.68 1073.92,2466.12667 1073.2,2465.42 C1072.48,2464.71333 1071.91334,2463.89334 1071.5,2462.96 C1071.08666,2462.02666 1070.88,2461.02667 1070.88,2459.96 C1070.88,2458.86666 1071.08666,2457.84667 1071.5,2456.9 C1071.91334,2455.95333 1072.48,2455.13334 1073.2,2454.44 C1073.92,2453.74666 1074.75333,2453.2 1075.7,2452.8 C1076.64667,2452.4 1077.66666,2452.2 1078.76,2452.2 C1079.82667,2452.2 1080.84,2452.4 1081.8,2452.8 C1082.76,2453.2 1083.59333,2453.74666 1084.3,2454.44 C1085.00667,2455.13334 1085.56666,2455.95333 1085.98,2456.9 C1086.39334,2457.84667 1086.6,2458.86666 1086.6,2459.96 C1086.6,2461.02667 1086.39334,2462.02666 1085.98,2462.96 C1085.56666,2463.89334 1085.00667,2464.71333 1084.3,2465.42 C1083.59333,2466.12667 1082.76,2466.68 1081.8,2467.08 C1080.84,2467.48 1079.82667,2467.68 1078.76,2467.68 Z M1078.76,2457.56 C1078.12,2457.56 1077.56,2457.79333 1077.08,2458.26 C1076.6,2458.72667 1076.36,2459.29333 1076.36,2459.96 C1076.36,2460.6 1076.6,2461.14666 1077.08,2461.6 C1077.56,2462.05334 1078.12,2462.28 1078.76,2462.28 C1079.37334,2462.28 1079.92,2462.05334 1080.4,2461.6 C1080.88,2461.14666 1081.12,2460.6 1081.12,2459.96 C1081.12,2459.29333 1080.88,2458.72667 1080.4,2458.26 C1079.92,2457.79333 1079.37334,2457.56 1078.76,2457.56 Z M1098.24,2481.48 C1097.14666,2481.48 1096.12667,2481.28 1095.18,2480.88 C1094.23333,2480.48 1093.4,2479.92667 1092.68,2479.22 C1091.96,2478.51333 1091.39334,2477.69334 1090.98,2476.76 C1090.56666,2475.82666 1090.36,2474.82667 1090.36,2473.76 C1090.36,2472.66666 1090.56666,2471.64667 1090.98,2470.7 C1091.39334,2469.75333 1091.96,2468.93334 1092.68,2468.24 C1093.4,2467.54666 1094.23333,2467 1095.18,2466.6 C1096.12667,2466.2 1097.14666,2466 1098.24,2466 C1099.30667,2466 1100.32,2466.2 1101.28,2466.6 C1102.24,2467 1103.07333,2467.54666 1103.78,2468.24 C1104.48667,2468.93334 1105.04666,2469.75333 1105.46,2470.7 C1105.87334,2471.64667 1106.08,2472.66666 1106.08,2473.76 C1106.08,2474.82667 1105.87334,2475.82666 1105.46,2476.76 C1105.04666,2477.69334 1104.48667,2478.51333 1103.78,2479.22 C1103.07333,2479.92667 1102.24,2480.48 1101.28,2480.88 C1100.32,2481.28 1099.30667,2481.48 1098.24,2481.48 Z M1098.24,2471.36 C1097.6,2471.36 1097.04,2471.59333 1096.56,2472.06 C1096.08,2472.52667 1095.84,2473.09333 1095.84,2473.76 C1095.84,2474.4 1096.08,2474.94666 1096.56,2475.4 C1097.04,2475.85334 1097.6,2476.08 1098.24,2476.08 C1098.85334,2476.08 1099.4,2475.85334 1099.88,2475.4 C1100.36,2474.94666 1100.6,2474.4 1100.6,2473.76 C1100.6,2473.09333 1100.36,2472.52667 1099.88,2472.06 C1099.4,2471.59333 1098.85334,2471.36 1098.24,2471.36 Z M1078.12,2480.36 L1094.92,2451.44 L1098.8,2453.64 L1082.04,2482.48 L1078.12,2480.36 Z" id="%" fill="#5094FC"></path>
    </g>
</svg>