<?xml version="1.0" encoding="UTF-8"?>
<svg width="43px" height="44px" viewBox="0 0 43 44" version="1.1" xmlns="http://www.w3.org/2000/svg" xmlns:xlink="http://www.w3.org/1999/xlink">
    <!-- Generator: Sketch 48.2 (47327) - http://www.bohemiancoding.com/sketch -->
    <title>status-2-logo-svg-vector</title>
    <desc>Created with Sketch.</desc>
    <defs></defs>
    <g id="DiscoveryMain-Copy-2" stroke="none" stroke-width="1" fill="none" fill-rule="evenodd" transform="translate(-868.000000, -423.000000)">
        <g id="Group-8-Copy-8" transform="translate(848.000000, 403.000000)" fill="#FFFFFF" fill-rule="nonzero">
            <g id="status-2-logo-svg-vector" transform="translate(20.000000, 20.000000)">
                <path d="M14.1056903,19.1676774 C12.6210265,19.1593541 11.138716,19.2869183 9.67730323,19.5487742 C10.8802065,8.42330323 20.1521419,-0.000851612903 31.1907484,0 C37.9495742,0 42.5806452,3.30936774 42.5806452,10.1614452 C42.5806452,17.0135226 37.0221677,20.3228903 28.9122581,20.3228903 C22.926271,20.3224645 20.092529,19.1676774 14.1056903,19.1676774 M13.6683871,23.2256129 C5.55890323,23.2256129 0,26.5349806 0,33.3870581 C0,40.2391355 4.63107097,43.5485032 11.3898968,43.5485032 C22.4297806,43.5485032 31.7008645,35.1252 32.9033419,23.999729 C31.4419291,24.261585 29.9596187,24.3891492 28.4749548,24.3808258 C22.4881161,24.3804 19.6543742,23.2256129 13.6683871,23.2256129" id="Shape"></path>
            </g>
        </g>
    </g>
</svg>