<?xml version="1.0" encoding="utf-8"?>
<!-- Generator: Adobe Illustrator 21.0.0, SVG Export Plug-In . SVG Version: 6.00 Build 0)  -->
<svg version="1.1" id="Слой_1" xmlns="http://www.w3.org/2000/svg" xmlns:xlink="http://www.w3.org/1999/xlink" x="0px" y="0px"
	 viewBox="0 0 200 200" style="enable-background:new 0 0 200 200;" xml:space="preserve">
<style type="text/css">
	.st0{fill:#F6B818;}
</style>
<g>
	<g>
		<path class="st0" d="M86.9,192.4L86.9,192.4l-14-0.1c-2.6,0-5-1.2-6.6-3.2C18.5,127.6,8.9,53.2,8.5,50.1c-0.6-4.6,2.7-8.8,7.3-9.4
			c0.3,0,0.7-0.1,1-0.1h37c4.7,0,8.4,3.8,8.4,8.4s-3.8,8.4-8.4,8.4h-27c4,21,16.9,73.4,50.3,118h1.3v-151H12.7
			c-4.7,0-8.4-3.8-8.4-8.4s3.8-8.4,8.4-8.4h74.2c4.7,0,8.4,3.8,8.4,8.4l0,0v168C95.4,188.6,91.6,192.4,86.9,192.4L86.9,192.4z"/>
		<path class="st0" d="M113.1,192.4c-4.7,0-8.4-3.8-8.4-8.4l0,0V16c0-4.6,3.8-8.4,8.4-8.4l0,0h74.2c4.7,0,8.4,3.8,8.4,8.4
			s-3.8,8.4-8.4,8.4h-65.8v151.1h1.3c33.5-44.7,46.3-97,50.3-118H146c-4.7,0-8.4-3.8-8.4-8.4s3.8-8.4,8.4-8.4h37
			c4.7,0,8.4,3.8,8.4,8.4c0,0.3,0,0.7-0.1,1c-0.4,3.1-10,77.6-57.8,138.9c-1.6,2-4,3.2-6.6,3.2L113.1,192.4L113.1,192.4z"/>
	</g>
</g>
</svg>
