<?xml version="1.0" encoding="UTF-8"?>
<svg width="88px" height="88px" viewBox="0 0 88 88" version="1.1" xmlns="http://www.w3.org/2000/svg" xmlns:xlink="http://www.w3.org/1999/xlink">
    <!-- Generator: Sketch 48.2 (47327) - http://www.bohemiancoding.com/sketch -->
    <title>Artboard 14</title>
    <desc>Created with Sketch.</desc>
    <defs></defs>
    <g id="Initial" stroke="none" stroke-width="1" fill="none" fill-rule="evenodd">
        <g id="Artboard-14" stroke="#97959F" stroke-width="6">
            <g id="noun_coin_763670" transform="translate(11.000000, 11.000000)">
                <g id="Group">
                    <path d="M49.4913,7.5 C59.3103,17.319 57.8673,34.68 46.2693,46.278 C34.6713,57.876 17.3103,59.319 7.4913,49.5 C-2.3277,39.681 -0.8847,22.32 10.7133,10.722 C22.3113,-0.876 39.6723,-2.319 49.4913,7.5 Z" id="Shape"></path>
                    <path d="M58.4913,16.5 L49.4913,7.5 C59.3103,17.319 57.8673,34.68 46.2693,46.278 C34.6713,57.876 17.3103,59.319 7.4913,49.5 L16.4913,58.5 C26.7423,67.374 44.0493,66.501 55.2693,55.278 C66.4923,44.058 67.4283,26.124 58.4913,16.5 Z" id="Shape"></path>
                </g>
            </g>
        </g>
    </g>
</svg>