<?xml version="1.0" encoding="UTF-8"?>
<svg width="44px" height="44px" viewBox="0 0 44 44" version="1.1" xmlns="http://www.w3.org/2000/svg" xmlns:xlink="http://www.w3.org/1999/xlink">
    <!-- Generator: Sketch 48.2 (47327) - http://www.bohemiancoding.com/sketch -->
    <title>0x-virtual-money- (2) copy 4</title>
    <desc>Created with Sketch.</desc>
    <defs></defs>
    <g id="DiscoveryMain-Copy-2" stroke="none" stroke-width="1" fill="none" fill-rule="evenodd" transform="translate(-539.000000, -423.000000)">
        <g id="Group-8" transform="translate(519.000000, 403.000000)" fill="#FFFFFF" fill-rule="nonzero">
            <g id="0x-virtual-money--(2)-copy-4" transform="translate(20.000000, 20.000000)">
                <path d="M33.8248564,29.1717998 C35.4068788,31.274022 37.0383395,33.4251331 38.6698002,35.5762442 C35.4068788,39.3895775 31.3529462,41.834022 26.4585642,42.8606886 C21.020362,43.9851331 15.8787889,43.154022 10.8855305,40.4162442 C15.3349687,37.1406886 19.6855305,33.914022 24.0855305,30.6873553 C25.0742946,31.6162442 26.0136204,32.5451331 26.9529462,33.4251331 C27.9911485,34.4029109 27.5956429,34.4517998 28.9304743,33.7184664 C30.7596878,32.6917998 32.2922721,31.274022 33.4787889,29.5629109 C33.5282271,29.4651331 33.6271035,29.3673553 33.6765417,29.2695775 C33.6271035,29.2695775 33.6765417,29.2695775 33.8248564,29.1717998 Z M14.3956429,33.474022 C13.1596878,34.4029109 12.0226092,35.234022 10.8855305,36.114022 C10.0450811,36.7495775 9.20463163,37.3362442 8.36418219,37.9717998 C8.01811478,38.2651331 7.77092377,38.2651331 7.37541815,37.9229109 C3.61811478,34.5984664 1.24508107,30.4917998 0.355193429,25.6029109 C-0.534694211,20.6651331 0.256317025,15.9717998 2.62935073,11.5229109 C2.67878893,11.4251331 2.77766534,11.2784664 2.82710354,11.1806886 C2.82710354,11.1317998 2.87654174,11.1317998 2.97541815,11.0829109 C6.2383395,15.3362442 9.55069905,19.5895775 12.8136204,23.8429109 C12.714744,23.9895775 12.6653058,24.0873553 12.5664294,24.1851331 C11.5776653,25.2117998 10.5889013,26.2384664 9.55069905,27.2162442 C9.25406983,27.5095775 9.20463163,27.754022 9.40238444,28.0962442 C10.4405867,30.0517998 11.8742946,31.6651331 13.6540698,32.9851331 C13.9012608,33.1317998 14.0990137,33.2784664 14.3956429,33.474022 Z M32.8360923,3.11402198 C31.2540698,4.23846642 29.6720474,5.36291087 28.0900249,6.43846642 C25.3709238,8.34513309 22.6518226,10.3006886 19.9821597,12.2073553 C19.6360923,12.4517998 19.3889013,12.5006886 19.0922721,12.1584664 C18.2023844,11.2295775 17.2630586,10.3984664 16.373171,9.46957753 C16.1259799,9.22513309 15.8787889,9.1762442 15.5327215,9.32291087 C13.4068788,10.3984664 11.7259799,11.914022 10.3417103,13.8206886 C10.2428339,13.9184664 10.1439575,14.0651331 10.0450811,14.2117998 C9.25406983,13.1851331 8.5124968,12.2562442 7.77092377,11.2784664 C6.97991253,10.2517998 6.2383395,9.22513309 5.49676646,8.24735531 C5.24957545,7.90513309 5.20013725,7.66068864 5.54620467,7.31846642 C9.35294624,3.16291087 14.0495755,0.718466422 19.6855305,0.131799755 C24.1349687,-0.357089134 28.3866541,0.522910866 32.3417103,2.62513309 C32.4900249,2.72291087 32.6383395,2.77179976 32.7866541,2.86957753 C32.7866541,3.0162442 32.7866541,3.06513309 32.8360923,3.11402198 Z M40.8945193,32.4473553 C39.856317,31.1273553 38.9169912,29.9051331 37.9776653,28.6829109 C35.8023844,25.8473553 33.6271035,22.9629109 31.4023844,20.1273553 C31.1057552,19.7362442 31.1057552,19.4917998 31.4518226,19.1495775 C32.3911485,18.2206886 33.2810361,17.2917998 34.220362,16.3629109 C34.467553,16.1184664 34.5664294,15.874022 34.3686766,15.5317998 C33.2810361,13.4784664 31.7978901,11.7673553 29.8698002,10.3984664 C29.7214856,10.3006886 29.573171,10.154022 29.3754181,10.0562442 C29.5237328,9.90957753 29.6720474,9.81179976 29.7709238,9.71402198 C31.6495755,8.2962442 33.5282271,6.92735531 35.4068788,5.50957753 C35.703508,5.26513309 35.950699,5.16735531 36.2967665,5.50957753 C40.9933957,9.71402198 43.514744,14.9451331 43.761935,21.2517998 C43.8608114,24.9184664 43.020362,28.3895775 41.3394631,31.6651331 C41.1911485,31.8606886 41.0428339,32.1051331 40.8945193,32.4473553 Z" id="Shape"></path>
            </g>
        </g>
    </g>
</svg>