<?xml version="1.0" encoding="UTF-8"?>
<svg width="22px" height="22px" viewBox="0 0 22 22" version="1.1" xmlns="http://www.w3.org/2000/svg" xmlns:xlink="http://www.w3.org/1999/xlink">
    <!-- Generator: Sketch 48.2 (47327) - http://www.bohemiancoding.com/sketch -->
    <title>Shape</title>
    <desc>Created with Sketch.</desc>
    <defs></defs>
    <g id="main-copy-2" stroke="none" stroke-width="1" fill="none" fill-rule="evenodd" transform="translate(-737.000000, -8367.000000)">
        <g id="Group-34" transform="translate(0.000000, 7789.000000)" fill="#21293E">
            <g id="Group-6" transform="translate(737.000000, 578.000000)">
                <path d="M10.931677,0 C4.91925466,0 0,5.07046701 0,11.2677045 C0,16.1973252 3.14285714,20.4227144 7.51552795,21.9720237 C8.0621118,22.11287 8.19875776,21.6903311 8.19875776,21.4086385 C8.19875776,21.1269459 8.19875776,20.4227144 8.19875776,19.4367902 C5.19254658,20.1410217 4.50931677,18.0283272 4.50931677,18.0283272 C3.96273292,16.7607104 3.27950311,16.3381715 3.27950311,16.3381715 C2.32298137,15.63394 3.41614907,15.63394 3.41614907,15.63394 C4.50931677,15.7747863 5.05590062,16.7607104 5.05590062,16.7607104 C6.01242236,18.5917124 7.65217391,18.0283272 8.19875776,17.7466345 C8.33540373,17.042403 8.60869565,16.4790178 8.88198758,16.1973252 C6.42236025,15.9156326 3.96273292,14.9297084 3.96273292,10.5634729 C3.96273292,9.29585619 4.37267081,8.30993205 5.05590062,7.60570052 C4.91925466,7.32400791 4.50931677,6.19723746 5.19254658,4.6479281 C5.19254658,4.6479281 6.14906832,4.36623548 8.19875776,5.77469854 C9.01863354,5.49300593 9.97515528,5.35215963 10.931677,5.35215963 C11.8881988,5.35215963 12.8447205,5.49300593 13.6645963,5.77469854 C15.7142857,4.36623548 16.6708075,4.6479281 16.6708075,4.6479281 C17.2173913,6.19723746 16.9440994,7.32400791 16.8074534,7.60570052 C17.4906832,8.45077836 17.9006211,9.4367025 17.9006211,10.5634729 C17.9006211,14.9297084 15.3043478,15.7747863 12.8447205,16.0564789 C13.2546584,16.6198641 13.6645963,17.3240956 13.6645963,18.3100198 C13.6645963,19.8593291 13.6645963,20.9860996 13.6645963,21.4086385 C13.6645963,21.6903311 13.8012422,22.11287 14.484472,21.9720237 C18.8571429,20.4227144 22,16.1973252 22,11.2677045 C21.863354,5.07046701 16.9440994,0 10.931677,0 Z" id="Shape"></path>
            </g>
        </g>
    </g>
</svg>