<?xml version="1.0" encoding="UTF-8"?>
<svg width="20px" height="20px" viewBox="0 0 20 20" version="1.1" xmlns="http://www.w3.org/2000/svg" xmlns:xlink="http://www.w3.org/1999/xlink">
    <!-- Generator: Sketch 48.2 (47327) - http://www.bohemiancoding.com/sketch -->
    <title>Shape</title>
    <desc>Created with Sketch.</desc>
    <defs></defs>
    <g id="main-copy-2" stroke="none" stroke-width="1" fill="none" fill-rule="evenodd" transform="translate(-1021.000000, -8135.000000)">
        <g id="Group-34" transform="translate(0.000000, 7789.000000)" fill="#21293E" fill-rule="nonzero">
            <g id="Group-27" transform="translate(1009.000000, 334.000000)">
                <g id="Group-5-Copy-6">
                    <path d="M30.75,12 L13.25,12 C12.5596441,12 12,12.5596441 12,13.25 L12,30.75 C12,31.4403559 12.5596441,32 13.25,32 L30.75,32 C31.4403559,32 32,31.4403559 32,30.75 L32,13.25 C32,12.5596441 31.4403559,12 30.75,12 Z M28.615,16.73875 L27.5425,17.7675 C27.4478129,17.8366684 27.3995988,17.9528645 27.4175,18.06875 L27.4175,25.625 C27.3995988,25.7408855 27.4478129,25.8570816 27.5425,25.92625 L28.59,26.955 L28.59,27.18125 L23.32125,27.18125 L23.32125,26.955 L24.40625,25.90125 C24.5125,25.795 24.5125,25.76375 24.5125,25.6 L24.5125,19.49125 L21.5,27.155 L21.08875,27.155 L17.57625,19.4925 L17.57625,24.625 C17.5469776,24.8411971 17.6189066,25.0588284 17.77125,25.215 L19.1825,26.9275 L19.1825,27.15375 L15.1825,27.15375 L15.1825,26.9275 L16.59375,25.215 C16.7449946,25.0585741 16.8127585,24.839502 16.77625,24.625 L16.77625,18.68875 C16.7921579,18.5233386 16.7280519,18.3602862 16.60375,18.25 L15.35375,16.73875 L15.35375,16.5125 L19.25,16.5125 L22.25,23.11625 L24.9025,16.5125 L28.61625,16.5125 L28.615,16.73875 Z" id="Shape"></path>
                </g>
            </g>
        </g>
    </g>
</svg>