<?xml version="1.0" encoding="UTF-8"?>
<svg width="20px" height="17px" viewBox="0 0 20 17" version="1.1" xmlns="http://www.w3.org/2000/svg" xmlns:xlink="http://www.w3.org/1999/xlink">
    <!-- Generator: Sketch 48.2 (47327) - http://www.bohemiancoding.com/sketch -->
    <title>Telegram_logo</title>
    <desc>Created with Sketch.</desc>
    <defs></defs>
    <g id="main-copy-2" stroke="none" stroke-width="1" fill="none" fill-rule="evenodd" transform="translate(-425.000000, -8137.000000)">
        <g id="Group-34" transform="translate(0.000000, 7789.000000)" fill-rule="nonzero">
            <g id="Group-5-Copy-4" transform="translate(414.000000, 334.000000)">
                <g id="Telegram_logo" transform="translate(11.000000, 14.000000)">
                    <path d="M7.36363636,15 C6.78933182,15 6.88692045,14.7836779 6.68884773,14.2381789 L5,8.69350105 L18,1" id="Shape" fill="#121723"></path>
                    <path d="M8,16 C8.40909091,16 8.58984091,15.7757657 8.81818182,15.5096918 L11,12.9669532 L8.27845455,11" id="Shape" fill="#121723"></path>
                    <path d="M7.83510795,11.2189151 L15.2470148,16.7684378 C16.092809,17.2413798 16.7032492,16.9965136 16.9139276,15.9726423 L19.9309538,1.56444797 C20.2398445,0.309409953 19.4588815,-0.259816468 18.6497483,0.112460842 L0.933819536,7.03534635 C-0.275458514,7.52689592 -0.268408313,8.21061066 0.713393472,8.51526049 L5.25970021,9.95328411 L15.7848839,3.22393062 C16.2817544,2.91858183 16.7377798,3.08274389 16.3634908,3.41938863" id="Shape" fill="#323B53"></path>
                </g>
            </g>
        </g>
    </g>
</svg>