<?xml version="1.0" encoding="UTF-8"?>
<svg width="20px" height="17px" viewBox="0 0 20 17" version="1.1" xmlns="http://www.w3.org/2000/svg" xmlns:xlink="http://www.w3.org/1999/xlink">
    <!-- Generator: Sketch 48.2 (47327) - http://www.bohemiancoding.com/sketch -->
    <title>Shape</title>
    <desc>Created with Sketch.</desc>
    <defs></defs>
    <g id="main-copy-2" stroke="none" stroke-width="1" fill="none" fill-rule="evenodd" transform="translate(-490.000000, -8138.000000)">
        <g id="Group-34" transform="translate(0.000000, 7789.000000)" fill="#21293E" fill-rule="nonzero">
            <g id="Group-5-Copy-3" transform="translate(478.000000, 334.000000)">
                <path d="M32,16.875 C31.25,17.25 30.5,17.375 29.625,17.5 C30.5,17 31.125,16.25 31.375,15.25 C30.625,15.75 29.75,16 28.75,16.25 C28,15.5 26.875,15 25.75,15 C23.625,15 21.75,16.875 21.75,19.125 C21.75,19.5 21.75,19.75 21.875,20 C18.5,19.875 15.375,18.25 13.375,15.75 C13,16.375 12.875,17 12.875,17.875 C12.875,19.25 13.625,20.5 14.75,21.25 C14.125,21.25 13.5,21 12.875,20.75 C12.875,20.75 12.875,20.75 12.875,20.75 C12.875,22.75 14.25,24.375 16.125,24.75 C15.75,24.875 15.375,24.875 15,24.875 C14.75,24.875 14.5,24.875 14.25,24.75 C14.75,26.375 16.25,27.625 18.125,27.625 C16.75,28.75 15,29.375 13,29.375 C12.625,29.375 12.375,29.375 12,29.375 C13.875,30.5 16,31.25 18.25,31.25 C25.75,31.25 29.875,25 29.875,19.625 C29.875,19.5 29.875,19.25 29.875,19.125 C30.75,18.5 31.5,17.75 32,16.875 Z" id="Shape"></path>
            </g>
        </g>
    </g>
</svg>