<?xml version="1.0" encoding="UTF-8"?>
<svg width="67px" height="66px" viewBox="0 0 67 66" version="1.1" xmlns="http://www.w3.org/2000/svg" xmlns:xlink="http://www.w3.org/1999/xlink">
    <g id="Metamask" stroke="none" stroke-width="1" fill="none" fill-rule="evenodd" transform="translate(-537.000000, -517.000000)">
        <g id="Group-2-Copy-2" transform="translate(420.000000, 420.000000)">
            <g id="Group" transform="translate(115.000000, 94.000000)">
                <g id="Group-7" transform="translate(36.146447, 36.353553) rotate(-45.000000) translate(-36.146447, -36.353553) translate(10.146447, 11.353553)">
                    <path d="M6.84000019,0 L17.5399998,-1.77635684e-15 C21.3176276,-2.47029581e-15 24.38,3.06237239 24.38,6.84000019 L24.38,17.2054544 C24.38,20.9830822 21.3176276,24.0454545 17.5399998,24.0454545 L6.84000019,24.0454545 C3.06237239,24.0454545 -1.31373086e-15,20.9830822 -1.77635684e-15,17.2054544 L-1.77635684e-15,6.84000019 C-3.91658656e-15,3.06237239 3.06237239,-1.08241787e-15 6.84000019,-1.77635684e-15 Z M12.2220043,16.2292771 C14.5636917,16.2292771 16.4620043,14.3570133 16.4620043,12.0474589 C16.4620043,9.73790446 14.5636917,7.86564069 12.2220043,7.86564069 C9.88031699,7.86564069 7.98200433,9.73790446 7.98200433,12.0474589 C7.98200433,14.3570133 9.88031699,16.2292771 12.2220043,16.2292771 Z" id="Combined-Shape" fill="#3240A1"></path>
                    <path d="M6.84000019,25.0909091 L17.5399998,25.0909091 C21.3176276,25.0909091 24.38,28.1532815 24.38,31.9309093 L24.38,42.2963635 C24.38,46.0739912 21.3176276,49.1363636 17.5399998,49.1363636 L6.84000019,49.1363636 C3.06237239,49.1363636 -1.31373086e-15,46.0739912 -1.77635684e-15,42.2963635 L-1.77635684e-15,31.9309093 C-3.91658656e-15,28.1532815 3.06237239,25.0909091 6.84000019,25.0909091 Z M12.2984317,41.3966135 C14.6401191,41.3966135 16.5384317,39.5243498 16.5384317,37.2147954 C16.5384317,34.9052409 14.6401191,33.0329772 12.2984317,33.0329772 C9.95674438,33.0329772 8.05843172,34.9052409 8.05843172,37.2147954 C8.05843172,39.5243498 9.95674438,41.3966135 12.2984317,41.3966135 Z" id="Combined-Shape-Copy" fill="#3240A1"></path>
                    <path d="M34.4000002,0 L45.0999998,-1.77635684e-15 C48.8776276,-2.47029581e-15 51.94,3.06237239 51.94,6.84000019 L51.94,17.2054544 C51.94,20.9830822 48.8776276,24.0454545 45.0999998,24.0454545 L34.4000002,24.0454545 C30.6223724,24.0454545 27.56,20.9830822 27.56,17.2054544 L27.56,6.84000019 C27.56,3.06237239 30.6223724,-1.08241787e-15 34.4000002,-1.77635684e-15 Z M39.6421218,16.0893945 C41.9838091,16.0893945 43.8821218,14.2171307 43.8821218,11.9075763 C43.8821218,9.5980219 41.9838091,7.72575812 39.6421218,7.72575812 C37.3004344,7.72575812 35.4021218,9.5980219 35.4021218,11.9075763 C35.4021218,14.2171307 37.3004344,16.0893945 39.6421218,16.0893945 Z" id="Combined-Shape" fill="#3240A1"></path>
                    <rect id="Combined-Shape-Copy-2" stroke="#3240A1" stroke-width="2.28000006" x="28.7" y="26.2309091" width="22.0999999" height="21.7654545" rx="6.84000019"></rect>
                    <ellipse id="Oval-3" fill="#3240A1" cx="39.994288" cy="37.3506516" rx="4.24" ry="4.18181818"></ellipse>
                </g>
            </g>
        </g>
    </g>
</svg>