<?xml version="1.0" encoding="UTF-8"?>
<svg width="91px" height="85px" viewBox="0 0 91 85" version="1.1" xmlns="http://www.w3.org/2000/svg" xmlns:xlink="http://www.w3.org/1999/xlink">
    <g id="Metamask" stroke="none" stroke-width="1" fill="none" fill-rule="evenodd" transform="translate(-245.000000, -140.000000)" stroke-linecap="round" stroke-linejoin="round">
        <g id="Group-2" transform="translate(60.000000, 60.000000)" fill-rule="nonzero" stroke-width="0.5">
            <g id="Group" transform="translate(108.000000, 81.000000)">
                <g id="download" transform="translate(77.000000, 0.000000)">
                    <polygon id="Shape" stroke="#E2761B" fill="#E2761B" points="85.4648438 0.175105485 50.484375 26.0556962 56.953125 10.7864979"></polygon>
                    <g id="Group" transform="translate(0.703125, 0.000000)" fill="#E4761B" stroke="#E4761B">
                        <polygon id="Shape" points="4.0078125 0.175105485 38.7070312 26.3008439 32.5546875 10.7864979"></polygon>
                        <polygon id="Shape" points="72.1757813 60.1662447 62.859375 74.3848101 82.7929688 79.8481013 88.5234375 60.4814346"></polygon>
                        <polygon id="Shape" points="0.31640625 60.4814346 6.01171875 79.8481013 25.9453125 74.3848101 16.6289062 60.1662447"></polygon>
                        <polygon id="Shape" points="24.8203125 36.1417722 19.265625 44.5118143 39.0585938 45.3873418 38.3554688 24.1995781"></polygon>
                        <polygon id="Shape" points="63.9492188 36.1417722 50.2382813 23.9544304 49.78125 45.3873418 69.5390625 44.5118143"></polygon>
                        <polygon id="Shape" points="25.9453125 74.3848101 37.828125 68.6063291 27.5625 60.621519"></polygon>
                        <polygon id="Shape" points="50.9414062 68.6063291 62.859375 74.3848101 61.2070312 60.621519"></polygon>
                    </g>
                    <g id="Group" transform="translate(26.367188, 68.291139)" fill="#D7C1B3" stroke="#D7C1B3">
                        <polygon id="Shape" points="37.1953125 6.09367089 25.2773438 0.315189873 26.2265625 8.05485232 26.1210938 11.3118143"></polygon>
                        <polygon id="Shape" points="0.28125 6.09367089 11.3554688 11.3118143 11.2851562 8.05485232 12.1640625 0.315189873"></polygon>
                    </g>
                    <polygon id="Shape" stroke="#233447" fill="#233447" points="37.8984375 55.5084388 27.984375 52.6016878 34.9804688 49.4147679"></polygon>
                    <polygon id="Shape" stroke="#233447" fill="#233447" points="52.2773438 55.5084388 55.1953125 49.4147679 62.2265625 52.6016878"></polygon>
                    <g id="Group" transform="translate(17.226562, 44.476793)" fill="#CD6116" stroke="#CD6116">
                        <polygon id="Shape" points="9.421875 29.9080169 11.109375 15.6894515 0.10546875 16.0046414"></polygon>
                        <polygon id="Shape" points="44.6484375 15.6894515 46.3359375 29.9080169 55.6523438 16.0046414"></polygon>
                        <polygon id="Shape" points="53.015625 0.035021097 33.2578125 0.910548523 35.0859375 11.0316456 38.0039063 4.93797468 45.0351563 8.12489451"></polygon>
                        <polygon id="Shape" points="10.7578125 8.12489451 17.7890625 4.93797468 20.671875 11.0316456 22.5351563 0.910548523 2.7421875 0.035021097"></polygon>
                    </g>
                    <g id="Group" transform="translate(19.687500, 44.476793)" fill="#E4751F" stroke="#E4751F">
                        <polygon id="Shape" points="0.28125 0.035021097 8.578125 16.1447257 8.296875 8.12489451"></polygon>
                        <polygon id="Shape" points="42.5742188 8.12489451 42.2226563 16.1447257 50.5546875 0.035021097"></polygon>
                        <polygon id="Shape" points="20.0742188 0.910548523 18.2109375 11.0316456 20.53125 22.9738397 21.0585938 7.24936709"></polygon>
                        <polygon id="Shape" points="30.796875 0.910548523 29.8476563 7.21434599 30.2695312 22.9738397 32.625 11.0316456"></polygon>
                    </g>
                    <polygon id="Shape" stroke="#F6851B" fill="#F6851B" points="52.3125 55.5084388 49.9570313 67.4506329 51.6445313 68.6063291 61.9101563 60.621519 62.2617188 52.6016878"></polygon>
                    <polygon id="Shape" stroke="#F6851B" fill="#F6851B" points="27.984375 52.6016878 28.265625 60.621519 38.53125 68.6063291 40.21875 67.4506329 37.8984375 55.5084388"></polygon>
                    <polygon id="Shape" stroke="#C0AD9E" fill="#C0AD9E" points="52.4882813 79.6029536 52.59375 76.3459916 51.7148438 75.5755274 38.4609375 75.5755274 37.6523438 76.3459916 37.7226563 79.6029536 26.6484375 74.3848101 30.515625 77.5367089 38.3554688 82.9649789 51.8203125 82.9649789 59.6953125 77.5367089 63.5625 74.3848101"></polygon>
                    <polygon id="Shape" stroke="#161616" fill="#161616" points="51.6445313 68.6063291 49.9570313 67.4506329 40.21875 67.4506329 38.53125 68.6063291 37.6523438 76.3459916 38.4609375 75.5755274 51.7148438 75.5755274 52.59375 76.3459916"></polygon>
                    <g id="Group" fill="#763D16" stroke="#763D16">
                        <polygon id="Shape" points="86.9414062 27.7367089 89.9296875 13.4481013 85.4648438 0.175105485 51.6445312 25.1801688 64.6523438 36.1417722 83.0390625 41.5 87.1171875 36.7721519 85.359375 35.5113924 88.171875 32.9548523 85.9921875 31.2738397 88.8046875 29.1375527"></polygon>
                        <polygon id="Shape" points="0.28125 13.4481013 3.26953125 27.7367089 1.37109375 29.1375527 4.18359375 31.2738397 2.0390625 32.9548523 4.8515625 35.5113924 3.09375 36.7721519 7.13671875 41.5 25.5234375 36.1417722 38.53125 25.1801688 4.7109375 0.175105485"></polygon>
                    </g>
                    <polygon id="Shape" stroke="#F6851B" fill="#F6851B" points="83.0390625 41.5 64.6523438 36.1417722 70.2421875 44.5118143 61.9101563 60.621519 72.8789063 60.4814346 89.2265625 60.4814346"></polygon>
                    <polygon id="Shape" stroke="#F6851B" fill="#F6851B" points="25.5234375 36.1417722 7.13671875 41.5 1.01953125 60.4814346 17.3320312 60.4814346 28.265625 60.621519 19.96875 44.5118143"></polygon>
                    <polygon id="Shape" stroke="#F6851B" fill="#F6851B" points="50.484375 45.3873418 51.6445313 25.1801688 56.9882813 10.7864979 33.2578125 10.7864979 38.53125 25.1801688 39.7617188 45.3873418 40.1835938 51.7611814 40.21875 67.4506329 49.9570313 67.4506329 50.0273438 51.7611814"></polygon>
                </g>
            </g>
        </g>
    </g>
</svg>