<?xml version="1.0" encoding="UTF-8"?>
<svg width="66px" height="75px" viewBox="0 0 66 75" version="1.1" xmlns="http://www.w3.org/2000/svg" xmlns:xlink="http://www.w3.org/1999/xlink">
    <g id="Metamask" stroke="none" stroke-width="1" fill="none" fill-rule="evenodd" transform="translate(-536.000000, -151.000000)">
        <g id="Group-2-Copy" transform="translate(420.000000, 60.000000)" fill="#3375BB" fill-rule="nonzero">
            <g id="Group" transform="translate(116.000000, 91.000000)">
                <g id="logo">
                    <g id="path1_stroke-link" transform="translate(0.245045, 0.122406)">
                        <path d="M32.4276276,2.85614616 L34.1574414,0.625516478 C33.1391568,-0.162645301 31.7160985,-0.162645301 30.6978138,0.625516478 L32.4276276,2.85614616 Z M62.0372372,11.5469922 L64.8613814,11.5928945 C64.8736336,10.8366685 64.5816216,10.1071271 64.0506907,9.56800907 C63.5197598,9.02885022 62.7944264,8.72524185 62.0372372,8.72524185 L62.0372372,11.5469922 Z M32.4276276,71.974891 L30.8628925,74.3238675 C31.8107267,74.9542598 33.0445285,74.9542598 33.9923219,74.3238675 L32.4276276,71.974891 Z M2.85885637,11.5469922 L2.85885637,8.72524185 C2.10180853,8.72524185 1.37645069,9.02885022 0.845507508,9.56800907 C0.314564324,10.1071271 0.022486967,10.8366685 0.0348004805,11.5928945 L2.85885637,11.5469922 Z M30.6978138,5.08677646 C43.5158342,15.0080704 58.1826787,14.3687425 62.0372372,14.3687425 L62.0372372,8.72524185 C58.0503544,8.72524185 45.2720721,9.22837245 34.1574414,0.625516478 L30.6978138,5.08677646 Z M59.2130931,11.5010898 C59.0003123,24.6080276 58.4452853,33.8531289 57.3817898,40.7030657 C56.332997,47.4801709 54.8329129,51.5420192 52.9023664,54.3949015 C50.9460901,57.3587655 48.4923724,59.1177437 44.8563123,61.288007 C41.1885189,63.4827515 36.5555748,65.8468248 30.8628925,69.6259146 L33.9923219,74.3238675 C39.4083483,70.7177786 43.9239159,68.4202127 47.7568288,66.1303993 C51.6211892,63.8165126 55.0203724,61.2680139 57.5823183,57.5558396 C60.1695856,53.7322755 61.8526366,48.7487079 62.9643243,41.565418 C64.0621261,34.4546741 64.6453333,24.8237074 64.8613814,11.5928945 L59.2130931,11.5010898 Z M33.9923219,69.6259146 C28.2999255,65.8468248 23.6700853,63.4831595 20.0065802,61.288823 C16.374645,59.1189677 13.926155,57.3608056 11.9748204,54.3973496 C10.0486847,51.5448753 8.55333814,47.482619 7.50797598,40.7045346 C6.44839712,33.8542305 5.89565309,24.6084356 5.68291315,11.5010898 L0.0348004805,11.5928945 C0.250889369,24.8232994 0.831478679,34.4535724 1.92498811,41.5639491 C3.03269831,48.7462598 4.71014967,53.7298274 7.29184625,57.5533915 C9.84831952,61.2659738 13.2426018,63.8152886 17.1036949,66.1299913 C20.9331772,68.4198047 25.446621,70.7177786 30.8628925,74.3238675 L33.9923219,69.6259146 Z M2.85885637,14.3687425 C6.67340156,14.3687425 21.3397069,15.0078256 34.1574414,5.08677646 L30.6978138,0.625516478 C19.5828156,9.22861726 6.80407183,8.72524185 2.85885637,8.72524185 L2.85885637,14.3687425 Z" id="path1_stroke"></path>
                    </g>
                </g>
            </g>
        </g>
    </g>
</svg>