<?xml version="1.0" encoding="UTF-8"?>
<svg width="39px" height="42px" viewBox="0 0 39 42" version="1.1" xmlns="http://www.w3.org/2000/svg" xmlns:xlink="http://www.w3.org/1999/xlink">
    <!-- Generator: Sketch 48.2 (47327) - http://www.bohemiancoding.com/sketch -->
    <title>Combined Shape</title>
    <desc>Created with Sketch.</desc>
    <defs>
        <path d="M3.4469819,18.1723724 C2.53523737,17.2126889 1.97508954,15.9109644 1.97508954,14.4773847 C1.97508954,12.3242433 3.23867356,10.4685412 5.05925608,9.62240286 C5.29850414,8.65055913 5.68319517,7.71876812 6.20192218,6.85970745 L3.72877542,2.40610595 C3.61379266,2.19763435 3.62811136,1.94108418 3.76556604,1.74692349 C4.78343966,0.309081754 7.4160124,2.09711418 9.11246844,3.50199679 L9.32094858,3.64619296 C10.9016951,2.62808261 12.7387439,2.08765956 14.614709,2.0888744 L21.0816812,2.0888744 C22.6113545,2.08742925 24.1202596,2.44574676 25.488379,3.13532655 C26.4899013,2.3443076 29.1429132,0.325561316 30.7739637,0.403839233 C30.9916599,0.41324617 31.18805,0.538381227 31.2898463,0.732547243 C31.3916426,0.92671326 31.3835517,1.16073976 31.2685931,1.34729413 L28.6360204,5.6402199 C29.4061273,6.56530249 30.000909,7.62318518 30.392587,8.76095977 C32.8485933,9.22750311 34.7064715,11.401004 34.7064715,14.0118371 C34.7064715,15.4887399 34.1119565,16.8256978 33.1509622,17.7928875 L38.1147392,34.0689997 C33.2269052,38.9684845 26.4674768,42 19,42 C11.7707987,42 5.20518125,39.1588599 0.358829087,34.532261 L3.4469819,18.1723724 Z" id="path-1"></path>
    </defs>
    <g id="share-copy-2" stroke="none" stroke-width="1" fill="none" fill-rule="evenodd" transform="translate(-259.000000, -201.000000)">
        <g id="Group-2" transform="translate(259.000000, 197.000000)">
            <g id="Group-3-Copy-3" transform="translate(0.000000, 4.000000)">
                <g id="example-copy-3">
                    <mask id="mask-2" fill="white">
                        <use xlink:href="#path-1"></use>
                    </mask>
                    <use id="Combined-Shape" fill="#FFFFFF" xlink:href="#path-1"></use>
                </g>
            </g>
        </g>
    </g>
</svg>