<?xml version="1.0" encoding="UTF-8"?>
<svg width="167px" height="167px" viewBox="0 0 167 167" version="1.1" xmlns="http://www.w3.org/2000/svg" xmlns:xlink="http://www.w3.org/1999/xlink">
    <!-- Generator: Sketch 48.2 (47327) - http://www.bohemiancoding.com/sketch -->
    <title>134330 copy</title>
    <desc>Created with Sketch.</desc>
    <defs>
        <circle id="path-1" cx="83.5" cy="83.5" r="83.5"></circle>
        <path d="M98.5387832,24.7834798 C98.5387832,24.7834798 98.1547827,27.6553852 95.6907798,32.8141782 C92.3414425,22.3157685 85.9841017,11.8279955 77.7067585,5.58426048 C77.5147583,5.44598355 77.2160913,5.24388651 76.8214242,4.98860603 C59.6160705,-5.74381078 36.8533769,1.60613968 29.1307011,20.3267081 L28.4160336,22.028578 C32.7573721,18.6461117 38.6880457,16.5187743 38.6880457,16.5187743 C38.6880457,16.5187743 36.5653766,19.4119531 34.9440413,21.5818372 C29.9200354,28.2829497 26.6240315,37.4836837 29.1733678,45.9292128 C29.9733688,48.5777478 31.9893712,51.1411893 34.5387075,53.4812604 C21.6000255,55.5766876 12.437348,68.7874524 12.437348,68.7874524 L0.0640000762,83.3384397 L18.1333548,87.0931901 L28.4267003,87.4654741 C33.9307068,89.1141605 40.9173817,90.2948328 49.6640587,90.2948328 C75.530756,90.2948328 93.7281108,73.382501 97.5681154,55.2044036 C97.8667824,53.7790876 98.1761161,52.3537716 98.5067831,50.9390922 C99.7121179,45.6632957 102.176121,32.516351 98.5387832,24.7834798 Z" id="path-3"></path>
        <path d="M98.5387832,24.7834798 C98.5387832,24.7834798 98.1547827,27.6553852 95.6907798,32.8141782 C92.3414425,22.3157685 85.9841017,11.8279955 77.7067585,5.58426048 C77.5147583,5.44598355 77.2160913,5.24388651 76.8214242,4.98860603 C59.6160705,-5.74381078 36.8533769,1.60613968 29.1307011,20.3267081 L28.4160336,22.028578 C32.7573721,18.6461117 38.6880457,16.5187743 38.6880457,16.5187743 C38.6880457,16.5187743 36.5653766,19.4119531 34.9440413,21.5818372 C29.9200354,28.2829497 26.6240315,37.4836837 29.1733678,45.9292128 C29.9733688,48.5777478 31.9893712,51.1411893 34.5387075,53.4812604 C21.6000255,55.5766876 12.437348,68.7874524 12.437348,68.7874524 L0.0640000762,83.3384397 L18.1333548,87.0931901 L28.4267003,87.4654741 C33.9307068,89.1141605 40.9173817,90.2948328 49.6640587,90.2948328 C75.530756,90.2948328 93.7281108,73.382501 97.5681154,55.2044036 C97.8667824,53.7790876 98.1761161,52.3537716 98.5067831,50.9390922 C99.7121179,45.6632957 102.176121,32.516351 98.5387832,24.7834798 Z" id="path-5"></path>
        <path d="M51.0400603,8.44552918 C55.164804,5.81698335 59.9583336,4.42172518 64.85341,4.42486164 L81.7280966,4.42486164 C85.7195717,4.42113059 89.6568549,5.3462307 93.2267769,7.12658004 C95.8401133,5.08433621 102.762788,-0.127640239 107.018793,0.0744568069 C107.586842,0.098743533 108.099295,0.421815814 108.364919,0.923111452 C108.630542,1.42440709 108.60943,2.02861408 108.309461,2.51025804 L101.44012,13.5936855 C103.772368,16.3656663 105.488366,19.5994929 106.474793,23.08161 L137.952163,125.204438 C139.518936,130.661336 139.279537,136.476558 137.269496,141.787033 L137.354829,141.818943 C142.421502,143.286806 151.946846,146.722455 156.533518,149.849641 C159.317522,151.742971 157.610853,155.795549 154.058849,155.731729 L126.154816,155.199895 C123.989241,156.522463 121.643155,157.525613 119.189474,158.178167 C119.488141,159.592846 120.501476,160.411871 122.186811,160.507601 C124.128147,160.613968 124.714814,162.486025 124.800148,163.219956 C125.045481,165.474934 124.18148,166.910887 121.824144,167.144894 L112.032132,167.463994 C111.217875,167.49313 110.406802,167.348055 109.653463,167.038527 C107.226191,166.030756 105.489421,163.84882 105.056124,161.262806 L104.68279,159.061012 L47.7760565,159.061012 L47.2427225,161.89037 C47.0851461,162.787009 46.7671996,163.648094 46.3040547,164.432539 C44.8747197,166.857703 42.1547165,168.229836 39.3387132,168.059649 L30.3467025,167.527814 C28.0640332,167.357627 26.9440319,165.517481 27.4453658,163.230593 C27.7120328,162.049921 29.0560344,161.071346 30.7093696,160.986252 C33.1947059,160.858612 33.9413735,158.837641 33.8987067,156.348657 L33.8987067,155.997646 C33.3938173,155.735274 32.8995945,155.455175 32.4160383,155.157348 L3.94667133,155.721092 C0.394667134,155.784912 -1.35466827,151.657878 1.47200174,149.839004 C7.23200855,146.126801 17.0880202,142.478417 21.152025,141.510479 L21.2160251,141.489205 C19.766651,137.487873 19.3056357,133.197162 19.8720235,128.980462 L39.3813799,26.7193568 C39.8443031,23.1852669 41.0433037,19.7867813 42.9013841,16.7421447 L36.4480431,5.24388651 C36.1480112,4.70565687 36.1853739,4.04329852 36.5440432,3.54201665 C39.2000463,-0.170186985 46.0693878,4.44613501 50.4960597,8.07324515 L51.0400603,8.44552918 Z" id="path-7"></path>
        <path d="M51.0400603,8.44552918 C55.164804,5.81698335 59.9583336,4.42172518 64.85341,4.42486164 L81.7280966,4.42486164 C85.7195717,4.42113059 89.6568549,5.3462307 93.2267769,7.12658004 C95.8401133,5.08433621 102.762788,-0.127640239 107.018793,0.0744568069 C107.586842,0.098743533 108.099295,0.421815814 108.364919,0.923111452 C108.630542,1.42440709 108.60943,2.02861408 108.309461,2.51025804 L101.44012,13.5936855 C103.772368,16.3656663 105.488366,19.5994929 106.474793,23.08161 L137.952163,125.204438 C139.518936,130.661336 139.279537,136.476558 137.269496,141.787033 L137.354829,141.818943 C142.421502,143.286806 151.946846,146.722455 156.533518,149.849641 C159.317522,151.742971 157.610853,155.795549 154.058849,155.731729 L126.154816,155.199895 C123.989241,156.522463 121.643155,157.525613 119.189474,158.178167 C119.488141,159.592846 120.501476,160.411871 122.186811,160.507601 C124.128147,160.613968 124.714814,162.486025 124.800148,163.219956 C125.045481,165.474934 124.18148,166.910887 121.824144,167.144894 L112.032132,167.463994 C111.217875,167.49313 110.406802,167.348055 109.653463,167.038527 C107.226191,166.030756 105.489421,163.84882 105.056124,161.262806 L104.68279,159.061012 L47.7760565,159.061012 L47.2427225,161.89037 C47.0851461,162.787009 46.7671996,163.648094 46.3040547,164.432539 C44.8747197,166.857703 42.1547165,168.229836 39.3387132,168.059649 L30.3467025,167.527814 C28.0640332,167.357627 26.9440319,165.517481 27.4453658,163.230593 C27.7120328,162.049921 29.0560344,161.071346 30.7093696,160.986252 C33.1947059,160.858612 33.9413735,158.837641 33.8987067,156.348657 L33.8987067,155.997646 C33.3938173,155.735274 32.8995945,155.455175 32.4160383,155.157348 L3.94667133,155.721092 C0.394667134,155.784912 -1.35466827,151.657878 1.47200174,149.839004 C7.23200855,146.126801 17.0880202,142.478417 21.152025,141.510479 L21.2160251,141.489205 C19.766651,137.487873 19.3056357,133.197162 19.8720235,128.980462 L39.3813799,26.7193568 C39.8443031,23.1852669 41.0433037,19.7867813 42.9013841,16.7421447 L36.4480431,5.24388651 C36.1480112,4.70565687 36.1853739,4.04329852 36.5440432,3.54201665 C39.2000463,-0.170186985 46.0693878,4.44613501 50.4960597,8.07324515 L51.0400603,8.44552918 Z" id="path-9"></path>
        <linearGradient x1="102858%" y1="85547%" x2="102858%" y2="225441%" id="linearGradient-11">
            <stop stop-color="#808080" offset="0%"></stop>
            <stop stop-color="#7D7D7D" offset="27%"></stop>
            <stop stop-color="#747474" offset="46%"></stop>
            <stop stop-color="#646464" offset="64%"></stop>
            <stop stop-color="#4D4D4D" offset="80%"></stop>
            <stop stop-color="#303030" offset="95%"></stop>
            <stop stop-color="#242424" offset="100%"></stop>
        </linearGradient>
        <linearGradient x1="197182%" y1="197017%" x2="197182%" y2="230513%" id="linearGradient-12">
            <stop stop-color="#808080" offset="0%"></stop>
            <stop stop-color="#7D7D7D" offset="27%"></stop>
            <stop stop-color="#747474" offset="46%"></stop>
            <stop stop-color="#646464" offset="64%"></stop>
            <stop stop-color="#4D4D4D" offset="80%"></stop>
            <stop stop-color="#303030" offset="95%"></stop>
            <stop stop-color="#242424" offset="100%"></stop>
        </linearGradient>
        <linearGradient x1="49.9410464%" y1="-0.0201141162%" x2="49.9410464%" y2="99.9550303%" id="linearGradient-13">
            <stop stop-color="#808080" offset="0%"></stop>
            <stop stop-color="#797979" offset="14%"></stop>
            <stop stop-color="#646464" offset="35%"></stop>
            <stop stop-color="#434343" offset="60%"></stop>
            <stop stop-color="#141414" offset="89%"></stop>
            <stop stop-color="#FFFFFF" offset="100%"></stop>
        </linearGradient>
        <linearGradient x1="104115%" y1="88873%" x2="117515%" y2="88873%" id="linearGradient-14">
            <stop stop-color="#808080" offset="0%"></stop>
            <stop stop-color="#797979" offset="14%"></stop>
            <stop stop-color="#646464" offset="35%"></stop>
            <stop stop-color="#434343" offset="60%"></stop>
            <stop stop-color="#141414" offset="89%"></stop>
            <stop stop-color="#FFFFFF" offset="100%"></stop>
        </linearGradient>
        <path d="M51.0400603,8.44552918 C55.164804,5.81698335 59.9583336,4.42172518 64.85341,4.42486164 L81.7280966,4.42486164 C85.7195717,4.42113059 89.6568549,5.3462307 93.2267769,7.12658004 C95.8401133,5.08433621 102.762788,-0.127640239 107.018793,0.0744568069 C107.586842,0.098743533 108.099295,0.421815814 108.364919,0.923111452 C108.630542,1.42440709 108.60943,2.02861408 108.309461,2.51025804 L101.44012,13.5936855 C103.772368,16.3656663 105.488366,19.5994929 106.474793,23.08161 L137.952163,125.204438 C139.518936,130.661336 139.279537,136.476558 137.269496,141.787033 L137.354829,141.818943 C142.421502,143.286806 151.946846,146.722455 156.533518,149.849641 C159.317522,151.742971 157.610853,155.795549 154.058849,155.731729 L126.154816,155.199895 C123.989241,156.522463 121.643155,157.525613 119.189474,158.178167 C119.488141,159.592846 120.501476,160.411871 122.186811,160.507601 C124.128147,160.613968 124.714814,162.486025 124.800148,163.219956 C125.045481,165.474934 124.18148,166.910887 121.824144,167.144894 L112.032132,167.463994 C111.217875,167.49313 110.406802,167.348055 109.653463,167.038527 C107.226191,166.030756 105.489421,163.84882 105.056124,161.262806 L104.68279,159.061012 L47.7760565,159.061012 L47.2427225,161.89037 C47.0851461,162.787009 46.7671996,163.648094 46.3040547,164.432539 C44.8747197,166.857703 42.1547165,168.229836 39.3387132,168.059649 L30.3467025,167.527814 C28.0640332,167.357627 26.9440319,165.517481 27.4453658,163.230593 C27.7120328,162.049921 29.0560344,161.071346 30.7093696,160.986252 C33.1947059,160.858612 33.9413735,158.837641 33.8987067,156.348657 L33.8987067,155.997646 C33.3938173,155.735274 32.8995945,155.455175 32.4160383,155.157348 L3.94667133,155.721092 C0.394667134,155.784912 -1.35466827,151.657878 1.47200174,149.839004 C7.23200855,146.126801 17.0880202,142.478417 21.152025,141.510479 L21.2160251,141.489205 C19.766651,137.487873 19.3056357,133.197162 19.8720235,128.980462 L39.3813799,26.7193568 C39.8443031,23.1852669 41.0433037,19.7867813 42.9013841,16.7421447 L36.4480431,5.24388651 C36.1480112,4.70565687 36.1853739,4.04329852 36.5440432,3.54201665 C39.2000463,-0.170186985 46.0693878,4.44613501 50.4960597,8.07324515 L51.0400603,8.44552918 Z" id="path-15"></path>
        <linearGradient x1="50.0007739%" y1="99.999296%" x2="50.0007739%" y2="0.00563181978%" id="linearGradient-17">
            <stop stop-color="#FFFFFF" stop-opacity="0" offset="0%"></stop>
            <stop stop-color="#FFFFFF" offset="72%"></stop>
        </linearGradient>
        <ellipse id="path-18" cx="13.8453497" cy="13.8276926" rx="13.834683" ry="13.7957826"></ellipse>
    </defs>
    <g id="mycat-empty-copy" stroke="none" stroke-width="1" fill="none" fill-rule="evenodd" transform="translate(-259.000000, -195.000000)">
        <g id="134330-copy" transform="translate(259.000000, 195.000000)">
            <mask id="mask-2" fill="white">
                <use xlink:href="#path-1"></use>
            </mask>
            <use id="Mask" fill="#CDF5D4" xlink:href="#path-1"></use>
            <g mask="url(#mask-2)">
                <g transform="translate(8.762346, 37.626543)">
                    <g id="tailFur" stroke-width="1" fill="none" transform="translate(126.613483, 65.415623)">
                        <g id="Clipped">
                            <mask id="mask-4" fill="white">
                                <use xlink:href="#path-3"></use>
                            </mask>
                            <g id="Shape"></g>
                            <polygon id="Shape" fill="#B1B1BE" fill-rule="nonzero" mask="url(#mask-4)" points="98.4427831 89.7629984 -1.70666868 89.7629984 -1.70666868 -4.76523561 103.957456 -4.76523561"></polygon>
                        </g>
                        <g id="tailShadow">
                            <g id="Clipped">
                                <mask id="mask-6" fill="white">
                                    <use xlink:href="#path-5"></use>
                                </mask>
                                <g id="Shape"></g>
                                <g id="Group" mask="url(#mask-6)">
                                    <g transform="translate(-1.813335, -12.657657)" id="Shape">
                                        <polygon fill="none" points="100.074785 104.68627 0.0960001142 102.420656 28.4267003 4.98860603 107.616127 11.370618 100.074785 104.68627"></polygon>
                                        <path d="M11.4560135,84.4446551 C11.4560135,84.4446551 23.4986945,67.851424 26.1226976,68.904456 C15.3706848,81.3919261 23.3280276,88.6674197 28.5760338,90.2097393 C49.8667256,96.4853844 85.2054341,102.016461 99.6054511,72.7017531 L76.2454235,104.547993 L6.96534157,104.228892 L11.4560135,84.4446551 Z" fill="#7F7F7F" fill-rule="nonzero" opacity="0.25" style="mix-blend-mode: multiply;"></path>
                                        <path d="M35.7333756,64.660418 C33.0133724,65.2773458 33.0667058,65.3092559 33.0667058,65.3092559 C33.4507062,65.7028133 36.8640436,76.3607733 47.9040566,77.9562763 C48.1657045,77.9919551 48.4264668,77.8851136 48.5873745,77.676302 C48.7482822,77.4674904 48.7846688,77.1887187 48.6827242,76.945791 C48.4373906,76.3820467 48.2133903,75.5630218 48.0747235,74.3823496 L35.7333756,64.660418 Z M77.4187582,47.6629928 C77.4187582,47.6629928 75.3280891,58.448593 71.8080849,62.3841671 C69.8817847,64.5498035 67.2471466,65.963306 64.3734094,66.3729245 C64.2500323,66.3893044 64.1263463,66.3450379 64.0415721,66.2541619 C63.9567979,66.1632859 63.9214519,66.0370737 63.9467423,65.915547 C64.1920759,64.5327778 63.7120753,62.9053647 63.7120753,62.9053647 C63.7120753,62.9053647 50.7307266,69.7766643 51.584061,75.2013744 C51.584061,75.2013744 49.8773923,67.5535968 58.8054029,62.522444 C67.7334134,57.4912912 66.2400783,55.5766876 66.2400783,55.5766876 L66.0587448,61.3949552 C72.1174186,60.214283 77.4187582,47.6629928 77.4187582,47.6629928 Z" fill="#7F7F7F" fill-rule="nonzero" opacity="0.3" style="mix-blend-mode: multiply;"></path>
                                    </g>
                                </g>
                            </g>
                        </g>
                    </g>
                    <g id="tail" stroke-width="1" fill="none" transform="translate(138.986831, 65.415623)" stroke-linecap="round">
                        <g id="Group" stroke="#31323D" stroke-width="1.63221607">
                            <path d="M83.3280985,32.8248149 C79.9894279,22.3264052 73.6214204,11.8279955 65.3334106,5.58426048 C65.1414104,5.44598355 64.8427433,5.24388651 64.4480762,4.98860603 C47.2427225,-5.74381078 24.4800289,1.60613968 16.7573531,20.3267081 L16.0426856,22.028578 C20.3840241,18.6461117 26.3146978,16.5187743 26.3146978,16.5187743 C26.3146978,16.5187743 24.1920286,19.4119531 22.5706934,21.5818372 C17.5466874,28.2829497 14.2506835,37.4836837 16.8000199,45.9292128 C18.9973558,53.2366166 30.5280361,59.9270924 36.6720434,62.8202712 C37.1093772,63.0330049 37.5787111,62.6500842 37.3760442,62.2139801 C36.3413763,59.9377291 38.048045,55.800058 39.4027133,53.9173645 C41.0987153,51.5453834 43.9040519,50.2796177 46.4640549,48.875575 C49.024058,47.4715324 51.6480611,45.5888389 52.4053953,42.7807536 L51.8720613,48.9181218 C55.9147328,46.9396981 59.2640701,43.6316885 61.3974059,39.6748411 C62.3125588,37.9809317 62.9908569,36.1700652 63.4134083,34.2926777" id="Shape" stroke-linejoin="round"></path>
                            <path d="M0.0640000762,68.7980891 C0.0640000762,68.7980891 9.22667758,55.5873243 22.1653595,53.491897" id="Shape"></path>
                            <path d="M16.0426856,87.4761108 C21.5466921,89.1247972 28.5333671,90.3054694 37.2800441,90.3054694 C63.1467413,90.3054694 81.3440962,73.3931377 85.1841007,55.2150403 C85.4827677,53.7897243 85.7921014,52.3644083 86.1227685,50.9497289 C87.3494366,45.6632957 89.8134395,32.516351 86.1654352,24.7834798 C86.1654352,24.7834798 85.6534346,28.5488669 82.1227638,35.1861594" id="Shape" stroke-linejoin="round"></path>
                        </g>
                    </g>
                    <g id="bodyFur" stroke-width="1" fill="none" transform="translate(0.000000, -0.000000)">
                        <g id="Clipped">
                            <mask id="mask-8" fill="white">
                                <use xlink:href="#path-7"></use>
                            </mask>
                            <g id="Shape"></g>
                            <g id="Group" mask="url(#mask-8)" fill-rule="nonzero">
                                <g transform="translate(-0.960001, -23.507077)" id="Shape">
                                    <polygon fill="#B1B1BE" points="0.0106666794 0.0531834335 162.197525 0.0531834335 162.197525 199.469784 0.0106666794 199.469784"></polygon>
                                    <path d="M48.8000577,183.876402 C48.2027237,182.323445 49.1413914,177.834764 51.0080603,168.8574 C52.1280616,163.485873 53.013396,159.986404 53.5680633,157.688879 C57.7067349,140.468084 55.2853987,138.58539 58.901403,128.331624 C61.3654059,121.322048 63.9254089,114.376291 70.741417,111.100192 C71.5520846,110.706634 77.7707586,107.834729 84.0747661,110.355624 C90.3787735,112.876518 92.7361096,118.928793 95.3067794,125.449082 C98.410783,133.330867 97.4401152,136.053859 100.960119,155.795549 C101.69612,159.90131 102.421454,164.007071 103.157455,168.112832 C103.594789,170.52736 104.01079,172.931251 104.437457,175.345779 C105.440125,181.004496 105.461458,181.100226 105.440125,181.323597 C104.405457,189.673396 53.5360633,196.278778 48.8000577,183.876402 Z" fill="#8BE179"></path>
                                </g>
                            </g>
                        </g>
                    </g>
                    <g id="shadow" stroke-width="1" fill="none" transform="translate(0.000000, -0.000000)">
                        <g id="Clipped">
                            <mask id="mask-10" fill="white">
                                <use xlink:href="#path-9"></use>
                            </mask>
                            <g id="Shape"></g>
                            <g id="Group" style="mix-blend-mode: multiply;" mask="url(#mask-10)" fill-rule="nonzero">
                                <g transform="translate(9.706678, 0.744568)" id="Shape">
                                    <path d="M43.6480516,6.54156227 C36.6080433,13.5617754 35.818709,19.7523271 32.8000388,32.9205451 C27.605366,55.6936912 21.3333586,104.388443 19.3280229,120.503023 C18.8967148,123.976219 18.6545813,127.470181 18.6026887,130.969522 L18.6026887,131.33117 C21.1093583,134.096708 23.680028,140.776547 24.213362,150.136832 L24.3520288,155.348808 C24.3520288,155.348808 21.0133582,155.263715 15.7120186,155.263715 C9.09867742,155.263715 3.89333794,143.382536 7.26400859,125.672452 C10.2933455,109.770606 0.0106666794,28.2935864 0.0106666794,28.2935864 L30.1013689,23.5815342 C30.1013689,23.5815342 31.8080376,12.7108405 43.6480516,6.54156227 Z" fill="url(#linearGradient-11)" opacity="0.2"></path>
                                    <path d="M109.898797,145.020585 C109.898797,145.020585 113.088134,135.298654 116.970805,131.735364 C112.768133,139.712879 118.474807,141.595572 119.968142,141.063738 C125.696149,139.021494 127.968151,133.969068 128.416152,125.108708 L135.381493,137.479175 C135.381493,137.479175 129.51482,164.709092 113.621468,160.241684 L109.493463,158.316444 L109.898797,145.020585 Z" fill="url(#linearGradient-12)" opacity="0.2"></path>
                                    <path d="M102.101454,0.585017765 C102.101454,0.585017765 98.0481159,-2.18052076 91.2214412,4.99924271 L87.6267703,9.3071008 L93.6107773,14.2531601 L102.101454,0.585017765 Z" fill="url(#linearGradient-13)" opacity="0.4" style="mix-blend-mode: multiply;"></path>
                                    <path d="M23.1680274,4.83969241 C23.1680274,4.83969241 26.1013642,2.82935864 30.8053698,4.75459892 C32.7750444,5.57217935 34.5144238,6.8575267 35.8720424,8.49871261 L37.4613776,10.4026795 L33.4400395,16.2422205 L23.1680274,4.83969241 Z" fill="url(#linearGradient-14)" opacity="0.4" style="mix-blend-mode: multiply;"></path>
                                </g>
                            </g>
                        </g>
                    </g>
                    <g id="highlight" stroke-width="1" fill="none" transform="translate(0.000000, -0.000000)">
                        <g id="Clipped">
                            <mask id="mask-16" fill="white">
                                <use xlink:href="#path-15"></use>
                            </mask>
                            <g id="Shape"></g>
                            <g id="Group" opacity="0.2" style="mix-blend-mode: overlay;" mask="url(#mask-16)" fill="url(#linearGradient-17)" fill-rule="nonzero">
                                <g transform="translate(86.826769, 5.105610)" id="Shape">
                                    <path d="M0.0853334349,0.170186987 C0.0853334349,0.170186987 3.17867043,3.73347701 5.52533987,7.06275992 C7.87200931,10.3920428 10.2293454,16.2422205 12.5226815,26.3151627 C18.8053556,53.832271 36.9920437,98.9850057 41.9093829,120.76894 C46.826722,142.552874 36.4480431,151.189864 36.4480431,151.189864 L42.9653841,147.41384 C42.9653841,147.41384 49.6853921,139.457598 50.6987266,135.968765 C52.9173959,128.320987 65.5254108,132.458659 63.2000747,120.258379 C59.8187374,102.548296 30.5920362,17.0293353 30.5920362,17.0293353 C30.5920362,17.0293353 17.4293539,13.848966 14.4640171,8.59444279 C12.2560145,4.68014212 6.65600787,1.71250655 1.22666812,0.0957301804 L0.0853334349,0.170186987 Z"></path>
                                </g>
                            </g>
                        </g>
                    </g>
                    <polygon id="Rectangle" fill="#31323D" points="37.4891045 37.4664978 67.2236408 3.95219785 83 4 34 56"></polygon>
                    <g id="body" stroke-width="1" fill="none" transform="translate(0.000000, -0.000000)" stroke-linecap="round">
                        <path d="M104.693457,159.061012 L47.7760565,159.061012 M33.8880401,156.008283 C24.3733622,150.998403 18.3466884,140.457447 19.8613568,128.980462 L39.3707132,26.7193568 C41.0560485,13.9659695 51.9573948,4.42486164 64.85341,4.42486164 L81.7280966,4.42486164 C93.2267769,4.42486164 103.328122,12.0407293 106.464126,23.08161 L137.941496,125.204438 C142.101501,139.872429 133.120157,154.455326 119.189474,158.16753" id="Shape" stroke="#31323D" stroke-width="1.63221607"></path>
                        <path d="M50.4747263,8.07324515 C46.0480544,4.44613501 39.178713,-0.170186985 36.5227099,3.54201665 C36.1600428,4.04194092 36.1280427,4.70141549 36.4267097,5.24388651 L42.8800507,16.7421447 M93.2267769,7.12658004 C95.8401133,5.08433621 102.762788,-0.127640239 107.018793,0.0744568069 C107.904128,0.117003553 108.586795,0.861571617 108.544128,1.73377992 C108.533462,2.01033377 108.448128,2.27625094 108.309461,2.51025804 L101.44012,13.5936855 M21.152025,141.510479 C17.0880202,142.478417 7.24267523,146.126801 1.47200174,149.839004 C-1.35466827,151.657878 0.394667134,155.784912 3.94667133,155.721092 L33.85604,155.136074" id="Shape" stroke="#31323D" stroke-width="1.63221607"></path>
                    </g>
                    <g id="eye" stroke-width="1" fill="none" transform="translate(88.786704, 21.379740)">
                        <ellipse id="Oval" fill="#FFFFFF" fill-rule="nonzero" cx="14.6587514" cy="13.8276926" rx="13.834683" ry="13.7957826"></ellipse>
                        <g id="Clipped" transform="translate(0.813402, 0.000000)">
                            <mask id="mask-19" fill="white">
                                <use xlink:href="#path-18"></use>
                            </mask>
                            <g id="Oval"></g>
                            <g id="Group" mask="url(#mask-19)" fill-rule="nonzero">
                                <g transform="translate(0.000000, 2.127337)" id="Oval">
                                    <ellipse fill="#43EDAC" cx="10.7520127" cy="12.4981068" rx="10.677346" ry="10.6473233"></ellipse>
                                    <ellipse fill="#31323D" cx="10.4320123" cy="12.7002038" rx="8.8533438" ry="8.8284499"></ellipse>
                                    <ellipse fill="#FFFFFF" transform="translate(14.621639, 5.280455) rotate(-7.499000) translate(-14.621639, -5.280455) " cx="14.6216391" cy="5.28045506" rx="4.71467224" ry="4.70141549"></ellipse>
                                </g>
                            </g>
                        </g>
                        <ellipse id="Oval" stroke="#31323D" stroke-width="1.63221607" stroke-linecap="round" cx="14.6587514" cy="13.8276926" rx="13.834683" ry="13.7957826"></ellipse>
                    </g>
                    <g id="mouth" stroke-width="1" fill="none" transform="translate(31.893371, 42.546747)">
                        <path d="M29.8773687,28.3893166 C28.768034,28.272313 25.1946965,32.1334303 26.7306983,35.4946233 C26.9760319,36.0264576 27.4986992,36.1221878 27.8933663,35.707357 C29.066701,34.4947747 30.2080357,34.3458611 30.2080357,34.3458611 C29.3440347,34.3884079 26.7520316,40.0471251 32.5973719,44.6421738 C32.7856658,44.789616 33.0354872,44.833247 33.262824,44.758394 C33.4901608,44.6835411 33.6648103,44.5001487 33.7280399,44.2698897 C33.9045019,43.68213 34.1441141,43.1150968 34.4427074,42.5786566 C34.4866465,42.5173802 34.5657548,42.4921986 34.6371705,42.5167554 C34.7085861,42.5413123 34.7553159,42.6097643 34.7520411,42.6850234 C34.4640407,44.42944 34.4853741,48.0459135 38.9013793,50.0456106 C41.7493827,51.3326497 41.4613824,54.8321196 40.906715,57.1296439 C40.8351804,57.4258202 40.9603504,57.7345869 41.218192,57.897988 C41.4760336,58.0613892 41.8095201,58.0432857 42.0480497,57.8529386 C46.3467215,54.4172888 56.5974003,45.4080152 53.5040633,39.7173879 C53.5040633,39.7173879 56.3413999,41.4511678 57.3440678,44.1954329 C57.4544245,44.5036366 57.7361574,44.7183546 58.0633609,44.7436301 C58.3905644,44.7689056 58.7020972,44.6000156 58.8587363,44.3124365 C60.5867383,41.0788837 63.2427414,34.4735014 59.6374038,29.3572551" id="Shape" fill="#595959" fill-rule="nonzero" opacity="0.2"></path>
                        <path d="M29.6640351,27.2192811 C29.6640351,27.2192811 27.669366,29.1019746 28.5227004,32.2823439 C29.9627021,29.6550823 33.0027057,29.3572551 33.0027057,29.3572551 C33.0027057,29.3572551 28.3200335,36.4519251 33.0987058,41.2703441 C32.6507053,38.5367156 36.085376,36.5051085 36.085376,36.5051085 C36.085376,36.5051085 34.656041,43.4827749 40.6187147,46.1844933 C45.0027199,48.1735537 42.3147167,54.0769148 42.3147167,54.0769148 C42.3147167,54.0769148 58.1440687,43.2594045 54.2613975,36.1115511 C54.2613975,36.1115511 59.1360699,37.3560434 58.9867364,41.2703441 C58.9867364,41.2703441 65.3547439,32.7822682 60.3840714,25.7407816" id="Shape" fill="#B1B1BE" fill-rule="nonzero"></path>
                        <path d="M44.1707189,7.52013744 L44.2240523,7.81796467 C44.2560523,8.00942503 44.3093857,8.29661557 44.3733858,8.65826291 C44.4373859,9.01991026 44.5227193,9.43474104 44.6293861,9.93466531 C44.7360529,10.4345896 44.864053,10.9770606 45.0240532,11.572715 C45.1093867,11.8705423 45.1840534,12.1790062 45.2800535,12.4981068 L45.4187204,12.9873944 L45.5787206,13.4873186 C45.6853873,13.8276926 45.8133875,14.1680666 45.930721,14.5084406 C46.0480544,14.8488145 46.197388,15.2104619 46.3573881,15.5614725 C46.6650272,16.2847545 47.0177156,16.9881481 47.4133894,17.6675365 C47.8187358,18.3641243 48.2864184,19.022735 48.8107244,19.6353235 C49.331036,20.2426607 49.9259339,20.7822811 50.5813931,21.2414632 C50.9015918,21.4626004 51.2365978,21.6616172 51.584061,21.8371176 C52.584285,22.328822 53.6798936,22.5974169 54.7947315,22.6242325 C55.1363984,22.634395 55.4783688,22.6237384 55.8187327,22.5923224 C56.1371971,22.5663498 56.4540768,22.5237446 56.7680671,22.4646822 C57.3224778,22.3612623 57.8680882,22.215464 58.400069,22.028578 C58.8106689,21.8839278 59.2130456,21.7170381 59.6054038,21.5286537 C59.9360709,21.3691034 60.1814045,21.2308265 60.3520714,21.1350963 L60.5440716,21.0180928 L60.6080717,20.975546 L60.6187383,20.975546 C60.6663738,20.943245 60.7276718,20.9387394 60.7795419,20.9637264 C60.831412,20.9887134 60.865974,21.0393969 60.8702087,21.096685 C60.8744434,21.153973 60.8477074,21.2091622 60.8000719,21.2414632 L60.7360718,21.2840099 L60.5440716,21.4116502 C60.3734047,21.518017 60.1280711,21.6775673 59.797404,21.8477543 C59.3993438,22.0614162 58.9898404,22.2531641 58.5707359,22.4221354 C58.0269653,22.6418362 57.4671013,22.8196354 56.8960673,22.9539697 C56.5687734,23.0313812 56.2376577,23.0917375 55.9040661,23.1347934 C55.5434612,23.1850982 55.1801251,23.213515 54.8160648,23.2198869 C54.4313084,23.2275116 54.0464676,23.209745 53.6640635,23.1667035 C52.8434179,23.0748982 52.0414403,22.8597262 51.285394,22.5285023 C50.8913646,22.3529313 50.5100066,22.1503493 50.1440593,21.9222111 C49.4044643,21.4520991 48.7271415,20.8910373 48.1280569,20.2522513 C47.5341719,19.6209101 46.998664,18.9373873 46.528055,18.2100075 C46.0739076,17.509422 45.664216,16.7811556 45.3013869,16.0294867 C45.1200533,15.6678394 44.9600532,15.3061921 44.8107196,14.9445447 C44.6613861,14.5828974 44.5120526,14.2318867 44.3840525,13.8915127 L44.1920523,13.3809518 L44.0213854,12.8810275 C43.9040519,12.5512902 43.8080518,12.2321896 43.7120517,11.9343624 C43.5200515,11.3174346 43.3600513,10.7536902 43.2213844,10.2537659 C43.0827176,9.75384164 42.9867175,9.3071008 42.8907174,8.94545345 C42.7947173,8.58380611 42.7413839,8.30725225 42.6987172,8.11579189 L42.6347171,7.81796467 C42.5502021,7.53275512 42.6318012,7.22434426 42.8464151,7.01783352 C43.061029,6.81132279 43.3730224,6.74100201 43.6558407,6.83539558 C43.938659,6.92978915 44.145342,7.17322359 44.1920523,7.46695401 L44.1920523,7.50950076 L44.1707189,7.52013744 Z" id="Shape" fill="#31323D" fill-rule="nonzero"></path>
                        <path d="M29.1307011,21.1882798 L29.3760347,21.31592 C29.5467016,21.4010135 29.7920352,21.518017 30.1120356,21.6350206 C30.4987033,21.7890239 30.8940403,21.9204324 31.296037,22.028578 C31.8167396,22.1688578 32.3484162,22.264931 32.8853722,22.3157685 C33.1903819,22.3423693 33.4965795,22.3530206 33.8027066,22.3476786 C34.1277427,22.3398314 34.451951,22.3114097 34.7733744,22.2625851 C35.4568787,22.1587086 36.119412,21.9468632 36.7360434,21.6350206 C37.0600645,21.468231 37.3703637,21.2761731 37.6640445,21.0606395 C37.9621954,20.8364329 38.2438094,20.5911578 38.5067122,20.3267081 C39.0400163,19.7777264 39.5055466,19.1670968 39.8933805,18.5078347 C40.2839202,17.8412611 40.6192559,17.1440167 40.8960484,16.4230441 C41.1683498,15.7207135 41.3998448,15.0033211 41.5893825,14.2744335 C41.7707161,13.5617754 41.9307162,12.8703908 42.0480497,12.2002796 C42.1653832,11.5301683 42.2613833,10.9026038 42.3360501,10.3069493 C42.3680501,10.0091221 42.4000501,9.73256826 42.4320502,9.45601441 C42.4640502,9.17946056 42.4853836,8.93481677 42.5067169,8.69017297 C42.5280503,8.44552918 42.5493836,8.22215876 42.5600503,8.02006172 L42.602717,7.44568064 L42.6560504,6.3607386 C42.6712937,6.07572941 42.8378585,5.8204794 43.0930013,5.6911388 C43.3481442,5.56179821 43.6531029,5.57801694 43.8930024,5.73368556 C44.1329019,5.88935417 44.2712957,6.16082291 44.2560523,6.44583209 L44.2560523,6.48837884 L44.1387189,7.60523094 L44.0640521,8.1902487 C44.0427187,8.40298243 44.0107187,8.63698954 43.9787187,8.88163333 C43.9467186,9.12627712 43.9147186,9.39219429 43.8613852,9.66874814 C43.8080518,9.94530199 43.7760518,10.2324925 43.7227184,10.5409564 C43.6160516,11.1472476 43.4880514,11.7960855 43.3280512,12.4874701 C43.168051,13.1788547 42.9760508,13.8915127 42.7413839,14.6360808 C42.5037414,15.396167 42.2223861,16.1419705 41.8987162,16.869785 C41.5642613,17.6275676 41.1682768,18.3568339 40.7147148,19.0503057 C40.2530295,19.750891 39.7086919,20.3936888 39.0933796,20.9649093 C38.7886718,21.2430858 38.4642775,21.4990278 38.1227117,21.7307508 C37.7866841,21.9531408 37.4335886,22.1487533 37.0667105,22.3157685 C36.3700927,22.6259688 35.6283407,22.8234526 34.8693746,22.9007863 C34.5221801,22.9369634 34.1730362,22.9511741 33.82404,22.9433331 C33.4992177,22.9318611 33.1752194,22.9034578 32.8533722,22.8582396 C32.2960107,22.7767907 31.7465143,22.6486981 31.2107036,22.4753188 C30.8001712,22.3427339 30.3977142,22.1864656 30.0053688,22.0073046 C29.6747018,21.858391 29.4293681,21.7307508 29.2587013,21.6350206 L29.002701,21.486107 C28.9493492,21.4633062 28.9122486,21.4138547 28.9053744,21.3563803 C28.8985002,21.2989059 28.9228969,21.2421404 28.9693745,21.2074667 C29.015852,21.1727931 29.0773494,21.165479 29.1307011,21.1882798 Z" id="Shape" fill="#31323D" fill-rule="nonzero"></path>
                        <path d="M36.3947097,4.08448766 C36.1775165,3.49452799 36.3278586,2.83238407 36.7787102,2.39325449 C37.7387113,1.45722607 39.7867137,0.0957301802 43.5840515,0.0744568069 C47.3813894,0.0531834337 49.1840582,1.37213258 50.0373925,2.308161 C50.459106,2.77569263 50.5637379,3.44762722 50.3040595,4.02066754 C49.9577915,4.79309439 49.2000691,5.30095125 48.3520572,5.32898 C47.2853892,5.36089006 45.8027208,5.67999066 44.864053,7.00957649 C44.8053427,7.0947812 44.737375,7.17325931 44.6613861,7.24358359 L44.6293861,7.27549365 C44.2531063,7.61725005 43.7543941,7.79303749 43.2463231,7.7629994 C42.7382521,7.73296132 42.2638635,7.49964237 41.9307162,7.11594335 C41.9307162,7.11594335 41.1520487,5.78635752 38.2933786,5.56298711 C37.4375436,5.49123156 36.7010887,4.93110804 36.4053764,4.12703441 L36.4053764,4.09512435 L36.3947097,4.08448766 Z M51.2320606,12.7321139 L51.6587277,12.6470204 L52.8747292,12.42365 C53.9307304,12.2428263 55.4347322,12.0194559 57.2480677,11.8492689 C59.3149019,11.6535243 61.3907665,11.5683088 63.4667417,11.5939884 C64.6080764,11.6046251 65.7814111,11.6578085 66.9760792,11.7535387 C68.1707473,11.8492689 69.376082,11.9981825 70.5707501,12.2002796 C71.7654182,12.4023766 72.9600863,12.6470204 74.1120876,12.9554843 C75.2439796,13.2561695 76.3585341,13.6183577 77.4507582,14.0404263 C78.4690275,14.4388788 79.4627648,14.8970568 80.4267618,15.4125589 C81.2901505,15.8743475 82.1237742,16.3894567 82.9227647,16.9548785 C83.5952973,17.4318396 84.2399074,17.9467879 84.8534337,18.497198 L85.2481008,18.8588454 L85.6001012,19.1992194 L85.9201016,19.51832 L86.2081019,19.8267839 C86.3894355,20.0182442 86.538769,20.1990679 86.6774358,20.3479815 L87.0081029,20.7415389 L87.2854365,21.0819129 L86.9974362,20.7521756 L86.6561025,20.3692549 C86.5174356,20.2203413 86.3574354,20.0395176 86.1761019,19.8586939 L85.8881016,19.5608667 L85.5574345,19.2417661 L85.1947674,18.9120288 L84.7894336,18.5610182 C84.1640502,18.0312283 83.5087544,17.537587 82.8267646,17.0825187 C82.0226362,16.5417198 81.1854532,16.0514798 80.320095,15.614656 C79.3541626,15.1311264 78.3604307,14.7049166 77.3440914,14.3382536 C76.2534832,13.9517848 75.1424883,13.6251049 74.0160875,13.3596784 C72.8640862,13.0831245 71.6907514,12.8703908 70.4960834,12.7108405 C69.3014153,12.5512902 68.1174139,12.4342867 66.9334125,12.3704665 C65.7494111,12.3066464 64.5974097,12.2853731 63.4667417,12.3066464 C61.4196964,12.3393578 59.3758774,12.4813838 57.3440678,12.7321139 C55.5627324,12.9448476 54.0907306,13.2107648 53.0667294,13.4128618 L51.882728,13.6681423 L51.4667275,13.7638725 C51.2757989,13.8252037 51.0665073,13.7745204 50.9250536,13.6326973 C50.7835999,13.4908743 50.7339095,13.2818994 50.7964482,13.091843 C50.8589869,12.9017867 51.0231772,12.7627948 51.2213939,12.7321139 L51.2320606,12.7321139 Z M69.674749,7.48822738 L68.9707482,7.52013744 L68.1600806,7.56268419 L67.1040793,7.637141 L65.8560779,7.74350786 L64.4694096,7.90305816 C63.989409,7.96687828 63.4987417,8.0306984 62.9974078,8.1157919 L62.2400736,8.23279545 L61.4827394,8.37107237 L60.7254051,8.51998599 L59.9787376,8.6688996 L59.2427367,8.8284499 L58.5280692,8.99863689 L57.8454017,9.16882387 L57.1947343,9.33901086 L56.0000662,9.66874814 L54.9973984,9.96657537 L54.2293975,10.2112192 L53.5680633,10.4345896 L53.5573967,10.4345896 C53.3763819,10.4953916 53.1765884,10.4552762 53.0332764,10.3293546 C52.8899645,10.2034329 52.8249067,10.0108355 52.8626095,9.82411191 C52.9003124,9.6373883 53.0350481,9.48490628 53.2160629,9.42410435 L53.248063,9.42410435 L53.9413971,9.24328068 L54.7413981,9.04118363 L55.7760659,8.79653984 L57.0134007,8.53062267 L57.6854015,8.40298243 L58.3894024,8.27534219 L59.1254032,8.14770196 L59.8720708,8.0306984 L60.6400717,7.92433154 L61.4080726,7.82860136 L62.1760735,7.74350786 L62.9440744,7.66905106 C63.456075,7.61586762 63.957409,7.59459425 64.4374095,7.5520475 L65.8347445,7.48822738 L67.082746,7.45631732 L68.9600815,7.45631732 L69.674749,7.48822738 Z M52.714729,15.1891885 L53.5360633,15.0615483 L53.9947305,15.0190015 L54.5387312,14.9764548 C54.9227316,14.9764548 55.3600655,14.9551814 55.8293993,15.0083648 L56.1920664,15.0296382 L56.5654002,15.0828216 L56.9494007,15.1360051 L57.3440678,15.2104619 L57.7494016,15.2849187 L58.1547354,15.3806489 L58.5707359,15.4870157 L58.9867364,15.614656 L59.4027369,15.7529329 L59.8187374,15.9124832 L60.2347379,16.0826702 L60.6507384,16.2634939 L60.864072,16.359224 L61.0667389,16.4655909 L61.4827394,16.6676879 L62.293407,17.1144288 C62.8160743,17.4335294 63.3387416,17.75263 63.8294088,18.1036406 C64.3200761,18.4546513 64.7894099,18.8162986 65.2267438,19.177946 C65.6640776,19.5395933 66.0800781,19.9118774 66.4640786,20.262888 C66.848079,20.6138987 67.1894128,20.975546 67.5094132,21.2946466 C67.8294135,21.6137472 68.1067472,21.9328478 68.3414141,22.2094017 C68.5760811,22.4859555 68.7894147,22.7305993 68.9600815,22.9433331 C69.2907486,23.3581638 69.4720821,23.6028076 69.4720821,23.6028076 C69.4720821,23.6028076 69.2800819,23.3688005 68.9280815,22.9752431 C68.746748,22.7837828 68.5334144,22.539139 68.2774141,22.2838585 C68.0214138,22.028578 67.7227467,21.7307508 67.3920797,21.4222869 C67.0614126,21.113823 66.6987455,20.7840857 66.3040784,20.4543484 C65.9094113,20.1246111 65.4827441,19.7842371 65.0240769,19.4438632 C64.5654097,19.1034892 64.0960758,18.7737519 63.5947419,18.465288 C63.0934079,18.1568241 62.5707406,17.8589968 62.0480734,17.582443 L61.2374057,17.1995223 L60.8320719,17.0186986 L60.629405,16.9336051 L60.4267381,16.8591483 L60.0214043,16.7102347 L59.6160705,16.5719578 L59.2107367,16.4443175 L58.8054029,16.3379507 L58.4107357,16.2315838 L58.0160686,16.1464903 L57.6320681,16.0720335 L57.2480677,16.0188501 L56.8747339,15.9763033 L56.5120668,15.9443933 L56.1600664,15.9124832 L55.8293993,15.9124832 C55.3920655,15.8912098 54.9973984,15.9337566 54.6347313,15.9550299 L54.1547307,16.0188501 L53.7493969,16.0720335 L52.9387293,16.2422205 C52.7519982,16.2802217 52.5591211,16.2159966 52.4327527,16.0737381 C52.3063844,15.9314796 52.2657232,15.7328001 52.3260859,15.5525404 C52.3864486,15.3722807 52.5386646,15.2378264 52.7253957,15.1998252 L52.7573957,15.1998252 L52.714729,15.1891885 Z M36.4373764,14.5297139 L34.7840411,14.2106133 C33.7387066,14.0085163 32.2453715,13.7106891 30.4427027,13.4234985 C29.5467016,13.2745849 28.5653671,13.136308 27.5306992,12.9980311 C26.4960313,12.8597541 25.3973634,12.7533873 24.2666954,12.6576571 C23.1360274,12.5619269 21.9626926,12.5087435 20.7680246,12.4874701 C19.5733565,12.4661967 18.357355,12.4981068 17.1520203,12.5725636 C15.9475382,12.6501943 14.7477757,12.7886488 13.5573494,12.9873944 C12.970682,13.0831245 12.3840146,13.2001281 11.8186806,13.3277683 C11.2533466,13.4554086 10.6880126,13.6043222 10.144012,13.7745092 C8.15193169,14.3520745 6.2547231,15.2156003 4.51200534,16.3379507 C3.81599747,16.7905462 3.15300505,17.291724 2.52800299,17.8377235 C2.38933616,17.954727 2.26133601,18.0823673 2.13333586,18.1993708 L1.77066876,18.5397448 L1.4400017,18.8694821 L1.15200136,19.177946 C0.970667815,19.3694063 0.821334305,19.55023 0.682667474,19.7097803 L0.501333927,19.9331507 L0.352000417,20.1246111 L0.0853334349,20.4649851 L0.352000417,20.1139744 L0.490667247,19.922514 L0.672000795,19.6991436 C0.800000947,19.5395933 0.949334456,19.348133 1.130668,19.1566726 L1.40800167,18.837572 L1.72800204,18.497198 L2.08000246,18.1355507 C2.20800261,18.0185471 2.32533608,17.8802702 2.47466959,17.7632667 C3.08759196,17.1968713 3.73988384,16.6743724 4.4266719,16.1996737 C6.15987754,15.0134999 8.05713778,14.0854531 10.0586786,13.4447719 C10.6026792,13.2639482 11.1680132,13.1043979 11.7440139,12.9554843 C12.3200146,12.8065707 12.9066819,12.6682938 13.4933493,12.5619269 C14.6926423,12.3272617 15.9030826,12.1533064 17.1200202,12.0407293 C18.3466884,11.9237257 19.5733565,11.8705423 20.7786912,11.8492689 C21.984026,11.8279955 23.1786941,11.8599056 24.3306954,11.9237257 C25.4826968,11.9875458 26.5920314,12.0726393 27.637366,12.1790062 C28.6827006,12.2853731 29.6747018,12.4023766 30.5920362,12.5300168 C32.4160383,12.7746606 33.9200401,13.0299411 34.9760414,13.2107648 L36.6293766,13.4873186 C36.8180131,13.5196197 36.9750394,13.6498204 37.0413053,13.8288756 C37.1075711,14.0079307 37.0730091,14.2086375 36.9506385,14.3553916 C36.8282678,14.5021457 36.6366796,14.5726517 36.4480431,14.5403506 L36.4373764,14.5403506 L36.4373764,14.5297139 Z M17.3120205,9.13691381 L18.0480213,9.07309369 L18.890689,9.00927357 L19.989357,8.94545345 L21.2906918,8.90290671 L24.2986954,8.90290671 L25.0986963,8.93481677 L25.909364,8.9880002 L26.7200316,9.05182032 L27.5200325,9.11564044 L28.3093668,9.19009724 L29.0773677,9.27519074 L29.4507015,9.31773748 L29.8133686,9.37092092 L30.5173694,9.4666511 L31.8080376,9.67938483 L32.8960389,9.88148188 L33.7280399,10.0516689 L34.4533741,10.2112192 C34.7420352,10.2729012 34.9258972,10.5562525 34.8640412,10.844102 C34.8021853,11.1319515 34.518035,11.3152965 34.2293738,11.2536144 L34.1867071,11.2536144 L33.4827063,11.0515174 L32.6720386,10.8387837 L31.6160374,10.5728665 L30.3573692,10.285676 L29.6640351,10.147399 L29.3120347,10.0729422 L28.9493676,10.0091221 L28.2027,9.87084519 L27.4346991,9.74320495 L26.6453648,9.6262014 L25.8560306,9.51983453 L25.0666963,9.42410435 L24.277362,9.33901086 L23.8826949,9.29646411 L23.4986945,9.26455405 L22.7413602,9.20073393 L21.3013585,9.11564044 L20.0000236,9.07309369 L17.3226871,9.07309369 L17.3120205,9.13691381 Z M35.0827081,17.0612453 L34.2720405,16.8591483 L33.8667067,16.7953282 L33.6427064,16.7634181 L33.525373,16.7421447 L33.3867061,16.7421447 L32.8213721,16.699598 L31.861371,16.699598 L31.5093706,16.7315081 C31.2747036,16.7421447 31.02937,16.7953282 30.7840364,16.8272382 C30.5387028,16.8591483 30.2827025,16.9336051 30.0267022,16.9867885 L29.8347019,17.0293353 L29.6427017,17.0825187 L29.2480346,17.1995223 L28.8533674,17.3377992 L28.4480336,17.4867128 L27.6480327,17.8270868 C27.1076941,18.0799785 26.5807736,18.3604493 26.0693642,18.667385 L25.6853637,18.9013921 L25.3120299,19.1460359 C25.0560296,19.3055862 24.8213627,19.4864099 24.5760291,19.6565969 L23.8720282,20.1884312 C23.648028,20.3692549 23.413361,20.5500786 23.2000274,20.7309022 L22.8800271,21.0074561 L22.5706934,21.2840099 L21.984026,21.826481 L21.4400254,22.3583153 L20.9386914,22.8688762 C20.618691,23.1986135 20.3413574,23.5070774 20.0960238,23.7836313 L19.4773564,24.5175627 C19.1360226,24.9323934 18.9546891,25.1770372 18.9546891,25.1770372 C18.9546891,25.1770372 19.1253559,24.9217568 19.4346896,24.4962893 C19.5946898,24.2835556 19.7866901,24.0176384 20.021357,23.7304479 C20.256024,23.4432573 20.5120243,23.11352 20.8106913,22.7625094 L21.2800252,22.2200384 L21.8026924,21.656294 L22.3680264,21.0819129 L22.6666935,20.7840857 L22.9760272,20.4862584 C23.1786941,20.2841614 23.4026943,20.092701 23.6266946,19.9012407 L24.3093621,19.3268596 C24.544029,19.1460359 24.778696,18.9439389 25.0346963,18.7631152 L25.40803,18.4865614 L25.7920305,18.2206442 C26.3014466,17.8747652 26.8283654,17.5552425 27.370699,17.2633424 L28.1920333,16.8591483 L28.6080338,16.6783246 L29.0240343,16.5081376 L29.4400348,16.359224 L29.6427017,16.2847672 L29.8453686,16.2209471 C30.1227023,16.1464903 30.3787026,16.0507601 30.6453696,16.0082134 C30.9120365,15.9656666 31.1680369,15.8805731 31.4240372,15.8592998 L31.7973709,15.8061163 L31.9787045,15.784843 L32.160038,15.784843 L32.8427055,15.7422962 L33.7493732,15.7422962 L34.0160402,15.7742063 L34.4960408,15.8273897 L35.3173751,15.9763033 C35.5845982,16.0490781 35.751466,16.3137394 35.7014238,16.5854253 C35.6513816,16.8571111 35.4010904,17.0453668 35.1253749,17.0186986 L35.0933748,17.0186986 L35.0827081,17.0612453 Z M29.8133686,27.3681947 L29.6213684,27.6128385 L29.4400348,27.8787556 L29.2800346,28.1553095 C29.2373679,28.2510397 29.1840345,28.3467699 29.1413678,28.4425 C29.0987011,28.5382302 29.0560344,28.6339604 29.0240343,28.7403273 C28.9920343,28.8466941 28.9493676,28.9424243 28.9280342,29.0381545 L28.8533674,29.3466184 L28.8000341,29.6550823 C28.7837204,29.7572429 28.7730377,29.8602189 28.768034,29.9635462 C28.7545733,30.0658327 28.7474487,30.1688494 28.7467007,30.2720101 L28.7467007,30.580474 C28.7467007,30.6868409 28.768034,30.7932078 28.7787007,30.888938 C28.7856752,30.9926273 28.7999324,31.0957014 28.8213674,31.1974019 L28.8747008,31.5058658 L28.8747008,31.5803226 L28.8960342,31.6547794 L28.9387009,31.803693 L29.0240343,32.1015202 L28.0426998,31.9845167 L28.2453667,31.6547794 L28.3413668,31.4952291 L28.4587003,31.3463155 L28.6933673,31.0484883 L28.9493676,30.7719344 L29.0773677,30.6336575 L29.2160345,30.5060172 L29.5040349,30.2507368 L29.8027019,30.0273663 C29.898702,29.9529095 30.0160355,29.8890894 30.1120356,29.8146326 L30.2720358,29.7082657 L30.432036,29.6125356 L30.762703,29.4423486 L31.1040368,29.2827983 L31.4560372,29.1445214 L31.8080376,29.0275178 L32.1707047,28.9317876 L32.5333718,28.8466941 L32.725372,28.8147841 L32.9280389,28.8147841 C33.1323495,28.7939596 33.3304995,28.8919691 33.4375002,29.0667753 C33.5445009,29.2415815 33.5413399,29.4621236 33.4293729,29.6338089 L33.2373726,29.9529095 L33.0453724,30.2932835 C32.9244834,30.5201995 32.8071499,30.750661 32.693372,30.9846681 L32.5333718,31.3356788 L32.3840383,31.6973261 L32.2453715,32.0589735 L32.1173713,32.4206208 L32.0000378,32.7929049 L31.893371,33.1651889 C31.829371,33.4098327 31.7653709,33.6651132 31.7120375,33.909757 C31.6587041,34.1544008 31.6587041,34.1650374 31.6373707,34.282041 C31.6160374,34.3990445 31.594704,34.5373215 31.5733707,34.6649617 C31.5520373,34.792602 31.5200373,35.1755227 31.4987039,35.4201665 L31.4987039,36.1860079 C31.4987039,36.1860079 31.5093706,36.4412884 31.5200373,36.5582919 C31.5307039,36.6752955 31.5307039,36.8135724 31.5520373,36.930576 C31.5733707,37.0475795 31.5840373,37.1752198 31.6053707,37.30286 L31.6800375,37.6645073 C31.7013708,37.7921476 31.7440375,37.9091511 31.7760376,38.0261547 L31.829371,38.2069784 L31.893371,38.3771653 C31.9360378,38.4941689 31.9680378,38.6111724 32.0213712,38.728176 L32.1707047,39.06855 C32.2240381,39.1855535 32.2880382,39.2812837 32.3520383,39.3982873 L32.4373717,39.5578376 L32.5440385,39.7173879 L32.7467054,40.0258518 L32.9813723,40.323679 L33.0987058,40.4725926 L33.226706,40.6108695 L33.4827063,40.8874234 L32.5760385,41.3448009 C32.5538139,41.2003222 32.5395702,41.0547346 32.5333718,40.9086968 C32.5285908,40.7632448 32.5321522,40.6176392 32.5440385,40.4725926 C32.5577621,40.3297352 32.5791259,40.1877106 32.6080386,40.0471251 C32.6363521,39.9070963 32.6719558,39.7686321 32.7147053,39.6322944 C32.7573721,39.4940174 32.8107055,39.3663772 32.8640389,39.238737 L32.9493723,39.0472766 L33.0453724,38.8664529 L33.1413725,38.6856293 L33.2480393,38.5154423 L33.4827063,38.1750683 L33.7280399,37.8559677 L33.9947069,37.5581405 L34.2720405,37.2709499 L34.5600409,37.0050328 C34.7520411,36.8277547 34.954708,36.6611132 35.1680416,36.5051085 L35.488042,36.2711014 L35.6480421,36.1647345 L35.8293757,36.047731 C36.0093002,35.9393406 36.2362893,35.9464498 36.4090382,36.0658855 C36.5817871,36.1853213 36.668069,36.3948028 36.6293766,36.6008387 L36.6080433,36.7391156 L36.5867099,36.8880292 C36.5760432,36.9837594 36.5653766,37.0901263 36.5547099,37.1858564 C36.5440432,37.2815866 36.5227099,37.5900505 36.5120432,37.7921476 C36.4929928,38.1997717 36.4965538,38.6081344 36.5227099,39.0153665 C36.5492663,39.4220689 36.5991255,39.826924 36.6720434,40.2279488 C36.7467841,40.6238448 36.8465386,41.0146354 36.9707104,41.3979843 C37.100112,41.7775595 37.2569686,42.1472691 37.4400443,42.5041998 C37.5360444,42.6743867 37.6320445,42.8552104 37.7387113,43.0253974 C37.8453781,43.1955844 37.8453781,43.1955844 37.8987115,43.2700412 L38.0693783,43.514685 C38.1227117,43.5997785 38.1973785,43.6742353 38.2613786,43.7486921 C38.3253786,43.8231489 38.3893787,43.9082424 38.4533788,43.9720625 C38.5173789,44.0358826 38.7200458,44.259253 38.880046,44.3868933 L39.1040462,44.5889903 L39.3387132,44.769814 C39.4880467,44.8974542 39.6587136,45.0038211 39.8293804,45.1208247 L40.0853807,45.280375 L40.341381,45.4292886 L40.906715,45.7058424 C41.1121666,45.8039246 41.3116257,45.914029 41.5040491,46.0355797 L41.6640493,46.1313099 L41.8133828,46.2376768 C41.9093829,46.3121336 42.005383,46.3759537 42.1013831,46.4610472 C42.4738048,46.780505 42.7877982,47.161996 43.0293842,47.588536 C43.2658518,48.0074413 43.438413,48.4591406 43.5413848,48.9287585 C43.6424754,49.3863249 43.6925571,49.8536288 43.6907183,50.3221644 C43.691255,50.7780925 43.655588,51.2333471 43.5840515,51.6836603 C43.5111984,52.1289018 43.4114614,52.5693524 43.2853845,53.0026095 C43.2213844,53.2153432 43.1573844,53.4280769 43.0827176,53.6408107 L42.9653841,53.9599112 L42.8267173,54.2896485 L42.037383,53.630174 C42.4213835,53.3642568 42.8053839,53.0770663 43.1893844,52.8005124 L44.3200524,51.9283041 C45.06672,51.3397408 45.7991653,50.7299041 46.5173883,50.098794 C47.9574533,48.8583956 49.3116618,47.5222097 50.5707265,46.0993998 C51.1917434,45.39157 51.7722219,44.6493683 52.3093952,43.8763323 C52.5725066,43.4934116 52.8213958,43.0998542 53.0560627,42.6956601 C53.285598,42.2964151 53.4921546,41.8844634 53.6747301,41.4618045 C54.0373972,40.6215062 54.2933975,39.7386612 54.3467309,38.8664529 C54.3728099,38.4315614 54.3405245,37.9951447 54.2507308,37.5687772 C54.1597092,37.1488547 54.0088439,36.7440967 53.8027303,36.3668316 C53.7017341,36.1798927 53.7219289,35.9509612 53.8541018,35.7844754 C53.9862747,35.6179896 54.2050926,35.5458592 54.410731,35.6009901 L54.6667313,35.6754469 L54.9013982,35.7499037 L55.3707321,35.9307274 L55.8293993,36.1328245 L56.2773999,36.3561949 L56.7147337,36.6114754 L57.1414009,36.8880292 L57.3440678,37.0369428 L57.5467347,37.1964931 L57.9307352,37.5368671 C58.0587353,37.6538707 58.1760688,37.7815109 58.2934023,37.9091511 L58.3787357,38.0048813 L58.4640691,38.1112482 L58.6240693,38.3133452 L58.7734028,38.526079 L58.9120697,38.7494494 C58.9547364,38.8239062 58.9974031,38.9089997 59.0400698,38.9834565 C59.0835729,39.0628367 59.1227412,39.1445037 59.1574033,39.2281003 L59.2640701,39.4727441 L59.3494035,39.7280245 C59.3814035,39.813118 59.3920702,39.8982115 59.4134036,39.983305 C59.4362296,40.0708625 59.4540363,40.1596453 59.466737,40.2492222 L59.5094037,40.5151394 L59.5307371,40.7810565 L59.5307371,41.3128909 L58.5707359,40.9725169 L58.8587363,40.5789595 L59.1360699,40.1641287 C59.3174035,39.8769382 59.498737,39.5897476 59.6587372,39.3025571 C59.8187374,39.0153665 59.9894043,38.7069026 60.1387378,38.4090754 C60.2880713,38.1112482 60.4374048,37.8027843 60.5760716,37.4943204 L60.7787385,37.0263061 L60.9707388,36.5582919 L61.1414056,36.079641 L61.3014058,35.6009901 C61.3547392,35.4414398 61.3974059,35.2818895 61.4400726,35.1117025 C61.4827394,34.9415156 61.5254061,34.7819653 61.5680728,34.622415 C61.6107395,34.4628647 61.6534062,34.2926777 61.6747396,34.1331274 C61.6960729,33.9735771 61.7494063,33.8033901 61.7707397,33.6332031 L61.8454065,33.1332788 L61.8987399,32.6333546 C61.9200732,32.4631676 61.9200732,32.2929806 61.9307399,32.1334303 L61.9307399,31.6228693 C61.9307399,31.6228693 61.9307399,31.2824954 61.9200732,31.1229451 L61.8880732,30.6230208 C61.8774065,30.4528338 61.8454065,30.2932835 61.8240731,30.1230965 L61.7920731,29.867816 L61.7387397,29.6231723 L61.6854063,29.3785285 C61.6717201,29.2961467 61.6539202,29.2144973 61.6320729,29.1338847 L61.5040727,28.6445971 C61.461406,28.4850468 61.3974059,28.3254965 61.3440725,28.1659462 L61.2587391,27.9319391 C61.2267391,27.8574823 61.194739,27.7723888 61.162739,27.697932 L60.9600721,27.2299178 L60.7254051,26.7831769 L60.6080717,26.5598065 L60.4694048,26.3470728 L60.2027378,25.9109686 L60.1920712,25.9109686 C60.1447385,25.8151564 60.1759879,25.6991995 60.2651075,25.6399535 C60.3542271,25.5807076 60.473585,25.5965418 60.5440716,25.6769615 L60.8427386,26.1130657 L60.9920721,26.3364361 L61.1307389,26.5704432 L61.3974059,27.0278207 L61.6320729,27.5064716 L61.7494063,27.7511154 L61.8454065,27.9957592 C61.9094065,28.1659462 61.9840733,28.3254965 62.0374067,28.4956835 L62.1974069,29.0062444 C62.2294069,29.0913379 62.2507403,29.1764314 62.2614069,29.2615249 L62.325407,29.5168054 L62.3894071,29.7720859 L62.4320738,30.038003 C62.4640739,30.2188267 62.4960739,30.3890137 62.5174073,30.5698374 L62.5707406,31.1016717 C62.592074,31.2824954 62.592074,31.4526824 62.6027407,31.633506 C62.6134074,31.8143297 62.6134074,31.8143297 62.6134074,31.8994232 L62.6134074,32.1653404 C62.6134074,32.346164 62.6134074,32.5269877 62.6027407,32.6971747 L62.5707406,33.229009 L62.5067406,33.7608433 C62.4854072,33.941667 62.4534072,34.111854 62.4320738,34.2926777 C62.4107405,34.4735014 62.3680737,34.6436883 62.3360737,34.8138753 C62.3040737,34.9840623 62.2720736,35.164886 62.2187402,35.335073 C62.1654068,35.50526 62.1334068,35.6860836 62.0907401,35.8562706 L61.9414066,36.3668316 L61.7814064,36.8773925 L61.6000728,37.3773168 C61.5360728,37.5475038 61.4720727,37.7070541 61.4080726,37.8772411 C61.2729613,38.2034328 61.1342945,38.5296245 60.9920721,38.8558162 C60.8498497,39.182008 60.6934051,39.5011086 60.5227382,39.813118 C60.3520714,40.121582 60.1814045,40.4406825 60.0000709,40.7491465 L59.7227373,41.206524 C59.6267372,41.3554376 59.5307371,41.5043512 59.4134036,41.6639015 C59.2793988,41.843111 59.0473147,41.9196287 58.8325934,41.8553934 C58.6178721,41.7911582 58.4663524,41.5998829 58.4534024,41.376711 L58.4534024,40.9086968 L58.4320691,40.7065997 L58.4000691,40.5045027 C58.3901805,40.4362991 58.3759292,40.3687957 58.3574023,40.3024056 C58.336069,40.2385855 58.3254023,40.1641287 58.3040689,40.1003086 L58.2400689,39.9088482 L58.1654021,39.7173879 C58.1405117,39.6555082 58.1120188,39.5951309 58.0800687,39.5365642 C58.0480686,39.4727441 58.0160686,39.4089239 57.9840686,39.3557405 L57.8774018,39.1749168 L57.7600683,39.0047299 L57.6320681,38.8345429 L57.5680681,38.7494494 L57.4934013,38.6749926 C57.3974012,38.5686257 57.3014011,38.4728955 57.1947343,38.3665287 L56.8640672,38.0793381 L56.6934004,37.9410612 L56.5120668,37.813421 L56.1493997,37.5687772 L55.7653993,37.3454067 L55.3707321,37.1433097 L54.9653983,36.962486 L54.5493978,36.8029357 L54.3360642,36.7284789 L54.1333973,36.6752955 L54.7307314,35.909454 C54.986106,36.3768176 55.1728991,36.878308 55.2853987,37.3985902 C55.3943738,37.9158187 55.4338314,38.4452096 55.4027322,38.9728198 C55.3387321,40.0152151 55.0400651,41.0150636 54.6453979,41.9298187 C54.4470889,42.3889164 54.2227255,42.8363815 53.9733971,43.2700412 C53.724508,43.7025998 53.4613965,44.1209761 53.1840629,44.5251702 C52.6238647,45.3315196 52.018456,46.1056843 51.3707274,46.8439679 C50.0821377,48.3043824 48.6958537,49.6761072 47.2213892,50.9497289 C46.4889439,51.5879301 45.7422763,52.2084035 44.9813865,52.8111491 L43.8293852,53.6939941 C43.434718,53.9811846 43.0507176,54.2683752 42.6453838,54.5555657 C42.4495359,54.6874879 42.1899778,54.6751443 42.0076085,54.5252355 C41.8252392,54.3753268 41.7635586,54.1236101 41.8560495,53.9067278 L41.9627163,53.6408107 L42.0693831,53.3536201 C42.1333832,53.1621598 42.1973832,52.9706994 42.2507166,52.7686023 C42.3634978,52.3771952 42.4525479,51.9793726 42.5173836,51.5772934 C42.6578043,50.7992929 42.6505679,50.0019246 42.4960502,49.2265857 C42.4169101,48.8615709 42.2839068,48.5102824 42.1013831,48.1841904 C41.9183973,47.8616927 41.6801226,47.5736871 41.3973823,47.3332555 C41.3333822,47.2694354 41.2480488,47.2162519 41.173382,47.1630685 L41.0667152,47.077975 L40.9493818,47.0035182 L40.8320483,46.9290614 L40.7680482,46.8971513 L40.6933814,46.8652413 L40.4053811,46.7163277 L40.1173808,46.5780507 L39.8080471,46.4291371 L39.50938,46.2589501 L39.2213797,46.0781265 C39.0293795,45.9504862 38.8373793,45.8334827 38.6560457,45.6845691 L38.3893787,45.4718353 L38.1333784,45.2378282 C37.9627116,45.0889146 37.8027114,44.9187276 37.6427112,44.7485406 C37.482711,44.5783536 37.4933777,44.5783536 37.4187109,44.4826235 C37.3440442,44.3868933 37.2693774,44.3124365 37.2053773,44.2167063 L37.0027104,43.9401524 L36.8107102,43.6529619 C36.8107102,43.6529619 36.5760432,43.2594045 36.4693765,43.0573075 C36.2612094,42.652429 36.0829578,42.232938 35.9360425,41.8021784 C35.7945325,41.3737408 35.680524,40.9367526 35.5947088,40.493866 C35.5156524,40.0505535 35.4622308,39.6030737 35.4347086,39.1536435 C35.4063998,38.7074396 35.4028388,38.2600167 35.4240419,37.813421 C35.4347086,37.5900505 35.4560419,37.3666801 35.4773753,37.1433097 C35.4987086,36.9199393 35.4987086,36.9199393 35.520042,36.8029357 L35.5413754,36.6327487 L35.5733754,36.4519251 L36.3733763,37.0156695 L36.2347095,37.1007629 L36.0960427,37.1964931 L35.818709,37.3985902 C35.6373755,37.5368671 35.4560419,37.6857807 35.2747084,37.845331 L35.0187081,38.0793381 L34.7733744,38.3239819 L34.5493742,38.5792624 L34.3467073,38.8451796 L34.1547071,39.1217334 L34.0693736,39.2600103 L33.9947069,39.4089239 L33.9200401,39.5578376 L33.85604,39.7067512 C33.8133733,39.8024814 33.7813733,39.9088482 33.7493732,40.0045784 C33.7191385,40.1060394 33.6942159,40.2089997 33.6747065,40.3130423 C33.6550613,40.415045 33.6408193,40.518009 33.6320398,40.6215062 C33.6262849,40.7242475 33.6262849,40.8272289 33.6320398,40.9299701 C33.637269,41.0332803 33.6479504,41.1362442 33.6640398,41.238434 L33.6640398,41.2916175 C33.6872787,41.5156122 33.563625,41.7291587 33.3574638,41.8210657 C33.1513026,41.9129727 32.909263,41.862453 32.7573721,41.6958116 L32.4693717,41.376711 L32.3200382,41.2171607 L32.1813714,41.0469737 L31.9147044,40.7065997 L31.6800375,40.3449524 L31.562704,40.1641287 L31.4560372,39.9726683 C31.3920371,39.8450281 31.3067037,39.7173879 31.2533703,39.5897476 L31.0720367,39.1961902 C31.0080367,39.06855 30.9653699,38.930273 30.9227032,38.7919961 L30.8480365,38.5898991 L30.7840364,38.3771653 C30.7520364,38.2388884 30.698703,38.1006115 30.6773696,37.9623346 L30.5920362,37.5368671 C30.5707028,37.3985902 30.5493695,37.2496766 30.5280361,37.1113996 C30.5067027,36.9731227 30.4960361,36.8242091 30.4853694,36.6859322 C30.4747027,36.5476552 30.464036,36.3987416 30.464036,36.2604647 C30.464036,36.1221878 30.4533693,35.9732742 30.464036,35.8349972 L30.464036,35.4095298 C30.4853694,35.1329759 30.5067027,34.8457854 30.5493695,34.5692315 L30.6133695,34.1544008 C30.6133695,34.1544008 30.6667029,33.8778469 30.698703,33.73957 C30.730703,33.601293 30.8267031,33.197099 30.9013699,32.9205451 L31.0187033,32.516351 L31.1467035,32.1227936 L31.2853703,31.7292362 L31.4347038,31.3463155 L31.594704,30.9633948 L31.7653709,30.580474 C31.8862599,30.3322847 32.0107045,30.0840953 32.1387047,29.835906 L32.3413716,29.4742586 L32.5653718,29.1019746 L33.0667058,29.9209995 L32.9280389,29.9209995 L32.7787054,29.9529095 L32.4693717,30.0273663 L32.160038,30.1124598 L31.861371,30.2188267 L31.562704,30.3358303 L31.2747036,30.4634705 L30.99737,30.6123841 L30.8587032,30.6868409 L30.730703,30.7719344 C30.6453696,30.8357545 30.5493695,30.8783013 30.464036,30.9421214 L30.2080357,31.1335818 L29.9733688,31.3356788 L29.8560353,31.4420457 L29.7493685,31.5590492 L29.5360349,31.7930563 L29.3440347,32.0377001 L29.2480346,32.1653404 L29.1627011,32.2929806 L29.002701,32.5588978 L28.9387009,32.6546279 C28.8175589,32.8196584 28.6093472,32.8966764 28.4095823,32.8503501 C28.2098174,32.8040238 28.0570519,32.6432937 28.0213665,32.4418942 L27.9573664,32.0802469 L27.9253664,31.8994232 L27.9253664,31.7185995 L27.904033,31.3569522 C27.8964139,31.2365228 27.8964139,31.1157342 27.904033,30.9953048 C27.904033,30.8783013 27.904033,30.750661 27.9146997,30.6336575 L27.9573664,30.2720101 C27.9716253,30.150322 27.992995,30.0295675 28.0213665,29.9103628 C28.0436768,29.7919605 28.0721599,29.674798 28.1066999,29.5593521 L28.2133667,29.2083415 L28.3413668,28.8679675 C28.3840336,28.7616006 28.437367,28.6445971 28.4907004,28.5382302 C28.5440337,28.4318633 28.6080338,28.3254965 28.6613672,28.2191296 C28.7147006,28.1127628 28.7893674,28.0170326 28.8533674,27.9106657 L29.066701,27.6234752 L29.301368,27.3469213 L29.5573683,27.0916408 C29.61072,27.0365391 29.6894984,27.0140057 29.7640283,27.0325288 C29.8385583,27.051052 29.8975169,27.1078175 29.9186952,27.1814425 C29.9398734,27.2550674 29.9200537,27.3343663 29.866702,27.3894681 L29.8560353,27.3894681 L29.8133686,27.3681947 Z" id="Shape" fill="#31323D" fill-rule="nonzero"></path>
                    </g>
                </g>
            </g>
        </g>
    </g>
</svg>