<?xml version="1.0" encoding="UTF-8"?>
<svg width="20px" height="24px" viewBox="0 0 20 24" version="1.1" xmlns="http://www.w3.org/2000/svg" xmlns:xlink="http://www.w3.org/1999/xlink">
    <!-- Generator: Sketch 47.1 (45422) - http://www.bohemiancoding.com/sketch -->
    <title>Group 3</title>
    <desc>Created with Sketch.</desc>
    <defs></defs>
    <g id="Link-Exchange-1.0" stroke="none" stroke-width="1" fill="none" fill-rule="evenodd">
        <g id="Widget_Default" transform="translate(-475.000000, -352.000000)" fill-rule="nonzero" fill="#FFA08D">
            <g id="Group-12" transform="translate(210.000000, 249.000000)">
                <g transform="translate(225.000000, 77.000000)" id="Group-6">
                    <g>
                        <g id="strong-up-copy-7" transform="translate(40.000000, 26.000000)">
                            <g id="Group-3">
                                <path d="M13,22 L7,22 C6.4,22 6,22.4 6,23 C6,23.6 6.4,24 7,24 L13,24 C13.6,24 14,23.6 14,23 C14,22.4 13.6,22 13,22 Z" id="Shape"></path>
                                <path d="M10,0 L0,12.8571429 L6.03960396,12.8571429 L6.03960396,18.9795918 C6.03960396,19.5918367 6.43564356,20 7.02970297,20 L12.970297,20 C13.5643564,20 13.960396,19.5918367 13.960396,18.9795918 L13.960396,12.8571429 L20,12.8571429 L10,0 Z" id="Shape"></path>
                            </g>
                        </g>
                    </g>
                </g>
            </g>
        </g>
    </g>
</svg>