<?xml version="1.0" encoding="UTF-8"?>
<svg width="24px" height="24px" viewBox="0 0 24 24" version="1.1" xmlns="http://www.w3.org/2000/svg" xmlns:xlink="http://www.w3.org/1999/xlink">
    <!-- Generator: Sketch 48.2 (47327) - http://www.bohemiancoding.com/sketch -->
    <title>compass-05</title>
    <desc>Created with Sketch.</desc>
    <defs></defs>
    <g id="MainDefault" stroke="none" stroke-width="1" fill="none" fill-rule="evenodd" transform="translate(-220.000000, -410.000000)">
        <g id="compass-05" transform="translate(220.000000, 410.000000)" fill="#264DD9" fill-rule="nonzero">
            <path d="M12,0 C5.4,0 0,5.4 0,12 C0,18.6 5.4,24 12,24 C18.6,24 24,18.6 24,12 C24,5.4 18.6,0 12,0 Z M12,21 C7.05,21 3,16.95 3,12 C3,7.05 7.05,3 12,3 C16.95,3 21,7.05 21,12 C21,16.95 16.95,21 12,21 Z" id="Shape"></path>
            <path d="M15.3,7.2 L10.8,9.3 C10.2,9.75 9.75,10.2 9.45,10.8 L7.35,15.3 C6.9,16.2 7.8,17.1 8.7,16.65 L13.2,14.55 C13.8,14.25 14.4,13.8 14.55,13.2 L16.65,8.7 C17.1,7.8 16.2,6.9 15.3,7.2 Z" id="Shape"></path>
        </g>
    </g>
</svg>