<svg xmlns="http://www.w3.org/2000/svg" viewBox="0 0 16 16" width="16" height="16"><title>server rack</title><g class="nc-icon-wrapper" fill="#1b2437"><path d="M15,7H1A1,1,0,0,1,0,6V1A1,1,0,0,1,1,0H15a1,1,0,0,1,1,1V6A1,1,0,0,1,15,7ZM2,5H14V2H2Z" fill="#1b2437"/> <circle cx="12.5" cy="3.5" r="0.5" fill="#1b2437"/> <rect x="3" y="3" width="4" height="1" fill="#1b2437"/> <path d="M15,16H1a1,1,0,0,1-1-1V10A1,1,0,0,1,1,9H15a1,1,0,0,1,1,1v5A1,1,0,0,1,15,16ZM2,14H14V11H2Z" data-color="color-2"/> <circle cx="12.5" cy="12.5" r="0.5" data-color="color-2"/> <rect x="3" y="12" width="4" height="1" data-color="color-2"/></g></svg>