<?xml version="1.0" encoding="UTF-8"?>
<svg width="29px" height="29px" viewBox="0 0 29 29" version="1.1" xmlns="http://www.w3.org/2000/svg" xmlns:xlink="http://www.w3.org/1999/xlink">
    <!-- Generator: Sketch 48.2 (47327) - http://www.bohemiancoding.com/sketch -->
    <title>hypno</title>
    <desc>Created with Sketch.</desc>
    <defs></defs>
    <g id="mycat-empty-copy" stroke="none" stroke-width="1" fill="none" fill-rule="evenodd" transform="translate(-299.000000, -255.000000)">
        <g id="leftEye" transform="translate(299.549050, 255.006283)" fill="#31323D" fill-rule="nonzero">
            <g id="Bitmap" transform="translate(0.000000, 0.726087)">
                <path d="M13.500726,-1 C5.5053073,-1 -1,5.5049816 -1,13.5014519 C-1,21.4961073 5.5053073,28 13.500726,28 C21.4954187,28 28,21.4961073 28,13.5014519 C28,5.5049816 21.4954187,-1 13.500726,-1 Z M25.9519589,6.70898941 C23.4189511,4.39498586 20.2398047,2.9383433 16.7012893,3.00041305 C14.5330955,3.03417028 10.5553511,3.71947831 8.74580048,6.61461436 C4.32810114,13.6774977 13.8539241,20.7382031 16.3390161,14.2089018 C14.4492427,21.4743285 6.14055576,16.4013067 5.85197146,10.9529627 C5.60113907,6.22658773 9.49974966,2.51184069 12.3601828,1.55175608 C15.158543,0.611635417 17.9060834,0.553195484 20.4739392,1.16009963 C22.7742646,2.46537913 24.680373,4.38736326 25.9519589,6.70898941 Z M10.8352234,-0.427216061 C4.93539867,2.77064611 0.704643885,10.9947055 6.57361372,16.7403309 C11.0508449,21.1196961 20.2775566,17.3080331 15.2532858,11.6774727 C20.3643134,13.9076276 17.1858931,21.5948382 9.82971586,20.3541693 C2.92147953,19.1940822 0.540568281,10.6818159 2.78898485,4.22692568 C4.83702591,1.86391969 7.64555013,0.182228953 10.8352234,-0.427216061 Z M-0.541532107,11.5816457 C0.457078483,16.7595689 3.78723244,21.2866673 9.10480661,22.1636293 C20.3603204,24.0162841 21.2333333,8.64948557 12.3598198,11.6771097 C15.7386156,8.29993491 20.7196896,12.0317421 20.3149456,17.100771 C19.9102015,22.189401 13.7980223,25.4968834 7.6575291,24.3328035 C5.41564651,23.9070268 3.19009889,22.5719829 1.2785455,20.6681478 C0.0374514958,18.5621323 -0.687094755,16.1178186 -0.687094755,13.5010889 C-0.687094755,12.8480862 -0.626836901,12.2114176 -0.541532107,11.5816457 Z M7.51813744,26.3462588 C12.9384404,27.3027136 18.6215546,25.92266 21.0398548,21.0786793 C23.1728377,16.8049415 20.9106271,7.95074724 14.1697334,9.5082985 C12.2135311,9.96093574 11.2203655,12.2919994 11.6367255,14.5697049 C9.71573413,11.4469797 12.0363875,8.82662027 14.5316435,8.42262247 C23.1673927,7.02841265 26.5360245,18.3646707 21.4017649,24.6946955 C20.8275003,25.4014194 20.1599449,25.9121336 19.4499186,26.36223 C17.637827,27.2028938 15.6268119,27.6867474 13.500726,27.6867474 C11.3608462,27.6871104 9.33857804,27.1967232 7.51813744,26.3462588 Z M26.2539742,19.673943 C26.6187883,13.843017 23.3405432,7.60555236 17.4229315,6.97723233 C10.5139692,6.24110697 6.93370885,15.0923974 14.5316435,16.015821 C4.58691951,15.4934914 10.4468144,5.62658022 15.6155589,5.16849826 C21.3407811,4.65923599 25.6521217,8.43460085 27.6791088,13.3486369 C27.6798348,13.4005432 27.6867318,13.4495456 27.6867318,13.5014519 C27.6870948,15.7156357 27.162924,17.8045911 26.2539742,19.673943 Z" id="hypno"></path>
            </g>
        </g>
    </g>
</svg>