<?xml version="1.0" encoding="UTF-8"?>
<svg width="32px" height="32px" viewBox="0 0 32 32" version="1.1" xmlns="http://www.w3.org/2000/svg" xmlns:xlink="http://www.w3.org/1999/xlink">
    <title>Group 10</title>
    <desc>Created with Sketch.</desc>
    <defs>
        <circle id="path-1" cx="15" cy="15" r="15"></circle>
        <path d="M12.4192651,2.06990741 C13.4229137,1.42567939 14.5892939,1.08371678 15.7803828,1.08448549 L19.8863969,1.08448549 C20.8576181,1.08357105 21.8156531,1.31030304 22.6843003,1.74664731 C23.3201874,1.24611554 25.0046395,-0.0312832354 26.0402271,0.018248554 C26.1784469,0.0242009666 26.303139,0.103382471 26.3677716,0.226244583 C26.4324041,0.349106696 26.4272671,0.497191262 26.3542775,0.615236962 L24.6828027,3.33166457 C25.2502944,4.01104692 25.6678376,4.80362268 25.9078588,5.65705173 L33.5670544,30.686247 C33.9482877,32.0236732 33.8900361,33.4489209 33.4009451,34.7504606 L33.4217088,34.7582814 C34.6545512,35.1180386 36.9722949,35.9600791 38.0883417,36.7265183 C38.7657562,37.190553 38.350483,38.1837957 37.4861956,38.1681541 L30.6964782,38.0378073 C30.1695421,38.3619544 29.5986834,38.6078155 29.0016443,38.7677494 C29.0743172,39.114472 29.3208856,39.3152061 29.730968,39.3386685 C30.2033413,39.3647378 30.3460914,39.8235586 30.3668551,40.0034372 C30.4265506,40.5561077 30.2163185,40.9080441 29.6427224,40.9653967 L27.2600922,41.0436048 C27.061964,41.0507457 26.8646105,41.0151894 26.6813052,40.9393274 C26.090692,40.6923338 25.6680944,40.157565 25.5626629,39.523761 L25.4718219,38.9841252 L11.625055,38.9841252 L11.4952822,39.6775702 C11.45694,39.8973265 11.3795761,40.1083692 11.2668819,40.300628 C10.9190905,40.8950094 10.2572488,41.2313042 9.572048,41.1895932 L7.38407716,41.0592464 C6.82864921,41.0175355 6.55612615,40.5665355 6.67811266,40.0060442 C6.7429991,39.7166742 7.07002677,39.4768361 7.47232272,39.4559806 C8.07706436,39.4246974 8.2587464,38.9293795 8.24836457,38.3193564 L8.24836457,38.2333275 C8.12551291,38.1690231 8.0052567,38.1003738 7.88759595,38.0273795 L0.960319349,38.1655472 C0.0960319349,38.1811888 -0.329623128,37.1696975 0.358173163,36.7239114 C1.75972032,35.8140906 4.15792324,34.9199115 5.14679262,34.6826803 L5.16236536,34.6774664 C4.80969806,33.6967832 4.69752203,32.6451767 4.83533769,31.6117093 L9.58242983,6.54862394 C9.69507009,5.68245691 9.98681556,4.84952502 10.4389309,4.10331771 L8.86867896,1.28521959 C8.79567403,1.15330535 8.80476527,0.99096852 8.89203808,0.868109782 C9.53830705,-0.0417109805 11.2097818,1.08969937 12.2868968,1.97866464 L12.4192651,2.06990741 Z" id="path-3"></path>
    </defs>
    <g id="comments-copy-3" stroke="none" stroke-width="1" fill="none" fill-rule="evenodd" transform="translate(-740.000000, -404.000000)">
        <g id="Group-4" transform="translate(736.000000, 400.000000)">
            <g id="Group-3-Copy-8">
                <g id="Group-8" transform="translate(5.000000, 5.000000)">
                    <g id="Group-10">
                        <mask id="mask-2" fill="white">
                            <use xlink:href="#path-1"></use>
                        </mask>
                        <use id="Mask" stroke="#FC0035" fill="#FFE3E9" xlink:href="#path-1"></use>
                        <g mask="url(#mask-2)" id="134330">
                            <g transform="translate(-3.259259, 8.240741)">
                                <g transform="translate(0.006734, 0.000000)">
                                    <g id="bodyFur">
                                        <g id="Clipped">
                                            <mask id="mask-4" fill="white">
                                                <use xlink:href="#path-3"></use>
                                            </mask>
                                            <g id="Shape"></g>
                                            <g id="Group" mask="url(#mask-4)" fill="#FC0035" fill-rule="nonzero">
                                                <g transform="translate(-0.233591, -5.761329)" id="Shape">
                                                    <polygon points="0.0025954577 0.0130346814 39.4665298 0.0130346814 39.4665298 48.8878761 0.0025954577 48.8878761"></polygon>
                                                </g>
                                            </g>
                                        </g>
                                    </g>
                                    <g id="body" transform="translate(4.728956, 1.061491)"></g>
                                    <g id="eye" transform="translate(7.734464, 5.239942)">
                                        <ellipse id="Oval" fill="#FC0035" fill-rule="nonzero" cx="17.4362848" cy="3.38901717" rx="3.36630864" ry="3.38119636"></ellipse>
                                        <ellipse id="Oval" fill="#FC0035" fill-rule="nonzero" cx="3.3870723" cy="3.68360097" rx="3.36630864" ry="3.38119636"></ellipse>
                                        <g id="Clipped" transform="translate(0.000000, 0.286763)"></g>
                                    </g>
                                </g>
                            </g>
                        </g>
                    </g>
                </g>
            </g>
        </g>
    </g>
</svg>