<?xml version="1.0" encoding="UTF-8"?>
<svg width="19px" height="16px" viewBox="0 0 19 16" version="1.1" xmlns="http://www.w3.org/2000/svg" xmlns:xlink="http://www.w3.org/1999/xlink">
    <g stroke="none" stroke-width="1" fill="none" fill-rule="evenodd" transform="translate(-426.000000, -952.000000)">
        <g transform="translate(426.000000, 950.000000)">
            <g transform="translate(9.500000, 10.500000) rotate(-180.000000) translate(-9.500000, -10.500000) translate(0.000000, 2.000000)">
                <g transform="translate(9.573375, 8.321892) scale(-1, 1) rotate(-177.000000) translate(-9.573375, -8.321892) translate(0.573375, 0.821892)" fill-rule="nonzero" id="Shape">
                    <path d="M6.88844444,13.1144824 L2.19877778,7.98278824 L2.15355556,7.94085882 C0.124666667,6.05287059 -0.022,3.12712941 1.85533333,1.42665882 C3.62755556,-0.180635294 6.57311111,0.202552941 8.66066667,1.76908235 C10.7445556,0.202552941 13.7451111,-0.178305882 15.5173333,1.42665882 C17.3922222,3.12712941 17.2528889,6.05403529 15.2044444,7.95017647 L15.1628889,7.99210588 L10.0026667,13.2938471 C9.90366667,13.3835294 8.82444444,13.6642235 8.68388889,13.6630588 C8.54455556,13.6642235 6.98744444,13.2041647 6.88722222,13.1144824 L6.88844444,13.1144824 Z" fill="#A6A3B0"></path>
                    <path d="M8.32944444,13.5768706 L2.66933333,8.29376471 C0.585444444,6.25552941 -0.102666667,3.09102353 2.233,1.24496471 C4.56744444,-0.601094118 8.12777778,-0.203929412 8.32944444,1.66425882 C6.75033333,0.765105882 4.52833333,2.25825882 3.97222222,4.16371765 C3.41611111,6.06917647 3.73755556,7.659 8.11555556,12.3655765 C8.51888889,12.7988471 9.30477778,12.7545882 9.97088889,12.5146588 C9.97088889,12.6998471 9.42333333,13.0539176 8.32944444,13.5768706 Z" fill="#928F9B"></path>
                    <path d="M15.8796777,14.0555647 L10.2183443,8.77362353 C8.13445545,6.73538824 7.85578878,3.5604 9.78323322,1.72482353 C11.6031221,-0.0105882353 12.6016777,-0.316905882 15.6572332,1.14829412 C12.7764554,0.676588235 11.5383443,3.05608235 11.4747888,4.18235294 C11.4136777,5.30978824 10.7108999,7.62988235 15.9676777,12.4622471 C16.3905666,12.8512588 16.855011,13.2344471 17.5198999,12.9945176 C17.5198999,13.1797059 16.9735666,13.5326118 15.8796777,14.0555647 Z" fill="#C5C3CD" transform="translate(13.002283, 7.134588) scale(-1, 1) translate(-13.002283, -7.134588) "></path>
                </g>
                <path d="M7.27466667,2.98641176 C5.13577778,4.90934118 3.53344444,6.59583529 2.46766667,8.04472941 C0.503555556,10.7165647 0.521888889,13.3441412 2.54711111,15.0818824 C4.34377778,16.6239529 7.60955556,16.0648941 9.14588889,14.0429647 C9.21895493,13.9456045 9.33568263,13.8865064 9.46124405,13.8833035 C9.58680547,13.8801005 9.70668382,13.9331631 9.78511111,14.0266588 C11.6428889,15.8133176 14.9465556,16.0846941 16.5562222,14.3818941 C18.3773333,12.4531412 18.0461111,9.54021176 15.8485556,7.36570588 C14.6471111,6.17770588 12.8577778,4.67523529 10.4793333,2.86295294 C9.52813239,2.13719591 8.16128557,2.18985328 7.27466667,2.98641176 Z" stroke="#726F79"></path>
            </g>
        </g>
    </g>
</svg>