<?xml version="1.0" encoding="UTF-8"?>
<svg width="32px" height="32px" viewBox="0 0 32 32" version="1.1" xmlns="http://www.w3.org/2000/svg" xmlns:xlink="http://www.w3.org/1999/xlink">
  <path fill="#FC0035" d="M15,8 C13.1142857,8 11.5714286,9.54285714 11.5714286,11.4285714 L11.5714286,12.2857143 L9.85714286,12.2857143 C9.34285714,12.2857143 9,12.6285714 9,13.1428571 L9,20.8571429 C9,21.3714286 9.34285714,21.7142857 9.85714286,21.7142857 L20.1428571,21.7142857 C20.6571429,21.7142857 21,21.3714286 21,20.8571429 L21,13.1428571 C21,12.6285714 20.6571429,12.2857143 20.1428571,12.2857143 L18.4285714,12.2857143 L18.4285714,11.4285714 C18.4285714,9.54285714 16.8857143,8 15,8 Z M15.8571429,18.0285714 L15.8571429,19.1428571 L14.1428571,19.1428571 L14.1428571,18.0285714 C13.6285714,17.7714286 13.2857143,17.1714286 13.2857143,16.5714286 C13.2857143,15.6285714 14.0571429,14.8571429 15,14.8571429 C15.9428571,14.8571429 16.7142857,15.6285714 16.7142857,16.5714286 C16.7142857,17.1714286 16.3714286,17.7714286 15.8571429,18.0285714 Z M16.7142857,12.2857143 L13.2857143,12.2857143 L13.2857143,11.4285714 C13.2857143,10.4857143 14.0571429,9.71428571 15,9.71428571 C15.9428571,9.71428571 16.7142857,10.4857143 16.7142857,11.4285714 L16.7142857,12.2857143 Z" fill-rule="nonzero"></path>
</svg>