<?xml version="1.0" encoding="UTF-8"?>
<svg width="154px" height="48px" viewBox="0 0 154 48" version="1.1" xmlns="http://www.w3.org/2000/svg" xmlns:xlink="http://www.w3.org/1999/xlink">
    <!-- Generator: Sketch 48.2 (47327) - http://www.bohemiancoding.com/sketch -->
    <title>Group 3</title>
    <desc>Created with Sketch.</desc>
    <defs>
        <circle id="path-1" cx="21.9858308" cy="21.9858308" r="21.9858308"></circle>
    </defs>
    <g id="press" stroke="none" stroke-width="1" fill="none" fill-rule="evenodd" transform="translate(-639.000000, -3469.000000)">
        <g id="Group-3" transform="translate(641.000000, 3471.000000)">
            <g id="Group-2-Copy-2">
                <g id="Oval">
                    <use fill="#22293B" fill-rule="evenodd" xlink:href="#path-1"></use>
                    <circle stroke="#FFFFFF" stroke-width="1.54849972" cx="21.9858308" cy="21.9858308" r="22.7600807"></circle>
                </g>
                <circle id="Oval" fill="#FFFFFF" cx="17.4787355" cy="17.4787355" r="11.6524903"></circle>
                <circle id="Oval" fill="#FFFFFF" cx="33.0886754" cy="33.0886754" r="3.29787462"></circle>
            </g>
            <path d="M61.52,17.76 L61.52,29 L58.1,29 L58.1,17.76 L54.1,17.76 L54.1,14.84 L65.52,14.84 L65.52,17.76 L61.52,17.76 Z M77.46,23.98 C77.46,24.7933374 77.3133348,25.5299967 77.02,26.19 C76.7266652,26.8500033 76.3266692,27.4099977 75.82,27.87 C75.3133308,28.3300023 74.72667,28.6866654 74.06,28.94 C73.39333,29.1933346 72.6800038,29.32 71.92,29.32 C71.1733296,29.32 70.4633367,29.1933346 69.79,28.94 C69.1166633,28.6866654 68.5300025,28.3300023 68.03,27.87 C67.5299975,27.4099977 67.1333348,26.8500033 66.84,26.19 C66.5466652,25.5299967 66.4,24.7933374 66.4,23.98 C66.4,23.1666626 66.5466652,22.4333366 66.84,21.78 C67.1333348,21.1266634 67.5299975,20.5733356 68.03,20.12 C68.5300025,19.6666644 69.1166633,19.3200012 69.79,19.08 C70.4633367,18.8399988 71.1733296,18.72 71.92,18.72 C72.6800038,18.72 73.39333,18.8399988 74.06,19.08 C74.72667,19.3200012 75.3133308,19.6666644 75.82,20.12 C76.3266692,20.5733356 76.7266652,21.1266634 77.02,21.78 C77.3133348,22.4333366 77.46,23.1666626 77.46,23.98 Z M74.3,23.98 C74.3,23.6599984 74.2466672,23.3466682 74.14,23.04 C74.0333328,22.7333318 73.880001,22.4633345 73.68,22.23 C73.479999,21.9966655 73.2333348,21.8066674 72.94,21.66 C72.6466652,21.5133326 72.3066686,21.44 71.92,21.44 C71.5333314,21.44 71.1933348,21.5133326 70.9,21.66 C70.6066652,21.8066674 70.3633343,21.9966655 70.17,22.23 C69.9766657,22.4633345 69.8300005,22.7333318 69.73,23.04 C69.6299995,23.3466682 69.58,23.6599984 69.58,23.98 C69.58,24.3000016 69.6299995,24.6133318 69.73,24.92 C69.8300005,25.2266682 69.979999,25.5033321 70.18,25.75 C70.380001,25.9966679 70.6266652,26.1933326 70.92,26.34 C71.2133348,26.4866674 71.5533314,26.56 71.94,26.56 C72.3266686,26.56 72.6666652,26.4866674 72.96,26.34 C73.2533348,26.1933326 73.499999,25.9966679 73.7,25.75 C73.900001,25.5033321 74.0499995,25.2266682 74.15,24.92 C74.2500005,24.6133318 74.3,24.3000016 74.3,23.98 Z M90.24,29 L86.18,29 L82.92,24.22 L82.86,24.22 L82.86,29 L79.56,29 L79.56,13.88 L82.86,13.88 L82.86,23.08 L82.92,23.08 L86.1,19.04 L90.08,19.04 L86.24,23.54 L90.24,29 Z M93.5,20.26 L90.98,20.26 L92.42,14.84 L95.32,14.84 L93.5,20.26 Z M103.98,29 L103.98,23.56 C103.98,23.2799986 103.956667,23.0133346 103.91,22.76 C103.863333,22.5066654 103.786667,22.2833343 103.68,22.09 C103.573333,21.8966657 103.423334,21.7433339 103.23,21.63 C103.036666,21.5166661 102.793335,21.46 102.5,21.46 C102.206665,21.46 101.950001,21.5166661 101.73,21.63 C101.509999,21.7433339 101.326667,21.899999 101.18,22.1 C101.033333,22.300001 100.923334,22.5299987 100.85,22.79 C100.776666,23.0500013 100.74,23.3199986 100.74,23.6 L100.74,29 L97.44,29 L97.44,19.04 L100.62,19.04 L100.62,20.42 L100.66,20.42 C100.780001,20.2066656 100.936666,19.9966677 101.13,19.79 C101.323334,19.5833323 101.549999,19.4066674 101.81,19.26 C102.070001,19.1133326 102.353332,18.9933338 102.66,18.9 C102.966668,18.8066662 103.293332,18.76 103.64,18.76 C104.30667,18.76 104.873331,18.8799988 105.34,19.12 C105.806669,19.3600012 106.183332,19.6699981 106.47,20.05 C106.756668,20.4300019 106.963333,20.8666642 107.09,21.36 C107.216667,21.8533358 107.28,22.3466642 107.28,22.84 L107.28,29 L103.98,29 Z M111.82,20.26 L109.3,20.26 L110.74,14.84 L113.64,14.84 L111.82,20.26 Z M119.32,21.5 L119.32,25.3 C119.32,25.766669 119.409999,26.1166655 119.59,26.35 C119.770001,26.5833345 120.093331,26.7 120.56,26.7 C120.720001,26.7 120.889999,26.6866668 121.07,26.66 C121.250001,26.6333332 121.399999,26.5933336 121.52,26.54 L121.56,28.94 C121.333332,29.0200004 121.046668,29.0899997 120.7,29.15 C120.353332,29.2100003 120.006668,29.24 119.66,29.24 C118.99333,29.24 118.433336,29.1566675 117.98,28.99 C117.526664,28.8233325 117.163335,28.5833349 116.89,28.27 C116.616665,27.9566651 116.420001,27.5833355 116.3,27.15 C116.179999,26.7166645 116.12,26.233336 116.12,25.7 L116.12,21.5 L114.52,21.5 L114.52,19.04 L116.1,19.04 L116.1,16.42 L119.32,16.42 L119.32,19.04 L121.66,19.04 L121.66,21.5 L119.32,21.5 Z M129.08,24.66 L128.66,24.66 C128.299998,24.66 127.936669,24.6766665 127.57,24.71 C127.203332,24.7433335 126.876668,24.8066662 126.59,24.9 C126.303332,24.9933338 126.066668,25.1299991 125.88,25.31 C125.693332,25.4900009 125.6,25.7266652 125.6,26.02 C125.6,26.2066676 125.643333,26.366666 125.73,26.5 C125.816667,26.633334 125.926666,26.7399996 126.06,26.82 C126.193334,26.9000004 126.346666,26.9566665 126.52,26.99 C126.693334,27.0233335 126.859999,27.04 127.02,27.04 C127.68667,27.04 128.196665,26.8566685 128.55,26.49 C128.903335,26.1233315 129.08,25.6266698 129.08,25 L129.08,24.66 Z M123.06,20.4 C123.64667,19.8399972 124.329996,19.4200014 125.11,19.14 C125.890004,18.8599986 126.686663,18.72 127.5,18.72 C128.340004,18.72 129.049997,18.8233323 129.63,19.03 C130.210003,19.2366677 130.679998,19.5566645 131.04,19.99 C131.400002,20.4233355 131.663333,20.9699967 131.83,21.63 C131.996668,22.2900033 132.08,23.0733288 132.08,23.98 L132.08,29 L129.08,29 L129.08,27.94 L129.02,27.94 C128.766665,28.3533354 128.383336,28.6733322 127.87,28.9 C127.356664,29.1266678 126.800003,29.24 126.2,29.24 C125.799998,29.24 125.386669,29.1866672 124.96,29.08 C124.533331,28.9733328 124.143335,28.8000012 123.79,28.56 C123.436665,28.3199988 123.146668,28.000002 122.92,27.6 C122.693332,27.199998 122.58,26.7066696 122.58,26.12 C122.58,25.3999964 122.776665,24.8200022 123.17,24.38 C123.563335,23.9399978 124.069997,23.6000012 124.69,23.36 C125.310003,23.1199988 125.999996,22.9600004 126.76,22.88 C127.520004,22.7999996 128.259996,22.76 128.98,22.76 L128.98,22.6 C128.98,22.1066642 128.806668,21.7433345 128.46,21.51 C128.113332,21.2766655 127.686669,21.16 127.18,21.16 C126.713331,21.16 126.263336,21.259999 125.83,21.46 C125.396665,21.660001 125.026668,21.8999986 124.72,22.18 L123.06,20.4 Z M134.56,29 L134.56,13.88 L137.88,13.88 L137.88,29 L134.56,29 Z M151.18,29 L147.12,29 L143.86,24.22 L143.8,24.22 L143.8,29 L140.5,29 L140.5,13.88 L143.8,13.88 L143.8,23.08 L143.86,23.08 L147.04,19.04 L151.02,19.04 L147.18,23.54 L151.18,29 Z" id="Tok’n’talk-Copy" fill="#21293E"></path>
        </g>
    </g>
</svg>