<?xml version="1.0" encoding="UTF-8"?>
<svg width="53px" height="57px" viewBox="0 0 53 57" version="1.1" xmlns="http://www.w3.org/2000/svg" xmlns:xlink="http://www.w3.org/1999/xlink">
    <!-- Generator: Sketch 47.1 (45422) - http://www.bohemiancoding.com/sketch -->
    <title>paw</title>
    <desc>Created with Sketch.</desc>
    <defs></defs>
    <g id="Page-1" stroke="none" stroke-width="1" fill="none" fill-rule="evenodd">
        <g id="paw" transform="translate(-8.000000, -7.000000)" fill-rule="nonzero" fill="#2F2670">
            <g transform="translate(35.516660, 35.516660) rotate(-30.000000) translate(-35.516660, -35.516660) translate(9.516660, 9.516660)" id="Shape">
                <path d="M13.5730773,11.8650951 C14.3272034,14.3735871 16.6533897,16 19.1686908,16 C19.7177675,16 20.2759664,15.9232049 20.8273295,15.7594372 C22.3196471,15.3200862 23.5522293,14.3295687 24.2926838,12.9719616 C25.0354247,11.6132443 25.1994595,10.0489613 24.7551821,8.56938428 L23.4268993,4.13516366 C22.5087385,1.0788823 19.2620817,-0.66723375 16.1726472,0.23971125 C14.6803529,0.68019567 13.4477707,1.67071312 12.7073162,3.02829707 C11.9645753,4.38703757 11.8005405,5.95129737 12.2448179,7.43087443 L13.5730773,11.8650951 Z"></path>
                <path d="M32.172663,15.7594585 C32.7240251,15.9232118 33.282223,16 33.8312988,16 C36.346572,16 38.6727775,14.3737544 39.4269021,11.8654616 L40.7551825,7.43165726 C41.1994591,5.95221137 41.0354247,4.38806712 40.2926851,3.02947021 C39.5522319,1.67200662 38.3196519,0.681553853 36.827337,0.242241805 C33.7538659,-0.671399584 30.4935667,1.08020514 29.5730979,4.13621554 L28.2448175,8.57001992 C27.8005409,10.0494658 27.9645753,11.6136101 28.7073149,12.972207 C29.4477915,14.3296937 30.6803715,15.3201464 32.172663,15.7594585 Z"></path>
                <path d="M10.0614906,22.6888154 C11.1853907,21.7414458 11.8662243,20.418528 11.9829279,18.9643826 C12.0974847,17.5091666 11.632795,16.0977149 10.6709919,14.9892275 L9.73944354,13.9117008 C7.76181227,11.6222078 4.26473252,11.3501605 1.93911517,13.3067992 C0.817361899,14.2552395 0.13438139,15.5781572 0.0176556638,17.0323026 C-0.0990479306,18.4874968 0.365641747,19.8989703 1.32744491,21.0085065 L2.25899323,22.0849844 C3.21862744,23.1945206 4.55867153,23.8687941 6.03272668,23.9829356 C6.17970726,23.9935981 6.32883466,24 6.47364627,24 C7.78989815,24 9.04997827,23.5423199 10.0614906,22.6888154 Z"></path>
                <path d="M50.0608848,13.3063627 C47.7395833,11.3494522 44.2403567,11.6236788 42.2605565,13.9102994 L41.3290081,14.9869269 C40.367205,16.0966172 39.9025153,17.5082867 40.0170721,18.9636831 C40.1337757,20.4180305 40.8146093,21.741132 41.9385094,22.6886333 C42.9500217,23.5422345 44.2101018,24 45.5263537,24 C45.6711653,24 45.8202927,23.9935972 45.9672733,23.9829332 C47.4413285,23.8687541 48.7813504,23.1944087 49.7410068,22.0847184 L50.6725551,21.0080909 C51.6343583,19.8984006 52.0990479,18.4867311 51.9823443,17.0313347 C51.8656186,15.5769655 51.1826381,14.253864 50.0608848,13.3063627 Z"></path>
                <path d="M38.2689072,27.4595015 C35.3770881,23.4144712 30.6031925,21 25.4999665,21 C20.3967405,21 15.6228449,23.4144712 12.7310258,27.4595015 L7.58201915,35.8761035 C5.18525644,39.797878 5.53200586,44.4343633 8.48490309,47.9766048 C10.6635935,50.5900434 13.7822168,52 17.0404152,52 C18.379466,52 19.7403128,51.7621248 21.0706542,51.2723126 L21.5177414,51.110127 C24.0867957,50.1618592 26.9153705,50.1650923 29.4888019,51.1112121 L29.9249688,51.2712497 C34.5025881,52.9547783 39.4400658,51.6605041 42.5150969,47.9766269 C45.4679941,44.4343854 45.8147436,39.7979001 43.4179809,35.8761256 L38.2689072,27.4595015 Z"></path>
            </g>
        </g>
    </g>
</svg>